{
classes = (
{
automatic = 1;
code = "A Aacute Abreve Acircumflex Adieresis Agrave Amacron Aogonek Aring Atilde AE B C Cacute Ccaron Ccedilla D Eth Dcaron Dcroat E Eacute Ecaron Ecircumflex Edieresis Edotaccent Egrave Emacron Eogonek F G Gbreve H I IJ Iacute Icircumflex Idieresis Idotaccent Igrave Imacron Iogonek J K L Lacute Lcaron Lslash M N Nacute Ncaron Ntilde O Oacute Ocircumflex Odieresis Ograve Ohungarumlaut Omacron Oslash Otilde OE P Thorn Q R Racute Rcaron S Sacute Scaron Germandbls T Tcaron U Uacute Ucircumflex Udieresis Ugrave Uhungarumlaut Umacron Uogonek Uring V W X Y Yacute Ydieresis Z Zacute Zcaron Zdotaccent uni0122 uni0136 uni013B uni0145 uni0156 uni015E uni0162 uni0218 uni021A Iacute_J.loclNLD IJ.ss03 Iacute_J.loclNLD.ss03 Adieresis.titl Odieresis.titl Udieresis.titl Ydieresis.titl";
name = Uppercase;
}
);
copyright = "Copyright \U00A9 2015 by Wei Huang. All rights reserved.";
customParameters = (
{
name = license;
value = "This Font Software is licensed under the SIL Open Font License Version 1.1. This license is available with a FAQ at: http://scripts.sil.org/OFL";
},
{
name = licenseURL;
value = "http://scripts.sil.org/OFL";
}
);
date = "2015-02-07 11:35:02 +0000";
designer = "Wei Huang";
designerURL = "wweeiihhuuaanngg@gmail.com";
familyName = "Work Sans";
featurePrefixes = (
{
automatic = 1;
code = "languagesystem DFLT dflt;\012languagesystem grek dflt;\012languagesystem latn dflt;\012languagesystem latn TRK;\012languagesystem latn ROM;\012languagesystem latn MOL;\012languagesystem latn NLD;\012languagesystem latn CAT;\012";
name = Languagesystems;
}
);
features = (
{

glyphs = (
{
glyphname = A;
lastChange = "2015-02-07 11:35:54 +0000";
layers = (
{
anchors = (
{
name = ogonek;
position = "{634, 0}";
},
{
name = top;
position = "{330, 660}";
}
);
layerId = "4A17B37A-CBFD-40E5-9E02-2080A0E1F76C";
name = Regular;
paths = (
{
closed = 1;
nodes = (
"110 0 LINE",
"299 495 LINE",
"328 584 LINE",
"330 584 LINE",
"361 492 LINE",
"549 0 LINE",
"634 0 LINE",
"378 660 LINE",
"283 660 LINE",
"26 0 LINE"
);
},
{
closed = 1;
nodes = (
"505 183 LINE",
"505 258 LINE",
"152 258 LINE",
"152 183 LINE"
);
}
);
width = 660;
},
{
anchors = (
{
name = ogonek;
position = "{699, 0}";
},
{
name = top;
position = "{344, 660}";
}
);
layerId = "99EB5860-B45A-4B60-BB0B-F826C8F71D42";
name = Bold;
paths = (
{
closed = 1;
nodes = (
"222 0 LINE",
"315 379 LINE",
"340 491 LINE",
"345 491 LINE",
"371 379 LINE",
"461 0 LINE",
"699 0 LINE",
"484 660 LINE",
"204 660 LINE",
"-10 0 LINE"
);
},
{
closed = 1;
nodes = (
"534 126 LINE",
"534 271 LINE",
"157 271 LINE",
"157 126 LINE"
);
}
);
width = 689;
},
{
anchors = (
{
name = ogonek;
position = "{574, 0}";
},
{
name = top;
position = "{293, 660}";
}
);
layerId = "1C7CD022-87C7-4E11-B656-E47B18819458";
name = Light;
paths = (
{
closed = 1;
nodes = (
"29 0 LINE",
"276 597 LINE",
"293 642 LINE",
"293 642 LINE",
"310 596 LINE",
"557 0 LINE",
"574 0 LINE",
"302 660 LINE",
"284 660 LINE",
"12 0 LINE"
);
},
{
closed = 1;
nodes = (
"467 234 LINE",
"467 248 LINE",
"118 248 LINE",
"118 234 LINE"
);
}
);
width = 586;
}
);
leftKerningGroup = A;
rightKerningGroup = A;
unicode = 0041;
},
{
glyphname = Aring;
lastChange = "2015-02-07 11:35:54 +0000";
layers = (
{
anchors = (
{
name = ogonek;
position = "{704, 0}";
},
{
name = top;
position = "{346, 660}";
}
);
layerId = "99EB5860-B45A-4B60-BB0B-F826C8F71D42";
leftMetricsKey = "=A";
rightMetricsKey = "=A";
name = Bold;
paths = (
{
closed = 1;
nodes = (
"212 660 LINE",
"-10 0 LINE",
"229 0 LINE",
"317 374 LINE",
"342 487 LINE",
"347 487 LINE",
"373 374 LINE",
"459 0 LINE",
"704 0 LINE",
"481 660 LINE"
);
},
{
closed = 1;
nodes = (
"158 272 LINE",
"158 123 LINE",
"536 123 LINE",
"536 272 LINE"
);
},
{
closed = 1;
nodes = (
"241 867 OFFCURVE",
"181 812 OFFCURVE",
"181 730 CURVE SMOOTH",
"181 647 OFFCURVE",
"241 606 OFFCURVE",
"347 606 CURVE SMOOTH",
"453 606 OFFCURVE",
"513 647 OFFCURVE",
"513 730 CURVE SMOOTH",
"513 812 OFFCURVE",
"453 867 OFFCURVE",
"347 867 CURVE SMOOTH"
);
},
{
closed = 1;
nodes = (
"379 768 OFFCURVE",
"397 751 OFFCURVE",
"397 721 CURVE SMOOTH",
"397 691 OFFCURVE",
"379 674 OFFCURVE",
"347 674 CURVE SMOOTH",
"315 674 OFFCURVE",
"297 691 OFFCURVE",
"297 721 CURVE SMOOTH",
"297 751 OFFCURVE",
"315 768 OFFCURVE",
"347 768 CURVE SMOOTH"
);
}
);
width = 694;
},
{
anchors = (
{
name = ogonek;
position = "{634, 0}";
},
{
name = top;
position = "{330, 660}";
}
);
layerId = "4A17B37A-CBFD-40E5-9E02-2080A0E1F76C";
name = Regular;
paths = (
{
closed = 1;
nodes = (
"283 660 LINE",
"26 0 LINE",
"110 0 LINE",
"299 495 LINE",
"328 584 LINE",
"330 584 LINE",
"361 492 LINE",
"549 0 LINE",
"634 0 LINE",
"378 660 LINE"
);
},
{
closed = 1;
nodes = (
"152 258 LINE",
"152 183 LINE",
"505 183 LINE",
"505 258 LINE"
);
},
{
closed = 1;
nodes = (
"252 852 OFFCURVE",
"201 804 OFFCURVE",
"201 734 CURVE SMOOTH",
"201 663 OFFCURVE",
"252 615 OFFCURVE",
"327 615 CURVE SMOOTH",
"402 615 OFFCURVE",
"452 663 OFFCURVE",
"452 734 CURVE SMOOTH",
"452 804 OFFCURVE",
"402 852 OFFCURVE",
"327 852 CURVE SMOOTH"
);
},
{
closed = 1;
nodes = (
"368 803 OFFCURVE",
"398 774 OFFCURVE",
"398 734 CURVE SMOOTH",
"398 694 OFFCURVE",
"368 665 OFFCURVE",
"327 665 CURVE SMOOTH",
"286 665 OFFCURVE",
"256 694 OFFCURVE",
"256 734 CURVE SMOOTH",
"256 774 OFFCURVE",
"286 803 OFFCURVE",
"327 803 CURVE SMOOTH"
);
}
);
width = 660;
},
{
anchors = (
{
name = ogonek;
position = "{574, 0}";
},
{
name = top;
position = "{293, 660}";
}
);
layerId = "1C7CD022-87C7-4E11-B656-E47B18819458";
name = Light;
paths = (
{
closed = 1;
nodes = (
"284 660 LINE",
"12 0 LINE",
"29 0 LINE",
"276 597 LINE",
"293 642 LINE",
"293 642 LINE",
"310 596 LINE",
"557 0 LINE",
"574 0 LINE",
"302 660 LINE"
);
},
{
closed = 1;
nodes = (
"118 248 LINE",
"118 234 LINE",
"467 234 LINE",
"467 248 LINE"
);
},
{
closed = 1;
nodes = (
"250 786 OFFCURVE",
"221 758 OFFCURVE",
"221 716 CURVE SMOOTH",
"221 674 OFFCURVE",
"250 646 OFFCURVE",
"293 646 CURVE SMOOTH",
"336 646 OFFCURVE",
"365 674 OFFCURVE",
"365 716 CURVE SMOOTH",
"365 758 OFFCURVE",
"336 786 OFFCURVE",
"293 786 CURVE SMOOTH"
);
},
{
closed = 1;
nodes = (
"327 772 OFFCURVE",
"349 750 OFFCURVE",
"349 716 CURVE SMOOTH",
"349 682 OFFCURVE",
"327 660 OFFCURVE",
"293 660 CURVE SMOOTH",
"259 660 OFFCURVE",
"237 682 OFFCURVE",
"237 716 CURVE SMOOTH",
"237 750 OFFCURVE",
"259 772 OFFCURVE",
"293 772 CURVE SMOOTH"
);
}
);
width = 586;
}
);
leftKerningGroup = A;
leftMetricsKey = A;
rightKerningGroup = A;
rightMetricsKey = A;
unicode = 00C5;
},
{
glyphname = AE;
lastChange = "2015-02-07 11:35:54 +0000";
layers = (
{
layerId = "4A17B37A-CBFD-40E5-9E02-2080A0E1F76C";
name = Regular;
paths = (
{
closed = 1;
nodes = (
"392 660 LINE",
"6 0 LINE",
"92 0 LINE",
"474 660 LINE"
);
},
{
closed = 1;
nodes = (
"216 288 LINE",
"176 213 LINE",
"491 213 LINE",
"491 288 LINE"
);
},
{
closed = 1;
nodes = (
"493 75 LINE",
"493 0 LINE",
"902 0 LINE",
"902 75 LINE"
);
},
{
closed = 1;
nodes = (
"451 660 LINE",
"451 0 LINE",
"531 0 LINE",
"531 660 LINE"
);
},
{
closed = 1;
nodes = (
"493 372 LINE",
"493 297 LINE",
"802 297 LINE",
"802 372 LINE"
);
},
{
closed = 1;
nodes = (
"429 660 LINE",
"389 585 LINE",
"488 585 LINE",
"504 585 LINE",
"887 585 LINE",
"887 660 LINE"
);
}
);
width = 954;
},
{
layerId = "99EB5860-B45A-4B60-BB0B-F826C8F71D42";
leftMetricsKey = "=A";
name = Bold;
paths = (
{
closed = 1;
nodes = (
"204 660 LINE",
"-10 0 LINE",
"220 0 LINE",
"383 660 LINE"
);
},
{
closed = 1;
nodes = (
"153 321 LINE",
"103 185 LINE",
"501 185 LINE",
"501 321 LINE"
);
},
{
closed = 1;
nodes = (
"489 161 LINE",
"489 0 LINE",
"887 0 LINE",
"889 161 LINE"
);
},
{
closed = 1;
nodes = (
"396 660 LINE",
"396 0 LINE",
"610 0 LINE",
"610 660 LINE"
);
},
{
closed = 1;
nodes = (
"489 403 LINE",
"489 254 LINE",
"815 254 LINE",
"814 403 LINE"
);
},
{
closed = 1;
nodes = (
"268 660 LINE",
"228 507 LINE",
"477 507 LINE",
"526 499 LINE",
"877 499 LINE",
"876 660 LINE"
);
}
);
width = 905;
},
{
layerId = "1C7CD022-87C7-4E11-B656-E47B18819458";
name = Light;
paths = (
{
closed = 1;
nodes = (
"412 660 LINE",
"-8 0 LINE",
"15 0 LINE",
"429 660 LINE"
);
},
{
closed = 1;
nodes = (
"173 268 LINE",
"163 254 LINE",
"443 254 LINE",
"443 268 LINE"
);
},
{
closed = 1;
nodes = (
"447 14 LINE",
"447 0 LINE",
"855 0 LINE",
"855 14 LINE"
);
},
{
closed = 1;
nodes = (
"438 660 LINE",
"438 0 LINE",
"454 0 LINE",
"454 660 LINE"
);
},
{
closed = 1;
nodes = (
"447 342 LINE",
"447 328 LINE",
"762 328 LINE",
"762 342 LINE"
);
},
{
closed = 1;
nodes = (
"424 660 LINE",
"413 646 LINE",
"444 646 LINE",
"447 646 LINE",
"839 646 LINE",
"839 660 LINE"
);
}
);
width = 885;
}
);
rightKerningGroup = E;
rightMetricsKey = E;
unicode = 00C6;
},
{
glyphname = B;
lastChange = "2015-02-07 11:35:54 +0000";
layers = (
{
layerId = "4A17B37A-CBFD-40E5-9E02-2080A0E1F76C";
name = Regular;
paths = (
{
closed = 1;
nodes = (
"585 285 OFFCURVE",
"496 350 OFFCURVE",
"360 350 CURVE SMOOTH",
"148 350 LINE",
"148 295 LINE",
"361 295 LINE SMOOTH",
"455 295 OFFCURVE",
"501 255 OFFCURVE",
"501 185 CURVE SMOOTH",
"501 115 OFFCURVE",
"455 75 OFFCURVE",
"361 75 CURVE SMOOTH",
"148 75 LINE",
"148 0 LINE",
"342 0 LINE SMOOTH",
"498 0 OFFCURVE",
"585 73 OFFCURVE",
"585 185 CURVE SMOOTH"
);
},
{
closed = 1;
nodes = (
"108 660 LINE",
"108 0 LINE",
"188 0 LINE",
"188 660 LINE"
);
},
{
closed = 1;
nodes = (
"568 590 OFFCURVE",
"499 660 OFFCURVE",
"343 660 CURVE SMOOTH",
"148 660 LINE",
"148 585 LINE",
"344 585 LINE SMOOTH",
"438 585 OFFCURVE",
"484 550 OFFCURVE",
"484 478 CURVE SMOOTH",
"484 405 OFFCURVE",
"438 370 OFFCURVE",
"344 370 CURVE SMOOTH",
"148 370 LINE",
"148 315 LINE",
"343 315 LINE SMOOTH",
"479 315 OFFCURVE",
"568 377 OFFCURVE",
"568 478 CURVE SMOOTH"
);
}
);
width = 653;
},
{
layerId = "99EB5860-B45A-4B60-BB0B-F826C8F71D42";
name = Bold;
paths = (
{
closed = 1;
nodes = (
"692 280 OFFCURVE",
"615 335 OFFCURVE",
"455 335 CURVE SMOOTH",
"243 335 LINE",
"243 252 LINE",
"392 252 LINE SMOOTH",
"434 252 OFFCURVE",
"454 236 OFFCURVE",
"454 205 CURVE SMOOTH",
"454 172 OFFCURVE",
"434 156 OFFCURVE",
"392 156 CURVE SMOOTH",
"243 156 LINE",
"243 0 LINE",
"454 0 LINE SMOOTH",
"615 0 OFFCURVE",
"692 58 OFFCURVE",
"692 173 CURVE SMOOTH"
);
},
{
closed = 1;
nodes = (
"50 660 LINE",
"50 0 LINE",
"273 0 LINE",
"273 660 LINE"
);
},
{
closed = 1;
nodes = (
"675 601 OFFCURVE",
"595 658 OFFCURVE",
"428 659 CURVE SMOOTH",
"243 660 LINE",
"243 504 LINE",
"375 504 LINE SMOOTH",
"417 504 OFFCURVE",
"437 488 OFFCURVE",
"437 456 CURVE SMOOTH",
"437 424 OFFCURVE",
"417 408 OFFCURVE",
"375 408 CURVE SMOOTH",
"243 408 LINE",
"243 319 LINE",
"428 319 LINE SMOOTH",
"594 319 OFFCURVE",
"675 374 OFFCURVE",
"675 484 CURVE SMOOTH"
);
}
);
width = 704;
},
{
layerId = "1C7CD022-87C7-4E11-B656-E47B18819458";
name = Light;
paths = (
{
closed = 1;
nodes = (
"552 280 OFFCURVE",
"476 340 OFFCURVE",
"331 340 CURVE SMOOTH",
"108 340 LINE",
"108 326 LINE",
"331 326 LINE SMOOTH",
"466 326 OFFCURVE",
"536 274 OFFCURVE",
"536 170 CURVE SMOOTH",
"536 67 OFFCURVE",
"466 14 OFFCURVE",
"331 14 CURVE SMOOTH",
"108 14 LINE",
"108 0 LINE",
"331 0 LINE SMOOTH",
"476 0 OFFCURVE",
"552 58 OFFCURVE",
"552 169 CURVE SMOOTH"
);
},
{
closed = 1;
nodes = (
"99 660 LINE",
"99 0 LINE",
"115 0 LINE",
"115 660 LINE"
);
},
{
closed = 1;
nodes = (
"533 603 OFFCURVE",
"464 660 OFFCURVE",
"331 660 CURVE SMOOTH",
"108 660 LINE",
"108 646 LINE",
"331 646 LINE SMOOTH",
"453 646 OFFCURVE",
"517 593 OFFCURVE",
"517 492 CURVE SMOOTH",
"517 391 OFFCURVE",
"453 340 OFFCURVE",
"331 340 CURVE SMOOTH",
"108 340 LINE",
"108 326 LINE",
"331 326 LINE SMOOTH",
"464 326 OFFCURVE",
"533 384 OFFCURVE",
"533 493 CURVE SMOOTH"
);
}
);
width = 609;
}
);
leftKerningGroup = I;
unicode = 0042;
},
{
glyphname = C;
lastChange = "2015-02-07 11:35:54 +0000";
layers = (
{
anchors = (
{
name = bottomC;
position = "{373, 0}";
},
{
name = top;
position = "{372, 660}";
}
);
layerId = "4A17B37A-CBFD-40E5-9E02-2080A0E1F76C";
name = Regular;
paths = (
{
closed = 1;
nodes = (
"560 199 LINE",
"531 110 OFFCURVE",
"462 65 OFFCURVE",
"374 65 CURVE SMOOTH",
"237 65 OFFCURVE",
"152 164 OFFCURVE",
"152 330 CURVE SMOOTH",
"152 497 OFFCURVE",
"243 595 OFFCURVE",
"378 595 CURVE SMOOTH",
"466 595 OFFCURVE",
"520 555 OFFCURVE",
"549 479 CURVE",
"628 516 LINE",
"586 616 OFFCURVE",
"500 670 OFFCURVE",
"372 670 CURVE SMOOTH",
"188 670 OFFCURVE",
"68 539 OFFCURVE",
"68 330 CURVE SMOOTH",
"68 121 OFFCURVE",
"186 -10 OFFCURVE",
"374 -10 CURVE SMOOTH",
"498 -10 OFFCURVE",
"598 56 OFFCURVE",
"640 169 CURVE"
);
}
);
width = 686;
},
{
anchors = (
{
name = bottomC;
position = "{364, 0}";
},
{
name = top;
position = "{356, 660}";
}
);
layerId = "99EB5860-B45A-4B60-BB0B-F826C8F71D42";
name = Bold;
paths = (
{
closed = 1;
nodes = (
"464 255 LINE",
"456 192 OFFCURVE",
"433 165 OFFCURVE",
"369 165 CURVE SMOOTH",
"299 165 OFFCURVE",
"267 217 OFFCURVE",
"267 330 CURVE SMOOTH",
"267 444 OFFCURVE",
"302 495 OFFCURVE",
"371 495 CURVE SMOOTH",
"426 495 OFFCURVE",
"454 478 OFFCURVE",
"465 383 CURVE",
"665 470 LINE",
"637 611 OFFCURVE",
"510 670 OFFCURVE",
"365 670 CURVE SMOOTH",
"156 670 OFFCURVE",
"29 546 OFFCURVE",
"29 330 CURVE SMOOTH",
"29 114 OFFCURVE",
"156 -10 OFFCURVE",
"365 -10 CURVE SMOOTH",
"516 -10 OFFCURVE",
"633 47 OFFCURVE",
"670 202 CURVE"
);
}
);
width = 677;
},
{
anchors = (
{
name = bottomC;
position = "{336, 0}";
},
{
name = top;
position = "{339, 660}";
}
);
layerId = "1C7CD022-87C7-4E11-B656-E47B18819458";
name = Light;
paths = (
{
closed = 1;
nodes = (
"595 171 LINE",
"564 65 OFFCURVE",
"475 4 OFFCURVE",
"349 4 CURVE SMOOTH",
"184 4 OFFCURVE",
"72 130 OFFCURVE",
"72 330 CURVE SMOOTH",
"72 530 OFFCURVE",
"183 656 OFFCURVE",
"349 656 CURVE SMOOTH",
"478 656 OFFCURVE",
"557 601 OFFCURVE",
"590 489 CURVE",
"605 496 LINE",
"572 612 OFFCURVE",
"488 670 OFFCURVE",
"349 670 CURVE SMOOTH",
"173 670 OFFCURVE",
"56 539 OFFCURVE",
"56 330 CURVE SMOOTH",
"56 121 OFFCURVE",
"174 -10 OFFCURVE",
"349 -10 CURVE SMOOTH",
"482 -10 OFFCURVE",
"577 54 OFFCURVE",
"610 165 CURVE"
);
}
);
width = 649;
}
);
leftKerningGroup = O;
rightKerningGroup = C;
unicode = 0043;
},
{
glyphname = D;
lastChange = "2015-02-07 11:35:54 +0000";
layers = (
{
anchors = (
{
name = center;
position = "{366, 330}";
},
{
name = top;
position = "{325, 660}";
}
);
layerId = "4A17B37A-CBFD-40E5-9E02-2080A0E1F76C";
name = Regular;
paths = (
{
closed = 1;
nodes = (
"148 660 LINE",
"148 585 LINE",
"329 585 LINE SMOOTH",
"480 585 OFFCURVE",
"569 490 OFFCURVE",
"569 330 CURVE SMOOTH",
"569 170 OFFCURVE",
"480 75 OFFCURVE",
"329 75 CURVE SMOOTH",
"148 75 LINE",
"148 0 LINE",
"321 0 LINE SMOOTH",
"528 0 OFFCURVE",
"653 118 OFFCURVE",
"653 330 CURVE SMOOTH",
"653 542 OFFCURVE",
"528 660 OFFCURVE",
"321 660 CURVE SMOOTH"
);
},
{
closed = 1;
nodes = (
"108 660 LINE",
"108 0 LINE",
"188 0 LINE",
"188 660 LINE"
);
}
);
width = 721;
},
{
anchors = (
{
name = center;
position = "{15, 14}";
},
{
name = top;
position = "{331, 660}";
}
);
layerId = "99EB5860-B45A-4B60-BB0B-F826C8F71D42";
name = Bold;
paths = (
{
closed = 1;
nodes = (
"218 660 LINE",
"218 494 LINE",
"341 494 LINE SMOOTH",
"427 494 OFFCURVE",
"449 443 OFFCURVE",
"449 330 CURVE SMOOTH",
"449 217 OFFCURVE",
"427 166 OFFCURVE",
"341 166 CURVE SMOOTH",
"218 166 LINE",
"218 0 LINE",
"374 0 LINE SMOOTH",
"581 0 OFFCURVE",
"687 120 OFFCURVE",
"687 330 CURVE SMOOTH",
"687 540 OFFCURVE",
"581 660 OFFCURVE",
"374 660 CURVE SMOOTH"
);
},
{
closed = 1;
nodes = (
"50 660 LINE",
"50 0 LINE",
"283 0 LINE",
"283 660 LINE"
);
}
);
width = 716;
},
{
anchors = (
{
name = center;
position = "{355, 330}";
},
{
name = top;
position = "{309, 660}";
}
);
layerId = "1C7CD022-87C7-4E11-B656-E47B18819458";
name = Light;
paths = (
{
closed = 1;
nodes = (
"108 660 LINE",
"108 646 LINE",
"302 646 LINE SMOOTH",
"505 646 OFFCURVE",
"611 541 OFFCURVE",
"611 340 CURVE SMOOTH",
"611 126 OFFCURVE",
"505 14 OFFCURVE",
"302 14 CURVE SMOOTH",
"107 14 LINE",
"107 0 LINE",
"302 0 LINE SMOOTH",
"516 0 OFFCURVE",
"627 117 OFFCURVE",
"627 340 CURVE SMOOTH",
"627 550 OFFCURVE",
"516 660 OFFCURVE",
"302 660 CURVE SMOOTH"
);
},
{
closed = 1;
nodes = (
"99 660 LINE",
"99 0 LINE",
"115 0 LINE",
"115 660 LINE"
);
}
);
width = 684;
}
);
leftKerningGroup = I;
rightKerningGroup = O;
unicode = 0044;
},
{
color = 1;
glyphname = Dcroat;
lastChange = "2015-02-07 11:35:54 +0000";
layers = (
{
components = (
{
name = D;
transform = "{1, 0, 0, 1, 16, 0}";
}
);
layerId = "4A17B37A-CBFD-40E5-9E02-2080A0E1F76C";
name = Regular;
paths = (
{
closed = 1;
nodes = (
"26 363 LINE",
"26 303 LINE",
"401 303 LINE",
"401 363 LINE"
);
}
);
width = 737;
},
{
associatedMasterId = "99EB5860-B45A-4B60-BB0B-F826C8F71D42";
background = {
components = (
{
name = D;
transform = "{1, 0, 0, 1, 0, 0}";
}
);
paths = (
{
closed = 1;
nodes = (
"10 383 LINE",
"10 323 LINE",
"385 323 LINE",
"385 383 LINE"
);
}
);
};
components = (
{
name = D;
transform = "{1, 0, 0, 1, 30, 0}";
}
);
layerId = "C1DD4913-182C-4664-AAE7-7B3AAF95996E";
name = "Bold [201]";
paths = (
{
closed = 1;
nodes = (
"6 375 LINE",
"6 279 LINE",
"399 279 LINE",
"399 375 LINE"
);
}
);
width = 746;
},
{
components = (
{
name = D;
transform = "{1, 0, 0, 1, 28, 0}";
}
);
layerId = "99EB5860-B45A-4B60-BB0B-F826C8F71D42";
name = Bold;
paths = (
{
closed = 1;
nodes = (
"4 403 LINE",
"4 253 LINE",
"397 253 LINE",
"397 403 LINE"
);
}
);
width = 744;
},
{
components = (
{
disableAlignment = 1;
name = D;
transform = "{1, 0, 0, 1, 8, 0}";
}
);
layerId = "1C7CD022-87C7-4E11-B656-E47B18819458";
name = Light;
paths = (
{
closed = 1;
nodes = (
"5 341 LINE",
"5 327 LINE",
"330 327 LINE",
"330 341 LINE"
);
}
);
width = 691;
}
);
leftKerningGroup = I;
rightKerningGroup = O;
unicode = 0110;
},
{
glyphname = E;
lastChange = "2015-02-07 11:35:54 +0000";
layers = (
{
anchors = (
{
name = bottom;
position = "{339, 0}";
},
{
name = ogonek;
position = "{586, 0}";
},
{
name = top;
position = "{339, 660}";
}
);
layerId = "4A17B37A-CBFD-40E5-9E02-2080A0E1F76C";
name = Regular;
paths = (
{
closed = 1;
nodes = (
"108 660 LINE",
"108 0 LINE",
"188 0 LINE",
"188 660 LINE"
);
},
{
closed = 1;
nodes = (
"150 75 LINE",
"150 0 LINE",
"586 0 LINE",
"586 75 LINE"
);
},
{
closed = 1;
nodes = (
"150 372 LINE",
"150 297 LINE",
"486 297 LINE",
"486 372 LINE"
);
},
{
closed = 1;
nodes = (
"150 660 LINE",
"150 585 LINE",
"571 585 LINE",
"571 660 LINE"
);
}
);
width = 638;
},
{
anchors = (
{
name = bottom;
position = "{329, 0}";
},
{
name = ogonek;
position = "{611, 0}";
},
{
name = top;
position = "{313, 660}";
}
);
layerId = "99EB5860-B45A-4B60-BB0B-F826C8F71D42";
leftMetricsKey = "=I";
name = Bold;
paths = (
{
closed = 1;
nodes = (
"50 660 LINE",
"50 0 LINE",
"283 0 LINE",
"283 660 LINE"
);
},
{
closed = 1;
nodes = (
"162 171 LINE",
"162 0 LINE",
"610 0 LINE",
"610 171 LINE"
);
},
{
closed = 1;
nodes = (
"162 407 LINE",
"162 249 LINE",
"537 249 LINE",
"537 407 LINE"
);
},
{
closed = 1;
nodes = (
"162 660 LINE",
"162 489 LINE",
"598 489 LINE",
"598 660 LINE"
);
}
);
width = 626;
},
{
anchors = (
{
name = bottom;
position = "{317, 0}";
},
{
name = ogonek;
position = "{553, 0}";
},
{
name = top;
position = "{317, 660}";
}
);
layerId = "1C7CD022-87C7-4E11-B656-E47B18819458";
name = Light;
paths = (
{
closed = 1;
nodes = (
"99 660 LINE",
"99 0 LINE",
"115 0 LINE",
"115 660 LINE"
);
},
{
closed = 1;
nodes = (
"105 14 LINE",
"105 0 LINE",
"553 0 LINE",
"553 14 LINE"
);
},
{
closed = 1;
nodes = (
"105 344 LINE",
"105 330 LINE",
"453 330 LINE",
"453 344 LINE"
);
},
{
closed = 1;
nodes = (
"105 660 LINE",
"105 646 LINE",
"536 646 LINE",
"536 660 LINE"
);
}
);
width = 583;
}
);
leftKerningGroup = I;
rightKerningGroup = E;
unicode = 0045;
},
{
glyphname = F;
lastChange = "2015-02-07 11:35:54 +0000";
layers = (
{
layerId = "4A17B37A-CBFD-40E5-9E02-2080A0E1F76C";
name = Regular;
paths = (
{
closed = 1;
nodes = (
"108 660 LINE",
"108 0 LINE",
"188 0 LINE",
"188 660 LINE"
);
},
{
closed = 1;
nodes = (
"150 372 LINE",
"150 297 LINE",
"486 297 LINE",
"486 372 LINE"
);
},
{
closed = 1;
nodes = (
"150 660 LINE",
"150 585 LINE",
"570 585 LINE",
"570 660 LINE"
);
}
);
width = 610;
},
{
layerId = "99EB5860-B45A-4B60-BB0B-F826C8F71D42";
leftMetricsKey = "=I";
name = Bold;
paths = (
{
closed = 1;
nodes = (
"50 660 LINE",
"50 0 LINE",
"283 0 LINE",
"283 660 LINE"
);
},
{
closed = 1;
nodes = (
"162 397 LINE",
"162 226 LINE",
"537 226 LINE",
"536 397 LINE"
);
},
{
closed = 1;
nodes = (
"162 660 LINE",
"162 489 LINE",
"598 489 LINE",
"597 660 LINE"
);
}
);
width = 614;
},
{
layerId = "1C7CD022-87C7-4E11-B656-E47B18819458";
name = Light;
paths = (
{
closed = 1;
nodes = (
"99 660 LINE",
"99 0 LINE",
"115 0 LINE",
"115 660 LINE"
);
},
{
closed = 1;
nodes = (
"105 344 LINE",
"105 330 LINE",
"453 330 LINE",
"453 344 LINE"
);
},
{
closed = 1;
nodes = (
"105 660 LINE",
"105 646 LINE",
"535 646 LINE",
"535 660 LINE"
);
}
);
width = 554;
}
);
leftKerningGroup = I;
unicode = 0046;
},
{
color = 3;
glyphname = G;
lastChange = "2015-02-07 11:35:54 +0000";
layers = (
{
anchors = (
{
name = bottom;
position = "{405, 0}";
},
{
name = top;
position = "{373, 660}";
}
);
layerId = "4A17B37A-CBFD-40E5-9E02-2080A0E1F76C";
name = Regular;
paths = (
{
closed = 1;
nodes = (
"191 670 OFFCURVE",
"68 539 OFFCURVE",
"68 330 CURVE SMOOTH",
"68 121 OFFCURVE",
"186 -10 OFFCURVE",
"374 -10 CURVE SMOOTH",
"535 -10 OFFCURVE",
"618 85 OFFCURVE",
"618 224 CURVE",
"574 235 LINE",
"574 121 OFFCURVE",
"487 65 OFFCURVE",
"377 65 CURVE SMOOTH",
"230 65 OFFCURVE",
"152 164 OFFCURVE",
"152 330 CURVE SMOOTH",
"152 496 OFFCURVE",
"242 595 OFFCURVE",
"376 595 CURVE SMOOTH",
"468 595 OFFCURVE",
"538 555 OFFCURVE",
"567 479 CURVE",
"640 519 LINE",
"589 621 OFFCURVE",
"507 670 OFFCURVE",
"376 670 CURVE SMOOTH"
);
},
{
closed = 1;
nodes = (
"645 143 LINE",
"645 164 LINE",
"645 333 LINE",
"574 333 LINE",
"574 166 LINE",
"582 143 LINE",
"587 0 LINE",
"645 0 LINE"
);
},
{
closed = 1;
nodes = (
"362 258 LINE",
"645 258 LINE",
"645 333 LINE",
"362 333 LINE"
);
}
);
width = 724;
},
{
anchors = (
{
name = bottom;
position = "{379, 0}";
},
{
name = top;
position = "{364, 660}";
}
);
layerId = "99EB5860-B45A-4B60-BB0B-F826C8F71D42";
name = Bold;
paths = (
{
closed = 1;
nodes = (
"156 670 OFFCURVE",
"29 544 OFFCURVE",
"29 328 CURVE SMOOTH",
"29 103 OFFCURVE",
"165 -10 OFFCURVE",
"336 -10 CURVE SMOOTH",
"486 -10 OFFCURVE",
"549 79 OFFCURVE",
"549 228 CURVE",
"482 228 LINE",
"482 181 OFFCURVE",
"444 159 OFFCURVE",
"387 159 CURVE SMOOTH",
"306 159 OFFCURVE",
"267 205 OFFCURVE",
"267 330 CURVE SMOOTH",
"267 445 OFFCURVE",
"304 495 OFFCURVE",
"381 495 CURVE SMOOTH",
"425 495 OFFCURVE",
"457 470 OFFCURVE",
"466 411 CURVE",
"679 489 LINE",
"625 619 OFFCURVE",
"534 670 OFFCURVE",
"371 670 CURVE SMOOTH"
);
},
{
closed = 1;
nodes = (
"677 143 LINE",
"677 166 LINE",
"677 372 LINE",
"482 372 LINE",
"482 166 LINE",
"507 143 LINE",
"523 0 LINE",
"677 0 LINE"
);
},
{
closed = 1;
nodes = (
"371 229 LINE",
"677 229 LINE",
"677 372 LINE",
"371 372 LINE"
);
}
);
width = 722;
},
{
anchors = (
{
name = bottom;
position = "{351, 0}";
},
{
name = top;
position = "{343, 660}";
}
);
layerId = "1C7CD022-87C7-4E11-B656-E47B18819458";
name = Light;
paths = (
{
closed = 1;
nodes = (
"173 670 OFFCURVE",
"56 539 OFFCURVE",
"56 330 CURVE SMOOTH",
"56 121 OFFCURVE",
"170 -10 OFFCURVE",
"345 -10 CURVE SMOOTH",
"511 -10 OFFCURVE",
"602 85 OFFCURVE",
"602 228 CURVE",
"594 244 LINE",
"594 157 OFFCURVE",
"545 4 OFFCURVE",
"345 4 CURVE SMOOTH",
"180 4 OFFCURVE",
"72 130 OFFCURVE",
"72 330 CURVE SMOOTH",
"72 530 OFFCURVE",
"183 656 OFFCURVE",
"349 656 CURVE SMOOTH",
"479 656 OFFCURVE",
"558 601 OFFCURVE",
"591 489 CURVE",
"605 496 LINE",
"572 612 OFFCURVE",
"488 670 OFFCURVE",
"349 670 CURVE SMOOTH"
);
},
{
closed = 1;
nodes = (
"610 208 LINE",
"610 213 LINE",
"610 304 LINE",
"594 304 LINE",
"594 213 LINE",
"594 208 LINE",
"594 0 LINE",
"610 0 LINE"
);
},
{
closed = 1;
nodes = (
"353 297 LINE",
"610 297 LINE",
"610 311 LINE",
"353 311 LINE"
);
}
);
width = 676;
},
{
anchors = (
{
name = bottom;
position = "{395, 0}";
},
{
name = top;
position = "{370, 660}";
}
);
associatedMasterId = "4A17B37A-CBFD-40E5-9E02-2080A0E1F76C";
background = {
paths = (
{
closed = 1;
nodes = (
"178 670 OFFCURVE",
"53 541 OFFCURVE",
"53 329 CURVE SMOOTH",
"53 114 OFFCURVE",
"178.02 -10 OFFCURVE",
"359 -10 CURVE SMOOTH",
"516 -10 OFFCURVE",
"592 83 OFFCURVE",
"592 226 CURVE",
"539 232 LINE",
"539 144 OFFCURVE",
"470 101 OFFCURVE",
"381 101 CURVE SMOOTH",
"259 101 OFFCURVE",
"196 180 OFFCURVE",
"196 330 CURVE SMOOTH",
"196 477 OFFCURVE",
"265 557 OFFCURVE",
"378 557 CURVE SMOOTH",
"451 557 OFFCURVE",
"507 523 OFFCURVE",
"528 453 CURVE",
"655 508 LINE",
"603 620 OFFCURVE",
"517 670 OFFCURVE",
"374 670 CURVE SMOOTH"
);
},
{
closed = 1;
nodes = (
"657 143 LINE",
"657 165 LINE",
"657 348 LINE",
"539 348 LINE",
"539.04 166 LINE",
"553 143 LINE",
"563 0 LINE",
"657 0 LINE"
);
},
{
closed = 1;
nodes = (
"365 247 LINE",
"657 247 LINE",
"657 348 LINE",
"365 348 LINE"
);
}
);
};
layerId = "B511938B-E5A4-40C3-ACD2-DC5D9FF176EF";
leftMetricsKey = "=O";
name = "Regular {137, 5}";
paths = (
{
closed = 1;
nodes = (
"179 670 OFFCURVE",
"54 541 OFFCURVE",
"54 329 CURVE SMOOTH",
"54 114 OFFCURVE",
"179 -10 OFFCURVE",
"360 -10 CURVE SMOOTH",
"517 -10 OFFCURVE",
"593 83 OFFCURVE",
"593 226 CURVE",
"540 232 LINE",
"540 144 OFFCURVE",
"471 101 OFFCURVE",
"382 101 CURVE SMOOTH",
"260 101 OFFCURVE",
"197 180 OFFCURVE",
"197 330 CURVE SMOOTH",
"197 477 OFFCURVE",
"266 557 OFFCURVE",
"379 557 CURVE SMOOTH",
"452 557 OFFCURVE",
"508 523 OFFCURVE",
"529 453 CURVE",
"656 508 LINE",
"604 620 OFFCURVE",
"518 670 OFFCURVE",
"375 670 CURVE SMOOTH"
);
},
{
closed = 1;
nodes = (
"658.5 143 LINE",
"658.5 165 LINE",
"659 349 LINE",
"540 349 LINE",
"540 166 LINE",
"552 143 LINE",
"558 0 LINE",
"658.5 0 LINE"
);
},
{
closed = 1;
nodes = (
"347 247 LINE",
"659 247 LINE",
"659 349 LINE",
"347 349 LINE"
);
}
);
width = 723;
}
);
leftKerningGroup = O;
leftMetricsKey = O;
rightKerningGroup = G;
unicode = 0047;
},
{
glyphname = H;
lastChange = "2015-02-07 11:35:54 +0000";
layers = (
{
layerId = "4A17B37A-CBFD-40E5-9E02-2080A0E1F76C";
name = Regular;
paths = (
{
closed = 1;
nodes = (
"546 660 LINE",
"546 0 LINE",
"626 0 LINE",
"626 660 LINE"
);
},
{
closed = 1;
nodes = (
"108 660 LINE",
"108 0 LINE",
"188 0 LINE",
"188 660 LINE"
);
},
{
closed = 1;
nodes = (
"150 372 LINE",
"150 297 LINE",
"583 297 LINE",
"583 372 LINE"
);
}
);
width = 734;
},
{
layerId = "99EB5860-B45A-4B60-BB0B-F826C8F71D42";
name = Bold;
paths = (
{
closed = 1;
nodes = (
"464 660 LINE",
"464 0 LINE",
"697 0 LINE",
"697 660 LINE"
);
},
{
closed = 1;
nodes = (
"50 660 LINE",
"50 0 LINE",
"283 0 LINE",
"283 660 LINE"
);
},
{
closed = 1;
nodes = (
"162 417 LINE",
"162 246 LINE",
"593 246 LINE",
"593 417 LINE"
);
}
);
width = 747;
},
{
layerId = "1C7CD022-87C7-4E11-B656-E47B18819458";
name = Light;
paths = (
{
closed = 1;
nodes = (
"581 660 LINE",
"581 0 LINE",
"597 0 LINE",
"597 660 LINE"
);
},
{
closed = 1;
nodes = (
"99 660 LINE",
"99 0 LINE",
"115 0 LINE",
"115 660 LINE"
);
},
{
closed = 1;
nodes = (
"107 344 LINE",
"107 330 LINE",
"590 330 LINE",
"590 344 LINE"
);
}
);
width = 696;
}
);
leftKerningGroup = I;
rightKerningGroup = I;
unicode = 0048;
},
{
glyphname = I;
lastChange = "2015-02-07 11:35:54 +0000";
layers = (
{
anchors = (
{
name = ogonek;
position = "{188, 0}";
},
{
name = top;
position = "{148, 660}";
}
);
layerId = "4A17B37A-CBFD-40E5-9E02-2080A0E1F76C";
name = Regular;
paths = (
{
closed = 1;
nodes = (
"108 660 LINE",
"108 0 LINE",
"188 0 LINE",
"188 660 LINE"
);
}
);
width = 296;
},
{
anchors = (
{
name = ogonek;
position = "{283, 0}";
},
{
name = top;
position = "{166, 660}";
}
);
layerId = "99EB5860-B45A-4B60-BB0B-F826C8F71D42";
name = Bold;
paths = (
{
closed = 1;
nodes = (
"50 660 LINE",
"50 0 LINE",
"283 0 LINE",
"283 660 LINE"
);
}
);
width = 333;
},
{
anchors = (
{
name = ogonek;
position = "{115, 0}";
},
{
name = top;
position = "{107, 660}";
}
);
layerId = "1C7CD022-87C7-4E11-B656-E47B18819458";
name = Light;
paths = (
{
closed = 1;
nodes = (
"99 660 LINE",
"99 0 LINE",
"115 0 LINE",
"115 660 LINE"
);
}
);
width = 214;
}
);
leftKerningGroup = I;
rightKerningGroup = I;
unicode = 0049;
},
{
glyphname = Idieresis;
lastChange = "2015-02-07 11:35:54 +0000";
layers = (
{
components = (
{
name = I;
transform = "{1, 0, 0, 1, 0, 0}";
}
);
layerId = "4A17B37A-CBFD-40E5-9E02-2080A0E1F76C";
name = Regular;
paths = (
{
closed = 1;
nodes = (
"28 866 OFFCURVE",
"5 843 OFFCURVE",
"5 809 CURVE SMOOTH",
"5 775 OFFCURVE",
"28 752 OFFCURVE",
"62 752 CURVE SMOOTH",
"96 752 OFFCURVE",
"119 775 OFFCURVE",
"119 809 CURVE SMOOTH",
"119 843 OFFCURVE",
"96 866 OFFCURVE",
"62 866 CURVE SMOOTH"
);
},
{
closed = 1;
nodes = (
"200 866 OFFCURVE",
"177 843 OFFCURVE",
"177 809 CURVE SMOOTH",
"177 775 OFFCURVE",
"200 752 OFFCURVE",
"234 752 CURVE SMOOTH",
"268 752 OFFCURVE",
"291 775 OFFCURVE",
"291 809 CURVE SMOOTH",
"291 843 OFFCURVE",
"268 866 OFFCURVE",
"234 866 CURVE SMOOTH"
);
}
);
width = 296;
},
{
components = (
{
name = I;
transform = "{1, 0, 0, 1, 0, 0}";
}
);
layerId = "99EB5860-B45A-4B60-BB0B-F826C8F71D42";
name = Bold;
paths = (
{
closed = 1;
nodes = (
"-10 880 OFFCURVE",
"-46 847 OFFCURVE",
"-46 789 CURVE SMOOTH",
"-46 731 OFFCURVE",
"-10 698 OFFCURVE",
"52 698 CURVE SMOOTH",
"116 698 OFFCURVE",
"154 731 OFFCURVE",
"154 789 CURVE SMOOTH",
"154 847 OFFCURVE",
"116 880 OFFCURVE",
"52 880 CURVE SMOOTH"
);
},
{
closed = 1;
nodes = (
"215 880 OFFCURVE",
"179 847 OFFCURVE",
"179 789 CURVE SMOOTH",
"179 731 OFFCURVE",
"215 698 OFFCURVE",
"277 698 CURVE SMOOTH",
"341 698 OFFCURVE",
"379 731 OFFCURVE",
"379 789 CURVE SMOOTH",
"379 847 OFFCURVE",
"341 880 OFFCURVE",
"277 880 CURVE SMOOTH"
);
}
);
width = 333;
},
{
components = (
{
disableAlignment = 1;
name = I;
transform = "{1, 0, 0, 1, 0, 0}";
}
);
layerId = "1C7CD022-87C7-4E11-B656-E47B18819458";
name = Light;
paths = (
{
closed = 1;
nodes = (
"34 812 OFFCURVE",
"23 801 OFFCURVE",
"23 787 CURVE SMOOTH",
"23 773 OFFCURVE",
"34 762 OFFCURVE",
"48 762 CURVE SMOOTH",
"62 762 OFFCURVE",
"73 773 OFFCURVE",
"73 787 CURVE SMOOTH",
"73 801 OFFCURVE",
"62 812 OFFCURVE",
"48 812 CURVE SMOOTH"
);
},
{
closed = 1;
nodes = (
"152 812 OFFCURVE",
"141 801 OFFCURVE",
"141 787 CURVE SMOOTH",
"141 773 OFFCURVE",
"152 762 OFFCURVE",
"166 762 CURVE SMOOTH",
"180 762 OFFCURVE",
"191 773 OFFCURVE",
"191 787 CURVE SMOOTH",
"191 801 OFFCURVE",
"180 812 OFFCURVE",
"166 812 CURVE SMOOTH"
);
}
);
width = 214;
}
);
leftKerningGroup = I;
rightKerningGroup = I;
unicode = 00CF;
},
{
glyphname = J;
lastChange = "2015-02-07 11:35:54 +0000";
layers = (
{
layerId = "4A17B37A-CBFD-40E5-9E02-2080A0E1F76C";
name = Regular;
paths = (
{
closed = 1;
nodes = (
"385 660 LINE",
"385 246 LINE SMOOTH",
"385 128 OFFCURVE",
"351 65 OFFCURVE",
"238 65 CURVE SMOOTH",
"138 65 OFFCURVE",
"106 120 OFFCURVE",
"121 233 CURVE",
"47 218 LINE",
"21 79 OFFCURVE",
"93 -10 OFFCURVE",
"241 -10 CURVE SMOOTH",
"381 -10 OFFCURVE",
"465 78 OFFCURVE",
"465 226 CURVE SMOOTH",
"465 660 LINE"
);
}
);
width = 566;
},
{
layerId = "99EB5860-B45A-4B60-BB0B-F826C8F71D42";
name = Bold;
paths = (
{
closed = 1;
nodes = (
"389 660 LINE",
"389 289 LINE SMOOTH",
"389 201 OFFCURVE",
"368 165 OFFCURVE",
"323 165 CURVE SMOOTH",
"268 165 OFFCURVE",
"245 204 OFFCURVE",
"262 329 CURVE",
"29 290 LINE",
"-2 118 OFFCURVE",
"78 -10 OFFCURVE",
"308 -10 CURVE SMOOTH",
"509 -10 OFFCURVE",
"622 93 OFFCURVE",
"622 272 CURVE SMOOTH",
"622 660 LINE"
);
}
);
width = 657;
},
{
layerId = "1C7CD022-87C7-4E11-B656-E47B18819458";
name = Light;
paths = (
{
closed = 1;
nodes = (
"390 660 LINE",
"390 209 LINE SMOOTH",
"390 84 OFFCURVE",
"330 4 OFFCURVE",
"212 4 CURVE SMOOTH",
"92 4 OFFCURVE",
"30 76 OFFCURVE",
"48 208 CURVE",
"32 200 LINE",
"14 74 OFFCURVE",
"80 -10 OFFCURVE",
"212 -10 CURVE SMOOTH",
"340 -10 OFFCURVE",
"406 75 OFFCURVE",
"406 209 CURVE SMOOTH",
"406 660 LINE"
);
}
);
width = 498;
}
);
rightKerningGroup = I;
unicode = 004A;
},
{
glyphname = K;
lastChange = "2015-02-07 11:35:54 +0000";
layers = (
{
anchors = (
{
name = bottom;
position = "{373, 0}";
},
{
name = top;
position = "{353, 660}";
}
);
layerId = "4A17B37A-CBFD-40E5-9E02-2080A0E1F76C";
name = Regular;
paths = (
{
closed = 1;
nodes = (
"520 660 LINE",
"148 279 LINE",
"148 171 LINE",
"325 352 LINE",
"337 365 LINE",
"625 660 LINE"
);
},
{
closed = 1;
nodes = (
"108 660 LINE",
"108 0 LINE",
"188 0 LINE",
"188 660 LINE"
);
},
{
closed = 1;
nodes = (
"279 371 LINE",
"532 0 LINE",
"628 0 LINE",
"345 416 LINE"
);
}
);
width = 656;
},
{
anchors = (
{
name = bottom;
position = "{356, 0}";
},
{
name = top;
position = "{359, 660}";
}
);
layerId = "99EB5860-B45A-4B60-BB0B-F826C8F71D42";
name = Bold;
paths = (
{
closed = 1;
nodes = (
"455 660 LINE",
"170 253 LINE",
"224 92 LINE",
"369 290 LINE",
"379 239 LINE",
"703 660 LINE"
);
},
{
closed = 1;
nodes = (
"50 660 LINE",
"50 0 LINE",
"283 0 LINE",
"283 660 LINE"
);
},
{
closed = 1;
nodes = (
"296 330 LINE",
"460 0 LINE",
"721 0 LINE",
"467 459 LINE"
);
}
);
width = 717;
},
{
anchors = (
{
name = bottom;
position = "{319, 0}";
},
{
name = top;
position = "{319, 660}";
}
);
layerId = "1C7CD022-87C7-4E11-B656-E47B18819458";
name = Light;
paths = (
{
closed = 1;
nodes = (
"511 660 LINE",
"106 248 LINE",
"106 225 LINE",
"268 389 LINE",
"270 391 LINE",
"534 660 LINE"
);
},
{
closed = 1;
nodes = (
"99 660 LINE",
"99 0 LINE",
"115 0 LINE",
"115 660 LINE"
);
},
{
closed = 1;
nodes = (
"259 390 LINE",
"523 0 LINE",
"544 0 LINE",
"270 404 LINE"
);
}
);
width = 557;
}
);
leftKerningGroup = I;
rightKerningGroup = K;
unicode = 004B;
},
{
glyphname = L;
lastChange = "2015-02-07 11:35:54 +0000";
layers = (
{
anchors = (
{
name = bottom;
position = "{362, 0}";
},
{
name = top;
position = "{148, 660}";
},
{
name = topright;
position = "{300, 700}";
}
);
layerId = "4A17B37A-CBFD-40E5-9E02-2080A0E1F76C";
name = Regular;
paths = (
{
closed = 1;
nodes = (
"108 660 LINE",
"108 0 LINE",
"188 0 LINE",
"188 660 LINE"
);
},
{
closed = 1;
nodes = (
"150 75 LINE",
"150 0 LINE",
"566 0 LINE",
"566 75 LINE"
);
}
);
width = 598;
},
{
anchors = (
{
name = bottom;
position = "{318, 0}";
},
{
name = top;
position = "{166, 660}";
},
{
name = topright;
position = "{388, 701}";
}
);
layerId = "99EB5860-B45A-4B60-BB0B-F826C8F71D42";
name = Bold;
paths = (
{
closed = 1;
nodes = (
"50 660 LINE",
"50 0 LINE",
"283 0 LINE",
"283 660 LINE"
);
},
{
closed = 1;
nodes = (
"162 171 LINE",
"162 0 LINE",
"581 0 LINE",
"582 171 LINE"
);
}
);
width = 605;
},
{
anchors = (
{
name = bottom;
position = "{331, 0}";
},
{
name = top;
position = "{107, 660}";
},
{
name = topright;
position = "{243, 700}";
}
);
layerId = "1C7CD022-87C7-4E11-B656-E47B18819458";
name = Light;
paths = (
{
closed = 1;
nodes = (
"99 660 LINE",
"99 0 LINE",
"115 0 LINE",
"115 660 LINE"
);
},
{
closed = 1;
nodes = (
"105 14 LINE",
"105 0 LINE",
"531 0 LINE",
"531 14 LINE"
);
}
);
width = 543;
}
);
leftKerningGroup = I;
rightKerningGroup = L;
unicode = 004C;
},
{
glyphname = Lslash;
lastChange = "2015-02-07 11:35:54 +0000";
layers = (
{
components = (
{
name = L;
transform = "{1, 0, 0, 1, 30, 0}";
}
);
layerId = "4A17B37A-CBFD-40E5-9E02-2080A0E1F76C";
name = Regular;
paths = (
{
closed = 1;
nodes = (
"33 279 LINE",
"33 196 LINE",
"395 398 LINE",
"395 481 LINE"
);
}
);
width = 628;
},
{
components = (
{
name = L;
transform = "{1, 0, 0, 1, 50, 0}";
}
);
layerId = "99EB5860-B45A-4B60-BB0B-F826C8F71D42";
name = Bold;
paths = (
{
closed = 1;
nodes = (
"-14 299 LINE",
"-14 146 LINE",
"499 372 LINE",
"499 525 LINE"
);
}
);
width = 655;
},
{
components = (
{
disableAlignment = 1;
name = L;
transform = "{1, 0, 0, 1, 11, 0}";
}
);
layerId = "1C7CD022-87C7-4E11-B656-E47B18819458";
name = Light;
paths = (
{
closed = 1;
nodes = (
"9 232 LINE",
"9 212 LINE",
"334 419 LINE",
"334 439 LINE"
);
}
);
width = 554;
}
);
leftKerningGroup = I;
rightKerningGroup = L;
unicode = 0141;
},
{
glyphname = M;
lastChange = "2015-02-07 11:35:54 +0000";
layers = (
{
layerId = "4A17B37A-CBFD-40E5-9E02-2080A0E1F76C";
name = Regular;
paths = (
{
closed = 1;
nodes = (
"623 660 LINE",
"479 258 LINE",
"428 94 LINE",
"426 94 LINE",
"377 259 LINE",
"231 660 LINE",
"108 660 LINE",
"108 0 LINE",
"184 0 LINE",
"184 415 LINE",
"175 589 LINE",
"176 589 LINE",
"231 435 LINE",
"393 0 LINE",
"461 0 LINE",
"622 435 LINE",
"678 589 LINE",
"679 589 LINE",
"670 415 LINE",
"670 0 LINE",
"746 0 LINE",
"746 660 LINE"
);
}
);
width = 854;
},
{
layerId = "99EB5860-B45A-4B60-BB0B-F826C8F71D42";
leftMetricsKey = "=I";
rightMetricsKey = "=I";
name = Bold;
paths = (
{
closed = 1;
nodes = (
"588 660 LINE",
"512 367 LINE",
"483 244 LINE",
"481 244 LINE",
"452 367 LINE",
"376 660 LINE",
"50 660 LINE",
"50 0 LINE",
"254 0 LINE",
"254 229 LINE",
"251 451 LINE",
"255 451 LINE",
"331 176 LINE",
"381 0 LINE",
"567 0 LINE",
"618 175 LINE",
"695 451 LINE",
"698 451 LINE",
"695 229 LINE",
"695 0 LINE",
"898 0 LINE",
"898 660 LINE"
);
}
);
width = 948;
},
{
layerId = "1C7CD022-87C7-4E11-B656-E47B18819458";
name = Light;
paths = (
{
closed = 1;
nodes = (
"666 660 LINE",
"405 47 LINE",
"393 19 LINE",
"393 19 LINE",
"381 48 LINE",
"120 660 LINE",
"99 660 LINE",
"99 0 LINE",
"115 0 LINE",
"115 580 LINE",
"115 637 LINE",
"115 637 LINE",
"128 600 LINE",
"383 0 LINE",
"403 0 LINE",
"658 600 LINE",
"671 637 LINE",
"671 637 LINE",
"671 580 LINE",
"671 0 LINE",
"687 0 LINE",
"687 660 LINE"
);
}
);
width = 786;
}
);
leftKerningGroup = I;
rightKerningGroup = I;
unicode = 004D;
},
{
glyphname = N;
lastChange = "2015-02-07 11:35:54 +0000";
layers = (
{
anchors = (
{
name = bottom;
position = "{397, 0}";
},
{
name = top;
position = "{371, 660}";
}
);
layerId = "4A17B37A-CBFD-40E5-9E02-2080A0E1F76C";
name = Regular;
paths = (
{
closed = 1;
nodes = (
"550 660 LINE",
"550 194 LINE",
"554 88 LINE",
"553 88 LINE",
"482 220 LINE",
"207 660 LINE",
"108 660 LINE",
"108 0 LINE",
"184 0 LINE",
"184 466 LINE",
"180 572 LINE",
"181 572 LINE",
"251 442 LINE",
"527 0 LINE",
"626 0 LINE",
"626 660 LINE"
);
}
);
width = 734;
},
{
anchors = (
{
name = bottom;
position = "{374, 0}";
},
{
name = top;
position = "{373, 660}";
}
);
layerId = "99EB5860-B45A-4B60-BB0B-F826C8F71D42";
name = Bold;
paths = (
{
closed = 1;
nodes = (
"494 660 LINE",
"494 415 LINE",
"499 279 LINE",
"496 279 LINE",
"458 359 LINE",
"302 660 LINE",
"50 660 LINE",
"50 0 LINE",
"252 0 LINE",
"252 245 LINE",
"247 381 LINE",
"250 381 LINE",
"288 300 LINE",
"444 0 LINE",
"696 0 LINE",
"696 660 LINE"
);
}
);
width = 746;
},
{
anchors = (
{
name = bottom;
position = "{347, 0}";
},
{
name = top;
position = "{353, 660}";
}
);
layerId = "1C7CD022-87C7-4E11-B656-E47B18819458";
name = Light;
paths = (
{
closed = 1;
nodes = (
"579 660 LINE",
"579 73 LINE",
"580 16 LINE",
"580 16 LINE",
"554 55 LINE",
"121 660 LINE",
"99 660 LINE",
"99 0 LINE",
"115 0 LINE",
"115 587 LINE",
"114 644 LINE",
"114 644 LINE",
"140 605 LINE",
"573 0 LINE",
"595 0 LINE",
"595 660 LINE"
);
}
);
width = 694;
}
);
leftKerningGroup = I;
rightKerningGroup = I;
unicode = 004E;
},
{
glyphname = O;
lastChange = "2015-02-07 11:35:54 +0000";
layers = (
{
anchors = (
{
name = top;
position = "{374, 660}";
}
);
layerId = "4A17B37A-CBFD-40E5-9E02-2080A0E1F76C";
name = Regular;
paths = (
{
closed = 1;
nodes = (
"186 670 OFFCURVE",
"68 539 OFFCURVE",
"68 330 CURVE SMOOTH",
"68 121 OFFCURVE",
"186 -10 OFFCURVE",
"374 -10 CURVE SMOOTH",
"562 -10 OFFCURVE",
"680 121 OFFCURVE",
"680 330 CURVE SMOOTH",
"680 539 OFFCURVE",
"562 670 OFFCURVE",
"374 670 CURVE SMOOTH"
);
},
{
closed = 1;
nodes = (
"511 595 OFFCURVE",
"596 496 OFFCURVE",
"596 330 CURVE SMOOTH",
"596 164 OFFCURVE",
"511 65 OFFCURVE",
"374 65 CURVE SMOOTH",
"237 65 OFFCURVE",
"152 164 OFFCURVE",
"152 330 CURVE SMOOTH",
"152 496 OFFCURVE",
"237 595 OFFCURVE",
"374 595 CURVE SMOOTH"
);
}
);
width = 748;
},
{
anchors = (
{
name = top;
position = "{365, 660}";
}
);
layerId = "99EB5860-B45A-4B60-BB0B-F826C8F71D42";
name = Bold;
paths = (
{
closed = 1;
nodes = (
"156 670 OFFCURVE",
"29 546 OFFCURVE",
"29 330 CURVE SMOOTH",
"29 114 OFFCURVE",
"156 -10 OFFCURVE",
"365 -10 CURVE SMOOTH",
"575 -10 OFFCURVE",
"700 114 OFFCURVE",
"700 330 CURVE SMOOTH",
"700 546 OFFCURVE",
"575 670 OFFCURVE",
"365 670 CURVE SMOOTH"
);
},
{
closed = 1;
nodes = (
"433 495 OFFCURVE",
"462 445 OFFCURVE",
"462 330 CURVE SMOOTH",
"462 215 OFFCURVE",
"433 165 OFFCURVE",
"365 165 CURVE SMOOTH",
"297 165 OFFCURVE",
"267 215 OFFCURVE",
"267 330 CURVE SMOOTH",
"267 445 OFFCURVE",
"297 495 OFFCURVE",
"365 495 CURVE SMOOTH"
);
}
);
width = 729;
},
{
anchors = (
{
name = top;
position = "{357, 660}";
}
);
layerId = "1C7CD022-87C7-4E11-B656-E47B18819458";
name = Light;
paths = (
{
closed = 1;
nodes = (
"172 670 OFFCURVE",
"56 539 OFFCURVE",
"56 330 CURVE SMOOTH",
"56 121 OFFCURVE",
"172 -10 OFFCURVE",
"357 -10 CURVE SMOOTH",
"542 -10 OFFCURVE",
"658 121 OFFCURVE",
"658 330 CURVE SMOOTH",
"658 539 OFFCURVE",
"542 670 OFFCURVE",
"357 670 CURVE SMOOTH"
);
},
{
closed = 1;
nodes = (
"532 656 OFFCURVE",
"642 530 OFFCURVE",
"642 330 CURVE SMOOTH",
"642 130 OFFCURVE",
"532 4 OFFCURVE",
"357 4 CURVE SMOOTH",
"182 4 OFFCURVE",
"72 130 OFFCURVE",
"72 330 CURVE SMOOTH",
"72 530 OFFCURVE",
"182 656 OFFCURVE",
"357 656 CURVE SMOOTH"
);
}
);
width = 714;
}
);
leftKerningGroup = O;
rightKerningGroup = O;
unicode = 004F;
},
{
glyphname = Oslash;
lastChange = "2015-02-07 11:35:54 +0000";
layers = (
{
components = (
{
disableAlignment = 1;
name = O;
transform = "{1, 0, 0, 1, 0, 0}";
}
);
layerId = "1C7CD022-87C7-4E11-B656-E47B18819458";
name = Light;
paths = (
{
closed = 1;
nodes = (
"608 690 LINE",
"542 599 LINE",
"555 590 LINE",
"628 690 LINE"
);
},
{
closed = 1;
nodes = (
"160 71 LINE",
"170 59 LINE",
"555 590 LINE",
"542 599 LINE"
);
},
{
closed = 1;
nodes = (
"106 -30 LINE",
"170 59 LINE",
"160 71 LINE",
"86 -30 LINE"
);
}
);
width = 714;
},
{
components = (
{
name = O;
transform = "{1, 0, 0, 1, 0, 0}";
}
);
layerId = "4A17B37A-CBFD-40E5-9E02-2080A0E1F76C";
name = Regular;
paths = (
{
closed = 1;
nodes = (
"590 683 LINE",
"518 580 LINE",
"564 544 LINE",
"661 683 LINE"
);
},
{
closed = 1;
nodes = (
"183 100 LINE",
"229 63 LINE",
"564 544 LINE",
"518 580 LINE"
);
},
{
closed = 1;
nodes = (
"159 -37 LINE",
"229 63 LINE",
"183 100 LINE",
"88 -37 LINE"
);
}
);
width = 748;
},
{
components = (
{
name = O;
transform = "{1, 0, 0, 1, 0, 0}";
}
);
layerId = "99EB5860-B45A-4B60-BB0B-F826C8F71D42";
name = Bold;
paths = (
{
closed = 1;
nodes = (
"584 680 LINE",
"483 541 LINE",
"532 482 LINE",
"679 680 LINE"
);
},
{
closed = 1;
nodes = (
"203 167 LINE",
"261 112 LINE",
"529 488 LINE",
"472 545 LINE"
);
},
{
closed = 1;
nodes = (
"144 -21 LINE",
"245 118 LINE",
"193 176 LINE",
"48 -21 LINE"
);
}
);
width = 729;
}
);
leftKerningGroup = O;
rightKerningGroup = O;
unicode = 00D8;
},
{
glyphname = OE;
lastChange = "2015-02-07 11:35:54 +0000";
layers = (
{
layerId = "4A17B37A-CBFD-40E5-9E02-2080A0E1F76C";
name = Regular;
paths = (
{
closed = 1;
nodes = (
"182 670 OFFCURVE",
"68 539 OFFCURVE",
"68 330 CURVE SMOOTH",
"68 121 OFFCURVE",
"184 -10 OFFCURVE",
"372 -10 CURVE SMOOTH",
"536 -10 OFFCURVE",
"650 121 OFFCURVE",
"650 330 CURVE SMOOTH",
"650 539 OFFCURVE",
"540 670 OFFCURVE",
"376 670 CURVE SMOOTH"
);
},
{
closed = 1;
nodes = (
"501 595 OFFCURVE",
"586 496 OFFCURVE",
"586 330 CURVE SMOOTH",
"586 164 OFFCURVE",
"501 65 OFFCURVE",
"376 65 CURVE SMOOTH",
"233 65 OFFCURVE",
"152 164 OFFCURVE",
"152 330 CURVE SMOOTH",
"152 496 OFFCURVE",
"233 595 OFFCURVE",
"376 595 CURVE SMOOTH"
);
},
{
closed = 1;
nodes = (
"628 75 LINE",
"628 0 LINE",
"1028 0 LINE",
"1028 75 LINE"
);
},
{
closed = 1;
nodes = (
"586 660 LINE",
"586 0 LINE",
"659 0 LINE",
"659 660 LINE"
);
},
{
closed = 1;
nodes = (
"628 372 LINE",
"628 297 LINE",
"928 297 LINE",
"928 372 LINE"
);
},
{
closed = 1;
nodes = (
"628 660 LINE",
"628 585 LINE",
"1013 585 LINE",
"1013 660 LINE"
);
}
);
width = 1080;
},
{
layerId = "99EB5860-B45A-4B60-BB0B-F826C8F71D42";
name = Bold;
paths = (
{
closed = 1;
nodes = (
"152 670 OFFCURVE",
"29 546 OFFCURVE",
"29 330 CURVE SMOOTH",
"29 114 OFFCURVE",
"152 -10 OFFCURVE",
"342 -10 CURVE SMOOTH",
"550 -10 OFFCURVE",
"642 162 OFFCURVE",
"642 330 CURVE SMOOTH",
"642 498 OFFCURVE",
"550 670 OFFCURVE",
"342 670 CURVE SMOOTH"
);
},
{
closed = 1;
nodes = (
"423 495 OFFCURVE",
"452 445 OFFCURVE",
"452 330 CURVE SMOOTH",
"452 215 OFFCURVE",
"423 165 OFFCURVE",
"355 165 CURVE SMOOTH",
"291 165 OFFCURVE",
"262 215 OFFCURVE",
"262 330 CURVE SMOOTH",
"262 445 OFFCURVE",
"291 495 OFFCURVE",
"355 495 CURVE SMOOTH"
);
},
{
closed = 1;
nodes = (
"565 171 LINE",
"565 0 LINE",
"1011 0 LINE",
"1013 171 LINE"
);
},
{
closed = 1;
nodes = (
"542 660 LINE",
"542 0 LINE",
"685 0 LINE",
"685 660 LINE"
);
},
{
closed = 1;
nodes = (
"565 407 LINE",
"565 249 LINE",
"939 249 LINE",
"938 407 LINE"
);
},
{
closed = 1;
nodes = (
"565 660 LINE",
"565 489 LINE",
"1000 489 LINE",
"999 660 LINE"
);
}
);
width = 1029;
},
{
layerId = "1C7CD022-87C7-4E11-B656-E47B18819458";
name = Light;
paths = (
{
closed = 1;
nodes = (
"167 670 OFFCURVE",
"56 539 OFFCURVE",
"56 330 CURVE SMOOTH",
"56 121 OFFCURVE",
"167 -10 OFFCURVE",
"337 -10 CURVE SMOOTH",
"525 -10 OFFCURVE",
"606 101 OFFCURVE",
"606 330 CURVE SMOOTH",
"606 559 OFFCURVE",
"525 670 OFFCURVE",
"337 670 CURVE SMOOTH"
);
},
{
closed = 1;
nodes = (
"517 656 OFFCURVE",
"592 550 OFFCURVE",
"592 330 CURVE SMOOTH",
"592 110 OFFCURVE",
"517 4 OFFCURVE",
"337 4 CURVE SMOOTH",
"177 4 OFFCURVE",
"72 130 OFFCURVE",
"72 330 CURVE SMOOTH",
"72 530 OFFCURVE",
"177 656 OFFCURVE",
"337 656 CURVE SMOOTH"
);
},
{
closed = 1;
nodes = (
"606 14 LINE",
"598 0 LINE",
"1020 0 LINE",
"1020 14 LINE"
);
},
{
closed = 1;
nodes = (
"592 660 LINE",
"592 0 LINE",
"608 0 LINE",
"608 660 LINE"
);
},
{
closed = 1;
nodes = (
"598 344 LINE",
"598 330 LINE",
"931 330 LINE",
"931 344 LINE"
);
},
{
closed = 1;
nodes = (
"598 660 LINE",
"598 646 LINE",
"1003 646 LINE",
"1003 660 LINE"
);
}
);
width = 1050;
}
);
leftKerningGroup = O;
leftMetricsKey = O;
rightKerningGroup = E;
rightMetricsKey = E;
unicode = 0152;
},
{
glyphname = P;
lastChange = "2015-02-07 11:35:54 +0000";
layers = (
{
layerId = "4A17B37A-CBFD-40E5-9E02-2080A0E1F76C";
name = Regular;
paths = (
{
closed = 1;
nodes = (
"148 660 LINE",
"148 585 LINE",
"329 585 LINE SMOOTH",
"433 585 OFFCURVE",
"479 541 OFFCURVE",
"479 459 CURVE SMOOTH",
"479 377 OFFCURVE",
"433 333 OFFCURVE",
"329 333 CURVE SMOOTH",
"148 333 LINE",
"148 258 LINE",
"341 258 LINE SMOOTH",
"474 258 OFFCURVE",
"563 335 OFFCURVE",
"563 459 CURVE SMOOTH",
"563 583 OFFCURVE",
"474 660 OFFCURVE",
"341 660 CURVE SMOOTH"
);
},
{
closed = 1;
nodes = (
"108 660 LINE",
"108 0 LINE",
"188 0 LINE",
"188 660 LINE"
);
}
);
width = 610;
},
{
layerId = "99EB5860-B45A-4B60-BB0B-F826C8F71D42";
name = Bold;
paths = (
{
closed = 1;
nodes = (
"218 660 LINE",
"218 494 LINE",
"362 494 LINE SMOOTH",
"419 494 OFFCURVE",
"444 475 OFFCURVE",
"444 432 CURVE SMOOTH",
"444 389 OFFCURVE",
"419 370 OFFCURVE",
"362 370 CURVE SMOOTH",
"218 370 LINE",
"218 210 LINE",
"400 210 LINE SMOOTH",
"584 210 OFFCURVE",
"677 287 OFFCURVE",
"677 429 CURVE SMOOTH",
"677 583 OFFCURVE",
"584 660 OFFCURVE",
"400 660 CURVE SMOOTH"
);
},
{
closed = 1;
nodes = (
"50 660 LINE",
"50 0 LINE",
"283 0 LINE",
"283 660 LINE"
);
}
);
width = 706;
},
{
layerId = "1C7CD022-87C7-4E11-B656-E47B18819458";
name = Light;
paths = (
{
closed = 1;
nodes = (
"107 660 LINE",
"107 646 LINE",
"303 646 LINE SMOOTH",
"434 646 OFFCURVE",
"512 582 OFFCURVE",
"512 475 CURVE SMOOTH",
"512 368 OFFCURVE",
"434 305 OFFCURVE",
"303 305 CURVE SMOOTH",
"107 305 LINE",
"107 291 LINE",
"303 291 LINE SMOOTH",
"444 291 OFFCURVE",
"528 359 OFFCURVE",
"528 475 CURVE SMOOTH",
"528 591 OFFCURVE",
"444 660 OFFCURVE",
"303 660 CURVE SMOOTH"
);
},
{
closed = 1;
nodes = (
"99 660 LINE",
"99 0 LINE",
"115 0 LINE",
"115 660 LINE"
);
}
);
width = 561;
}
);
leftKerningGroup = I;
unicode = 0050;
},
{
glyphname = Thorn;
lastChange = "2015-02-07 11:35:54 +0000";
layers = (
{
layerId = "4A17B37A-CBFD-40E5-9E02-2080A0E1F76C";
name = Regular;
paths = (
{
closed = 1;
nodes = (
"148 542 LINE",
"148 467 LINE",
"335 467 LINE SMOOTH",
"439 467 OFFCURVE",
"489 425 OFFCURVE",
"489 337 CURVE SMOOTH",
"489 249 OFFCURVE",
"439 207 OFFCURVE",
"335 207 CURVE SMOOTH",
"148 207 LINE",
"148 132 LINE",
"327 132 LINE SMOOTH",
"491 132 OFFCURVE",
"573 206 OFFCURVE",
"573 337 CURVE SMOOTH",
"573 469 OFFCURVE",
"491 542 OFFCURVE",
"327 542 CURVE SMOOTH"
);
},
{
closed = 1;
nodes = (
"108 660 LINE",
"108 0 LINE",
"188 0 LINE",
"188 660 LINE"
);
}
);
width = 627;
},
{
layerId = "99EB5860-B45A-4B60-BB0B-F826C8F71D42";
leftMetricsKey = "=I";
name = Bold;
paths = (
{
closed = 1;
nodes = (
"166 571 LINE",
"166 406 LINE",
"342 406 LINE SMOOTH",
"400 406 OFFCURVE",
"429 385 OFFCURVE",
"428 337 CURVE SMOOTH",
"429 288 OFFCURVE",
"400 267 OFFCURVE",
"342 267 CURVE SMOOTH",
"166 267 LINE",
"166 103 LINE",
"395 103 LINE SMOOTH",
"566 103 OFFCURVE",
"667 182 OFFCURVE",
"666 337 CURVE SMOOTH",
"667 492 OFFCURVE",
"566 571 OFFCURVE",
"395 571 CURVE SMOOTH"
);
},
{
closed = 1;
nodes = (
"50 660 LINE",
"50 0 LINE",
"283 0 LINE",
"283 660 LINE"
);
}
);
width = 695;
},
{
layerId = "1C7CD022-87C7-4E11-B656-E47B18819458";
name = Light;
paths = (
{
closed = 1;
nodes = (
"108 525 LINE",
"108 511 LINE",
"303 511 LINE SMOOTH",
"441 511 OFFCURVE",
"511 453 OFFCURVE",
"511 340 CURVE SMOOTH",
"511 227 OFFCURVE",
"441 169 OFFCURVE",
"303 169 CURVE SMOOTH",
"108 169 LINE",
"108 155 LINE",
"294 155 LINE SMOOTH",
"448 155 OFFCURVE",
"527 218 OFFCURVE",
"527 340 CURVE SMOOTH",
"527 462 OFFCURVE",
"448 525 OFFCURVE",
"294 525 CURVE SMOOTH"
);
},
{
closed = 1;
nodes = (
"99 660 LINE",
"99 0 LINE",
"115 0 LINE",
"115 660 LINE"
);
}
);
width = 567;
}
);
leftKerningGroup = I;
unicode = 00DE;
},
{
color = 1;
glyphname = Q;
lastChange = "2015-02-07 11:35:54 +0000";
layers = (
{
components = (
{
name = O;
transform = "{1, 0, 0, 1, 0, 0}";
}
);
layerId = "4A17B37A-CBFD-40E5-9E02-2080A0E1F76C";
name = Regular;
paths = (
{
closed = 1;
nodes = (
"336 20 LINE",
"334 -145 OFFCURVE",
"428 -193 OFFCURVE",
"534 -195 CURVE SMOOTH",
"583 -196 OFFCURVE",
"648 -179 OFFCURVE",
"680 -151 CURVE",
"654 -77 LINE",
"629 -100 OFFCURVE",
"585 -114 OFFCURVE",
"536 -114 CURVE SMOOTH",
"463 -114 OFFCURVE",
"401 -93 OFFCURVE",
"408 37 CURVE"
);
}
);
width = 748;
},
{
components = (
{
name = O;
transform = "{1, 0, 0, 1, 0, 0}";
}
);
guideLines = (
{
angle = 90;
position = "{692, 57}";
}
);
layerId = "99EB5860-B45A-4B60-BB0B-F826C8F71D42";
leftMetricsKey = "=O";
rightMetricsKey = "=O";
name = Bold;
paths = (
{
closed = 1;
nodes = (
"300 19 LINE",
"265 -99 OFFCURVE",
"323 -210 OFFCURVE",
"506 -210 CURVE SMOOTH",
"599 -210 OFFCURVE",
"656 -190 OFFCURVE",
"692 -160 CURVE",
"640 -1 LINE",
"612 -26 OFFCURVE",
"573 -40 OFFCURVE",
"514 -40 CURVE SMOOTH",
"447 -40 OFFCURVE",
"419 -23 OFFCURVE",
"433 28 CURVE"
);
}
);
width = 729;
},
{
associatedMasterId = "99EB5860-B45A-4B60-BB0B-F826C8F71D42";
background = {
components = (
{
name = O;
transform = "{1, 0, 0, 1, 0, 0}";
}
);
paths = (
{
closed = 1;
nodes = (
"336 20 LINE",
"334 -145 OFFCURVE",
"435 -193 OFFCURVE",
"531 -195 CURVE SMOOTH",
"598 -196 OFFCURVE",
"645 -179 OFFCURVE",
"680 -156 CURVE",
"655 -88 LINE",
"630 -111 OFFCURVE",
"585 -124 OFFCURVE",
"536 -124 CURVE SMOOTH",
"463 -124 OFFCURVE",
"400 -92 OFFCURVE",
"407 38 CURVE"
);
}
);
};
components = (
{
name = O;
transform = "{1, 0, 0, 1, 0, 0}";
}
);
guideLines = (
{
angle = 90;
position = "{701, 321}";
}
);
layerId = "BA07D6C1-303F-463F-809D-35A929BE9FE7";
leftMetricsKey = "=O";
rightMetricsKey = "=O";
name = "Bold [229]";
paths = (
{
closed = 1;
nodes = (
"306 19 LINE",
"272 -101 OFFCURVE",
"328 -209 OFFCURVE",
"507 -209 CURVE SMOOTH",
"598 -209 OFFCURVE",
"663 -190 OFFCURVE",
"700 -155 CURVE",
"648 -14 LINE",
"623 -36 OFFCURVE",
"578 -53 OFFCURVE",
"525 -53 CURVE SMOOTH",
"439 -53 OFFCURVE",
"408 -34 OFFCURVE",
"423 28 CURVE"
);
}
);
width = 729;
},
{
components = (
{
disableAlignment = 1;
name = O;
transform = "{1, 0, 0, 1, 0, 0}";
}
);
layerId = "1C7CD022-87C7-4E11-B656-E47B18819458";
name = Light;
paths = (
{
closed = 1;
nodes = (
"356 -4 LINE",
"361 -126 OFFCURVE",
"434 -195 OFFCURVE",
"536 -195 CURVE SMOOTH",
"585 -195 OFFCURVE",
"622 -182 OFFCURVE",
"648 -157 CURVE",
"640 -144 LINE",
"614 -171 OFFCURVE",
"575 -181 OFFCURVE",
"536 -181 CURVE SMOOTH",
"441 -181 OFFCURVE",
"375 -120 OFFCURVE",
"370 -4 CURVE"
);
}
);
width = 714;
}
);
leftKerningGroup = O;
rightKerningGroup = O;
unicode = 0051;
},
{
glyphname = R;
lastChange = "2015-02-07 11:35:54 +0000";
layers = (
{
anchors = (
{
name = bottom;
position = "{365, 0}";
},
{
name = top;
position = "{322, 660}";
}
);
layerId = "4A17B37A-CBFD-40E5-9E02-2080A0E1F76C";
name = Regular;
paths = (
{
closed = 1;
nodes = (
"148 660 LINE",
"148 585 LINE",
"357 585 LINE SMOOTH",
"451 585 OFFCURVE",
"497 546 OFFCURVE",
"497 467 CURVE SMOOTH",
"497 388 OFFCURVE",
"451 349 OFFCURVE",
"357 349 CURVE SMOOTH",
"148 349 LINE",
"148 274 LINE",
"358 274 LINE SMOOTH",
"492 274 OFFCURVE",
"581 348 OFFCURVE",
"581 467 CURVE SMOOTH",
"581 586 OFFCURVE",
"492 660 OFFCURVE",
"358 660 CURVE SMOOTH"
);
},
{
closed = 1;
nodes = (
"108 660 LINE",
"108 0 LINE",
"188 0 LINE",
"188 660 LINE"
);
},
{
closed = 1;
nodes = (
"336 289 LINE",
"526 0 LINE",
"621 0 LINE",
"403 333 LINE"
);
}
);
width = 665;
},
{
anchors = (
{
name = bottom;
position = "{362, 0}";
},
{
name = top;
position = "{334, 660}";
}
);
layerId = "99EB5860-B45A-4B60-BB0B-F826C8F71D42";
name = Bold;
paths = (
{
closed = 1;
nodes = (
"208 660 LINE",
"208 494 LINE",
"361 494 LINE SMOOTH",
"420 494 OFFCURVE",
"442 477 OFFCURVE",
"442 433 CURVE SMOOTH",
"442 388 OFFCURVE",
"420 372 OFFCURVE",
"361 372 CURVE SMOOTH",
"208 372 LINE",
"208 219 LINE",
"408 219 LINE SMOOTH",
"584 219 OFFCURVE",
"675 293 OFFCURVE",
"675 439 CURVE SMOOTH",
"675 586 OFFCURVE",
"584 660 OFFCURVE",
"408 660 CURVE SMOOTH"
);
},
{
closed = 1;
nodes = (
"50 660 LINE",
"50 0 LINE",
"278 0 LINE",
"278 660 LINE"
);
},
{
closed = 1;
nodes = (
"305 289 LINE",
"459 0 LINE",
"712 0 LINE",
"506 323 LINE"
);
}
);
width = 705;
},
{
anchors = (
{
name = bottom;
position = "{346, 0}";
},
{
name = top;
position = "{293, 660}";
}
);
layerId = "1C7CD022-87C7-4E11-B656-E47B18819458";
name = Light;
paths = (
{
closed = 1;
nodes = (
"107 660 LINE",
"107 646 LINE",
"338 646 LINE SMOOTH",
"459 646 OFFCURVE",
"531 584 OFFCURVE",
"531 480 CURVE SMOOTH",
"531 376 OFFCURVE",
"459 314 OFFCURVE",
"338 314 CURVE SMOOTH",
"107 314 LINE",
"107 300 LINE",
"338 300 LINE SMOOTH",
"467 300 OFFCURVE",
"547 368 OFFCURVE",
"547 480 CURVE SMOOTH",
"547 592 OFFCURVE",
"467 660 OFFCURVE",
"338 660 CURVE SMOOTH"
);
},
{
closed = 1;
nodes = (
"99 660 LINE",
"99 0 LINE",
"115 0 LINE",
"115 660 LINE"
);
},
{
closed = 1;
nodes = (
"356 304 LINE",
"558 0 LINE",
"576 0 LINE",
"369 314 LINE"
);
}
);
width = 611;
}
);
leftKerningGroup = I;
rightKerningGroup = R;
unicode = 0052;
},
{
color = 3;
glyphname = S;
lastChange = "2015-02-07 11:35:54 +0000";
layers = (
{
anchors = (
{
name = bottom;
position = "{359, 0}";
},
{
name = bottomC;
position = "{329, 0}";
},
{
name = top;
position = "{326, 660}";
}
);
layerId = "4A17B37A-CBFD-40E5-9E02-2080A0E1F76C";
name = Regular;
paths = (
{
closed = 1;
nodes = (
"167 670 OFFCURVE",
"74 580 OFFCURVE",
"74 474 CURVE SMOOTH",
"74 224 OFFCURVE",
"498 345 OFFCURVE",
"498 174 CURVE SMOOTH",
"498 103 OFFCURVE",
"430 65 OFFCURVE",
"328 65 CURVE SMOOTH",
"220 65 OFFCURVE",
"152 113 OFFCURVE",
"117 189 CURVE",
"48 133 LINE",
"94 51 OFFCURVE",
"186 -10 OFFCURVE",
"326 -10 CURVE SMOOTH",
"480 -10 OFFCURVE",
"581 65 OFFCURVE",
"581 178 CURVE SMOOTH",
"581 433 OFFCURVE",
"158 305 OFFCURVE",
"158 483 CURVE SMOOTH",
"158 546 OFFCURVE",
"216 595 OFFCURVE",
"321 595 CURVE SMOOTH",
"418 595 OFFCURVE",
"466 561 OFFCURVE",
"506 474 CURVE",
"575 530 LINE",
"524 622 OFFCURVE",
"441 670 OFFCURVE",
"320 670 CURVE SMOOTH"
);
}
);
width = 641;
},
{
anchors = (
{
name = bottom;
position = "{338, 0}";
},
{
name = bottomC;
position = "{330, 0}";
},
{
name = top;
position = "{331, 660}";
}
);
layerId = "99EB5860-B45A-4B60-BB0B-F826C8F71D42";
name = Bold;
paths = (
{
closed = 1;
nodes = (
"138 670 OFFCURVE",
"28 578 OFFCURVE",
"28 443 CURVE SMOOTH",
"28 192 OFFCURVE",
"390 261 OFFCURVE",
"390 191 CURVE SMOOTH",
"390 174 OFFCURVE",
"373 161 OFFCURVE",
"317 161 CURVE SMOOTH",
"231 161 OFFCURVE",
"166 186 OFFCURVE",
"112 244 CURVE",
"10 83 LINE",
"91 24 OFFCURVE",
"167 -10 OFFCURVE",
"334 -10 CURVE SMOOTH",
"496 -10 OFFCURVE",
"629 63 OFFCURVE",
"629 203 CURVE SMOOTH",
"629 459 OFFCURVE",
"267 395 OFFCURVE",
"267 461 CURVE SMOOTH",
"267 483 OFFCURVE",
"297 499 OFFCURVE",
"344 499 CURVE SMOOTH",
"419 499 OFFCURVE",
"479 477 OFFCURVE",
"535 415 CURVE",
"641 565 LINE",
"548 646 OFFCURVE",
"463 670 OFFCURVE",
"337 670 CURVE SMOOTH"
);
}
);
width = 646;
},
{
anchors = (
{
name = bottom;
position = "{311, 0}";
},
{
name = bottomC;
position = "{279, 0}";
},
{
name = top;
position = "{290, 660}";
}
);
layerId = "1C7CD022-87C7-4E11-B656-E47B18819458";
name = Light;
paths = (
{
closed = 1;
nodes = (
"147 670 OFFCURVE",
"60 586 OFFCURVE",
"60 492 CURVE SMOOTH",
"60 242 OFFCURVE",
"532 390 OFFCURVE",
"532 160 CURVE SMOOTH",
"532 60 OFFCURVE",
"433 4 OFFCURVE",
"309 4 CURVE SMOOTH",
"179 4 OFFCURVE",
"75 57 OFFCURVE",
"57 174 CURVE",
"42 166 LINE",
"64 45 OFFCURVE",
"171 -10 OFFCURVE",
"309 -10 CURVE SMOOTH",
"450 -10 OFFCURVE",
"548 60 OFFCURVE",
"548 160 CURVE SMOOTH",
"548 408 OFFCURVE",
"76 261 OFFCURVE",
"76 492 CURVE SMOOTH",
"76 584 OFFCURVE",
"161 656 OFFCURVE",
"295 656 CURVE SMOOTH",
"415 656 OFFCURVE",
"496 610 OFFCURVE",
"523 507 CURVE",
"536 517 LINE",
"505 623 OFFCURVE",
"420 670 OFFCURVE",
"295 670 CURVE SMOOTH"
);
}
);
width = 594;
},
{
anchors = (
{
name = bottom;
position = "{351, 0}";
},
{
name = bottomC;
position = "{329, 0}";
},
{
name = top;
position = "{328, 660}";
}
);
associatedMasterId = "4A17B37A-CBFD-40E5-9E02-2080A0E1F76C";
background = {
paths = (
{
closed = 1;
nodes = (
"155.98 670 OFFCURVE",
"57 579 OFFCURVE",
"57 462 CURVE SMOOTH",
"57 212 OFFCURVE",
"456.96 313.08 OFFCURVE",
"457 180 CURVE SMOOTH",
"456.96 129.98 OFFCURVE",
"409 101 OFFCURVE",
"324 101 CURVE SMOOTH",
"225 101 OFFCURVE",
"158 141 OFFCURVE",
"116 210 CURVE",
"34 114 LINE",
"93 41 OFFCURVE",
"179 -10 OFFCURVE",
"329.04 -10 CURVE SMOOTH",
"487 -10 OFFCURVE",
"600 64 OFFCURVE",
"600 188 CURVE SMOOTH",
"600 443 OFFCURVE",
"200 339 OFFCURVE",
"200 475 CURVE SMOOTH",
"200 522 OFFCURVE",
"247 559 OFFCURVE",
"330 559 CURVE SMOOTH",
"419 559 OFFCURVE",
"470.94 529.08 OFFCURVE",
"517 452 CURVE",
"601 543 LINE",
"534 631 OFFCURVE",
"450 670 OFFCURVE",
"327 670 CURVE SMOOTH"
);
}
);
};
layerId = "E6066FFC-F517-4FF7-83CA-D0EDF3B9A130";
name = "Regular {137, 5}";
paths = (
{
closed = 1;
nodes = (
"156 670 OFFCURVE",
"57 579 OFFCURVE",
"57 462 CURVE SMOOTH",
"57 215 OFFCURVE",
"455 296 OFFCURVE",
"455 180 CURVE SMOOTH",
"455 130 OFFCURVE",
"409 102 OFFCURVE",
"324 102 CURVE SMOOTH",
"235 102 OFFCURVE",
"172 125 OFFCURVE",
"120 211 CURVE",
"38 113 LINE",
"94 33 OFFCURVE",
"179 -10 OFFCURVE",
"329 -10 CURVE SMOOTH",
"487 -10 OFFCURVE",
"600 64 OFFCURVE",
"600 188 CURVE SMOOTH",
"600 443 OFFCURVE",
"203 339 OFFCURVE",
"203 475 CURVE SMOOTH",
"203 522 OFFCURVE",
"245 556 OFFCURVE",
"328 556 CURVE SMOOTH",
"417 556 OFFCURVE",
"472 521 OFFCURVE",
"506 450 CURVE",
"601 543 LINE",
"534 631 OFFCURVE",
"450 670 OFFCURVE",
"327 670 CURVE SMOOTH"
);
}
);
width = 643;
}
);
leftKerningGroup = S;
rightKerningGroup = S;
unicode = 0053;
},
{
glyphname = Germandbls;
lastChange = "2015-02-07 11:35:54 +0000";
layers = (
{
layerId = "1C7CD022-87C7-4E11-B656-E47B18819458";
name = Light;
paths = (
{
closed = 1;
nodes = (
"115 0 LINE",
"115 442 LINE SMOOTH",
"115 563 OFFCURVE",
"189 646 OFFCURVE",
"311 646 CURVE SMOOTH",
"542 646 LINE",
"299 344 LINE",
"312 338 LINE",
"560 645 LINE",
"560 660 LINE",
"311 660 LINE SMOOTH",
"178 660 OFFCURVE",
"99 573 OFFCURVE",
"99 443 CURVE SMOOTH",
"99 0 LINE"
);
},
{
closed = 1;
nodes = (
"521 -5 OFFCURVE",
"595 70 OFFCURVE",
"595 180 CURVE SMOOTH",
"595 294 OFFCURVE",
"529 344 OFFCURVE",
"391 344 CURVE SMOOTH",
"299 344 LINE",
"299 330 LINE",
"391 330 LINE SMOOTH",
"519 330 OFFCURVE",
"579 285 OFFCURVE",
"579 180 CURVE SMOOTH",
"579 78 OFFCURVE",
"508 8 OFFCURVE",
"406 8 CURVE SMOOTH",
"333 8 OFFCURVE",
"287 35 OFFCURVE",
"267 67 CURVE",
"256 55 LINE",
"275 23 OFFCURVE",
"333 -5 OFFCURVE",
"406 -5 CURVE SMOOTH"
);
}
);
width = 639;
},
{
layerId = "4A17B37A-CBFD-40E5-9E02-2080A0E1F76C";
name = Regular;
paths = (
{
closed = 1;
nodes = (
"188 0 LINE",
"188 442 LINE SMOOTH",
"188 525 OFFCURVE",
"253 585 OFFCURVE",
"330 585 CURVE SMOOTH",
"513 585 LINE",
"339 370 LINE",
"390 329 LINE",
"608 584 LINE",
"608 660 LINE",
"330 660 LINE SMOOTH",
"203 660 OFFCURVE",
"108 573 OFFCURVE",
"108 443 CURVE SMOOTH",
"108 0 LINE"
);
},
{
closed = 1;
nodes = (
"565 -5 OFFCURVE",
"651 70 OFFCURVE",
"651 185 CURVE SMOOTH",
"651 303 OFFCURVE",
"569 370 OFFCURVE",
"448 370 CURVE SMOOTH",
"339 370 LINE",
"339 302 LINE",
"416 302 LINE SMOOTH",
"512 302 OFFCURVE",
"567 257 OFFCURVE",
"567 185 CURVE SMOOTH",
"567 116 OFFCURVE",
"516 68 OFFCURVE",
"438 68 CURVE SMOOTH",
"385 68 OFFCURVE",
"334 88 OFFCURVE",
"309 118 CURVE",
"275 59 LINE",
"299 24 OFFCURVE",
"363 -5 OFFCURVE",
"446 -5 CURVE SMOOTH"
);
}
);
width = 691;
},
{
layerId = "99EB5860-B45A-4B60-BB0B-F826C8F71D42";
name = Bold;
paths = (
{
closed = 1;
nodes = (
"283 0 LINE",
"283 362 LINE SMOOTH",
"283 449 OFFCURVE",
"325 494 OFFCURVE",
"405 494 CURVE SMOOTH",
"481 494 LINE",
"352 359 LINE",
"497 292 LINE",
"683 498 LINE",
"683 660 LINE",
"355 660 LINE SMOOTH",
"162 660 OFFCURVE",
"50 565 OFFCURVE",
"50 403 CURVE SMOOTH",
"50 0 LINE"
);
},
{
closed = 1;
nodes = (
"631 -5 OFFCURVE",
"726 56 OFFCURVE",
"726 189 CURVE SMOOTH",
"726 317 OFFCURVE",
"627 359 OFFCURVE",
"506 359 CURVE SMOOTH",
"352 359 LINE",
"352 243 LINE",
"448 243 LINE SMOOTH",
"489 243 OFFCURVE",
"516 231 OFFCURVE",
"516 198 CURVE SMOOTH",
"516 168 OFFCURVE",
"490 151 OFFCURVE",
"452 151 CURVE SMOOTH",
"411 151 OFFCURVE",
"392 158 OFFCURVE",
"367 177 CURVE",
"313 49 LINE",
"351 14 OFFCURVE",
"402 -5 OFFCURVE",
"505 -5 CURVE SMOOTH"
);
}
);
width = 738;
}
);
leftKerningGroup = I;
leftMetricsKey = I;
unicode = 1E9E;
},
{
glyphname = T;
lastChange = "2015-02-07 11:35:54 +0000";
layers = (
{
anchors = (
{
name = bottom;
position = "{318, 0}";
},
{
name = center;
position = "{302, 330}";
},
{
name = top;
position = "{302, 660}";
}
);
layerId = "4A17B37A-CBFD-40E5-9E02-2080A0E1F76C";
name = Regular;
paths = (
{
closed = 1;
nodes = (
"262 660 LINE",
"262 0 LINE",
"342 0 LINE",
"342 660 LINE"
);
},
{
closed = 1;
nodes = (
"32 660 LINE",
"32 585 LINE",
"572 585 LINE",
"572 660 LINE"
);
}
);
width = 604;
},
{
anchors = (
{
name = bottom;
position = "{326, 0}";
},
{
name = center;
position = "{14, 14}";
},
{
name = top;
position = "{343, 660}";
}
);
layerId = "99EB5860-B45A-4B60-BB0B-F826C8F71D42";
name = Bold;
paths = (
{
closed = 1;
nodes = (
"227 660 LINE",
"227 0 LINE",
"460 0 LINE",
"460 660 LINE"
);
},
{
closed = 1;
nodes = (
"20 660 LINE",
"20 489 LINE",
"666 489 LINE",
"665 660 LINE"
);
}
);
width = 686;
},
{
anchors = (
{
name = bottom;
position = "{276, 0}";
},
{
name = center;
position = "{272, 371}";
},
{
name = top;
position = "{272, 660}";
}
);
layerId = "1C7CD022-87C7-4E11-B656-E47B18819458";
name = Light;
paths = (
{
closed = 1;
nodes = (
"264 653 LINE",
"264 0 LINE",
"280 0 LINE",
"280 653 LINE"
);
},
{
closed = 1;
nodes = (
"11 660 LINE",
"11 646 LINE",
"533 646 LINE",
"533 660 LINE"
);
}
);
width = 544;
}
);
leftKerningGroup = T;
rightKerningGroup = T;
unicode = 0054;
},
{
glyphname = U;
lastChange = "2015-02-07 11:35:54 +0000";
layers = (
{
anchors = (
{
name = ogonek;
position = "{480, 16}";
},
{
name = top;
position = "{360, 660}";
}
);
layerId = "4A17B37A-CBFD-40E5-9E02-2080A0E1F76C";
name = Regular;
paths = (
{
closed = 1;
nodes = (
"539 660 LINE",
"539 266 LINE SMOOTH",
"539 128 OFFCURVE",
"483 65 OFFCURVE",
"360 65 CURVE SMOOTH",
"237 65 OFFCURVE",
"181 128 OFFCURVE",
"181 266 CURVE SMOOTH",
"181 660 LINE",
"101 660 LINE",
"101 246 LINE SMOOTH",
"101 76 OFFCURVE",
"194 -10 OFFCURVE",
"360 -10 CURVE SMOOTH",
"527 -10 OFFCURVE",
"619 76 OFFCURVE",
"619 246 CURVE SMOOTH",
"619 660 LINE"
);
}
);
width = 720;
},
{
anchors = (
{
name = ogonek;
position = "{491, 10}";
},
{
name = top;
position = "{354, 660}";
}
);
layerId = "99EB5860-B45A-4B60-BB0B-F826C8F71D42";
name = Bold;
paths = (
{
closed = 1;
nodes = (
"440 660 LINE",
"440 266 LINE SMOOTH",
"440 199 OFFCURVE",
"410 165 OFFCURVE",
"354 165 CURVE SMOOTH",
"299 165 OFFCURVE",
"269 199 OFFCURVE",
"269 266 CURVE SMOOTH",
"269 660 LINE",
"35 660 LINE",
"35 284 LINE SMOOTH",
"35 87 OFFCURVE",
"141 -10 OFFCURVE",
"354 -10 CURVE SMOOTH",
"567 -10 OFFCURVE",
"673 87 OFFCURVE",
"673 284 CURVE SMOOTH",
"673 660 LINE"
);
}
);
width = 708;
},
{
anchors = (
{
name = ogonek;
position = "{436, 8}";
},
{
name = top;
position = "{340, 660}";
}
);
layerId = "1C7CD022-87C7-4E11-B656-E47B18819458";
name = Light;
paths = (
{
closed = 1;
nodes = (
"573 660 LINE",
"573 235 LINE SMOOTH",
"573 88 OFFCURVE",
"486 4 OFFCURVE",
"340 4 CURVE SMOOTH",
"194 4 OFFCURVE",
"107 88 OFFCURVE",
"107 235 CURVE SMOOTH",
"107 660 LINE",
"91 660 LINE",
"91 235 LINE SMOOTH",
"91 78 OFFCURVE",
"184 -10 OFFCURVE",
"340 -10 CURVE SMOOTH",
"496 -10 OFFCURVE",
"589 78 OFFCURVE",
"589 235 CURVE SMOOTH",
"589 660 LINE"
);
}
);
width = 680;
}
);
leftKerningGroup = U;
rightKerningGroup = U;
unicode = 0055;
},
{
glyphname = V;
lastChange = "2015-02-07 11:35:54 +0000";
layers = (
{
guideLines = (
{
angle = 180;
position = "{290, 202}";
}
);
layerId = "4A17B37A-CBFD-40E5-9E02-2080A0E1F76C";
name = Regular;
paths = (
{
closed = 1;
nodes = (
"534 660 LINE",
"366 203 LINE",
"324 73 LINE",
"282 204 LINE",
"114 660 LINE",
"28 660 LINE",
"279 0 LINE",
"370 0 LINE",
"620 660 LINE"
);
}
);
width = 648;
},
{
layerId = "99EB5860-B45A-4B60-BB0B-F826C8F71D42";
name = Bold;
paths = (
{
closed = 1;
nodes = (
"481 660 LINE",
"388 297 LINE",
"358 170 LINE",
"326 299 LINE",
"235 660 LINE",
"-8 660 LINE",
"215 0 LINE",
"492 0 LINE",
"715 660 LINE"
);
}
);
width = 707;
},
{
layerId = "1C7CD022-87C7-4E11-B656-E47B18819458";
name = Light;
paths = (
{
closed = 1;
nodes = (
"542 660 LINE",
"315 86 LINE",
"288 18 LINE",
"261 87 LINE",
"34 660 LINE",
"17 660 LINE",
"277 0 LINE",
"299 0 LINE",
"559 660 LINE"
);
}
);
width = 576;
}
);
unicode = 0056;
},
{
glyphname = W;
lastChange = "2015-02-07 11:35:54 +0000";
layers = (
{
guideLines = (
{
angle = 180;
position = "{298, 202}";
}
);
layerId = "4A17B37A-CBFD-40E5-9E02-2080A0E1F76C";
name = Regular;
paths = (
{
closed = 1;
nodes = (
"845 660 LINE",
"721 202 LINE",
"685 61 LINE",
"650 202 LINE",
"529 660 LINE",
"437 660 LINE",
"315 202 LINE",
"281 63 LINE",
"246 201 LINE",
"122 660 LINE",
"36 660 LINE",
"231 0 LINE",
"330 0 LINE",
"481 557 LINE",
"633 0 LINE",
"732 0 LINE",
"926 660 LINE"
);
}
);
width = 962;
},
{
layerId = "99EB5860-B45A-4B60-BB0B-F826C8F71D42";
name = Bold;
paths = (
{
closed = 1;
nodes = (
"787 660 LINE",
"730 315 LINE",
"712 186 LINE",
"688 314 LINE",
"614 660 LINE",
"413 660 LINE",
"343 315 LINE",
"320 183 LINE",
"301 313 LINE",
"243 660 LINE",
"-8 660 LINE",
"179 0 LINE",
"435 0 LINE",
"514 397 LINE",
"594 0 LINE",
"841 0 LINE",
"1029 660 LINE"
);
}
);
width = 1021;
},
{
layerId = "1C7CD022-87C7-4E11-B656-E47B18819458";
name = Light;
paths = (
{
closed = 1;
nodes = (
"869 660 LINE",
"684 97 LINE",
"657 16 LINE",
"633 97 LINE",
"465 660 LINE",
"444 660 LINE",
"276 98 LINE",
"252 16 LINE",
"225 97 LINE",
"40 660 LINE",
"23 660 LINE",
"241 0 LINE",
"262 0 LINE",
"455 638 LINE",
"647 0 LINE",
"668 0 LINE",
"886 660 LINE"
);
}
);
width = 909;
}
);
unicode = 0057;
},
{
glyphname = X;
lastChange = "2015-02-07 11:35:54 +0000";
layers = (
{
layerId = "4A17B37A-CBFD-40E5-9E02-2080A0E1F76C";
name = Regular;
paths = (
{
closed = 1;
nodes = (
"477 660 LINE",
"290 375 LINE",
"283 375 LINE",
"25 0 LINE",
"118 0 LINE",
"320 308 LINE",
"327 308 LINE",
"562 660 LINE"
);
},
{
closed = 1;
nodes = (
"45 660 LINE",
"272 312 LINE",
"280 300 LINE",
"476 0 LINE",
"569 0 LINE",
"332 366 LINE",
"323 379 LINE",
"140 660 LINE"
);
}
);
width = 601;
},
{
layerId = "99EB5860-B45A-4B60-BB0B-F826C8F71D42";
name = Bold;
paths = (
{
closed = 1;
nodes = (
"442 660 LINE",
"303 372 LINE",
"253 367 LINE",
"4 0 LINE",
"267 0 LINE",
"387 262 LINE",
"434 258 LINE",
"696 660 LINE"
);
},
{
closed = 1;
nodes = (
"18 660 LINE",
"278 259 LINE",
"307 267 LINE",
"439 0 LINE",
"706 0 LINE",
"456 371 LINE",
"408 390 LINE",
"279 660 LINE"
);
}
);
width = 706;
},
{
layerId = "1C7CD022-87C7-4E11-B656-E47B18819458";
name = Light;
paths = (
{
closed = 1;
nodes = (
"478 660 LINE",
"259 350 LINE",
"256 346 LINE",
"12 0 LINE",
"33 0 LINE",
"267 331 LINE",
"272 338 LINE",
"500 660 LINE"
);
},
{
closed = 1;
nodes = (
"33 660 LINE",
"256 337 LINE",
"260 331 LINE",
"489 0 LINE",
"509 0 LINE",
"272 343 LINE",
"265 353 LINE",
"53 660 LINE"
);
}
);
width = 526;
}
);
unicode = 0058;
},
{
glyphname = Y;
lastChange = "2015-02-07 11:35:54 +0000";
layers = (
{
anchors = (
{
name = top;
position = "{286, 660}";
}
);
layerId = "4A17B37A-CBFD-40E5-9E02-2080A0E1F76C";
name = Regular;
paths = (
{
closed = 1;
nodes = (
"467 660 LINE",
"339 434 LINE",
"286 340 LINE",
"233 434 LINE",
"105 660 LINE",
"10 660 LINE",
"246 258 LINE",
"246 0 LINE",
"326 0 LINE",
"326 258 LINE",
"562 660 LINE"
);
}
);
width = 572;
},
{
anchors = (
{
name = top;
position = "{356, 660}";
}
);
layerId = "99EB5860-B45A-4B60-BB0B-F826C8F71D42";
name = Bold;
paths = (
{
closed = 1;
nodes = (
"474 660 LINE",
"403 509 LINE",
"357 389 LINE",
"310 509 LINE",
"240 660 LINE",
"9 660 LINE",
"240 229 LINE",
"240 0 LINE",
"473 0 LINE",
"473 229 LINE",
"704.006 660 LINE"
);
}
);
width = 713;
},
{
anchors = (
{
name = top;
position = "{256, 660}";
}
);
layerId = "1C7CD022-87C7-4E11-B656-E47B18819458";
name = Light;
paths = (
{
closed = 1;
nodes = (
"477 660 LINE",
"348 434 LINE",
"256 273 LINE",
"164 434 LINE",
"35 660 LINE",
"16 660 LINE",
"248 256 LINE",
"248 0 LINE",
"264 0 LINE",
"264 256 LINE",
"496 660 LINE"
);
}
);
width = 512;
}
);
leftKerningGroup = Y;
rightKerningGroup = Y;
unicode = 0059;
},
{
glyphname = Z;
lastChange = "2015-02-07 11:35:54 +0000";
layers = (
{
anchors = (
{
name = top;
position = "{306, 660}";
}
);
layerId = "4A17B37A-CBFD-40E5-9E02-2080A0E1F76C";
name = Regular;
paths = (
{
closed = 1;
nodes = (
"56 75 LINE",
"110 29 LINE",
"562 585 LINE",
"509 632 LINE"
);
},
{
closed = 1;
nodes = (
"56 75 LINE",
"56 0 LINE",
"575 0 LINE",
"575 75 LINE"
);
},
{
closed = 1;
nodes = (
"66 660 LINE",
"66 585 LINE",
"562 585 LINE",
"562 660 LINE"
);
}
);
width = 630;
},
{
anchors = (
{
name = top;
position = "{329, 660}";
}
);
layerId = "99EB5860-B45A-4B60-BB0B-F826C8F71D42";
name = Bold;
paths = (
{
closed = 1;
nodes = (
"25 166 LINE",
"153 48 LINE",
"611 494 LINE",
"484 611 LINE"
);
},
{
closed = 1;
nodes = (
"25 166 LINE",
"25 0 LINE",
"622 0 LINE",
"622 166 LINE"
);
},
{
closed = 1;
nodes = (
"29 660 LINE",
"29 494 LINE",
"611 494 LINE",
"611 660 LINE"
);
}
);
width = 637;
},
{
anchors = (
{
name = top;
position = "{277, 660}";
}
);
layerId = "1C7CD022-87C7-4E11-B656-E47B18819458";
name = Light;
paths = (
{
closed = 1;
nodes = (
"29 14 LINE",
"42 3 LINE",
"508 646 LINE",
"496 655 LINE"
);
},
{
closed = 1;
nodes = (
"29 14 LINE",
"29 0 LINE",
"528 0 LINE",
"528 14 LINE"
);
},
{
closed = 1;
nodes = (
"36 660 LINE",
"36 646 LINE",
"508 646 LINE",
"508 660 LINE"
);
}
);
width = 552;
}
);
leftKerningGroup = Z;
rightKerningGroup = Z;
unicode = 005A;
},
{
glyphname = uni0162;
lastChange = "2015-02-07 11:35:54 +0000";
layers = (
{
components = (
{
name = T;
transform = "{1, 0, 0, 1, 0, 0}";
}
);
layerId = "4A17B37A-CBFD-40E5-9E02-2080A0E1F76C";
name = Regular;
paths = (
{
closed = 1;
nodes = (
"320 -39 OFFCURVE",
"342 -59 OFFCURVE",
"342 -97 CURVE SMOOTH",
"342 -132 OFFCURVE",
"317 -155 OFFCURVE",
"285 -155 CURVE SMOOTH",
"257 -155 OFFCURVE",
"232 -142 OFFCURVE",
"216 -125 CURVE",
"186 -180 LINE",
"214 -205 OFFCURVE",
"249 -215 OFFCURVE",
"296 -215 CURVE SMOOTH",
"368 -215 OFFCURVE",
"413 -164 OFFCURVE",
"413 -109 CURVE SMOOTH",
"413 -65 OFFCURVE",
"392 -23 OFFCURVE",
"335 14 CURVE",
"262 0 LINE"
);
}
);
width = 604;
},
{
components = (
{
name = T;
transform = "{1, 0, 0, 1, 0, 0}";
}
);
layerId = "99EB5860-B45A-4B60-BB0B-F826C8F71D42";
leftMetricsKey = "=T";
rightMetricsKey = "=T";
name = Bold;
paths = (
{
closed = 1;
nodes = (
"344 0 OFFCURVE",
"372 -18 OFFCURVE",
"372 -51 CURVE SMOOTH",
"372 -87 OFFCURVE",
"345 -101 OFFCURVE",
"316 -101 CURVE SMOOTH",
"281 -101 OFFCURVE",
"265 -89 OFFCURVE",
"250 -70 CURVE",
"194 -170 LINE",
"218 -193 OFFCURVE",
"260 -215 OFFCURVE",
"333 -215 CURVE SMOOTH",
"421 -215 OFFCURVE",
"494 -184 OFFCURVE",
"494 -83 CURVE SMOOTH",
"494 3 OFFCURVE",
"434 46 OFFCURVE",
"308 48 CURVE",
"298 0 LINE"
);
}
);
width = 686;
},
{
components = (
{
disableAlignment = 1;
name = T;
transform = "{1, 0, 0, 1, 0, 0}";
}
);
layerId = "1C7CD022-87C7-4E11-B656-E47B18819458";
name = Light;
paths = (
{
closed = 1;
nodes = (
"321 -36 OFFCURVE",
"348 -68 OFFCURVE",
"348 -117 CURVE SMOOTH",
"348 -160 OFFCURVE",
"319 -189 OFFCURVE",
"274 -189 CURVE SMOOTH",
"233 -189 OFFCURVE",
"211 -174 OFFCURVE",
"190 -148 CURVE",
"181 -158 LINE",
"201 -184 OFFCURVE",
"227 -202 OFFCURVE",
"274 -202 CURVE SMOOTH",
"328 -202 OFFCURVE",
"363 -168 OFFCURVE",
"363 -117 CURVE SMOOTH",
"363 -65 OFFCURVE",
"336 -32 OFFCURVE",
"279 3 CURVE",
"264 0 LINE"
);
}
);
width = 544;
}
);
leftKerningGroup = T;
leftMetricsKey = T;
rightKerningGroup = T;
rightMetricsKey = T;
unicode = 0162;
},
{
glyphname = IJ.ss03;
lastChange = "2015-02-07 11:35:54 +0000";
layers = (
{
layerId = "1C7CD022-87C7-4E11-B656-E47B18819458";
name = Light;
paths = (
{
closed = 1;
nodes = (
"99 660 LINE",
"99 262 LINE",
"115 262 LINE",
"115 660 LINE"
);
},
{
closed = 1;
nodes = (
"462 660 LINE",
"462 209 LINE SMOOTH",
"462 84 OFFCURVE",
"400 4 OFFCURVE",
"282 4 CURVE SMOOTH",
"162 4 OFFCURVE",
"111 61 OFFCURVE",
"111 163 CURVE",
"95 163 LINE",
"95 49 OFFCURVE",
"150 -10 OFFCURVE",
"282 -10 CURVE SMOOTH",
"410 -10 OFFCURVE",
"478 75 OFFCURVE",
"478 209 CURVE SMOOTH",
"478 660 LINE"
);
}
);
width = 570;
},
{
layerId = "4A17B37A-CBFD-40E5-9E02-2080A0E1F76C";
name = Regular;
paths = (
{
closed = 1;
nodes = (
"108 660 LINE",
"108 287 LINE",
"188 287 LINE",
"188 660 LINE"
);
},
{
closed = 1;
nodes = (
"452 660 LINE",
"452 246 LINE SMOOTH",
"452 127 OFFCURVE",
"400 65 OFFCURVE",
"313 65 CURVE SMOOTH",
"226 65 OFFCURVE",
"174 105 OFFCURVE",
"189 191 CURVE",
"112 191 LINE",
"97 63 OFFCURVE",
"170 -10 OFFCURVE",
"313 -10 CURVE SMOOTH",
"446 -10 OFFCURVE",
"532 78 OFFCURVE",
"532 226 CURVE SMOOTH",
"532 660 LINE"
);
}
);
width = 633;
},
{
layerId = "99EB5860-B45A-4B60-BB0B-F826C8F71D42";
name = Bold;
paths = (
{
closed = 1;
nodes = (
"50 660 LINE",
"50 292 LINE",
"283 292 LINE",
"283 660 LINE"
);
},
{
closed = 1;
nodes = (
"414 660 LINE",
"414 265 LINE SMOOTH",
"414 193 OFFCURVE",
"394 165 OFFCURVE",
"348 165 CURVE SMOOTH",
"297 165 OFFCURVE",
"278 191 OFFCURVE",
"284 248 CURVE",
"50 248 LINE",
"29 75 OFFCURVE",
"144 -10 OFFCURVE",
"341 -10 CURVE SMOOTH",
"531 -10 OFFCURVE",
"647 95 OFFCURVE",
"646 272 CURVE SMOOTH",
"647 660 LINE"
);
}
);
width = 682;
}
);
rightMetricsKey = J;
},
{
color = 3;
glyphname = Adieresis.titl;
lastChange = "2015-02-07 11:35:54 +0000";
layers = (
{
components = (
{
name = A;
transform = "{1, 0, 0, 1, 0, 0}";
}
);
layerId = "1C7CD022-87C7-4E11-B656-E47B18819458";
name = Light;
paths = (
{
closed = 1;
nodes = (
"398 620 OFFCURVE",
"409 631 OFFCURVE",
"409 645 CURVE SMOOTH",
"409 659 OFFCURVE",
"398 670 OFFCURVE",
"384 670 CURVE SMOOTH",
"370 670 OFFCURVE",
"359 659 OFFCURVE",
"359 645 CURVE SMOOTH",
"359 631 OFFCURVE",
"370 620 OFFCURVE",
"384 620 CURVE SMOOTH"
);
},
{
closed = 1;
nodes = (
"214 620 OFFCURVE",
"225 631 OFFCURVE",
"225 645 CURVE SMOOTH",
"225 659 OFFCURVE",
"214 670 OFFCURVE",
"200 670 CURVE SMOOTH",
"186 670 OFFCURVE",
"175 659 OFFCURVE",
"175 645 CURVE SMOOTH",
"175 631 OFFCURVE",
"186 620 OFFCURVE",
"200 620 CURVE SMOOTH"
);
}
);
width = 586;
},
{
components = (
{
name = A;
transform = "{1, 0, 0, 1, 0, 0}";
}
);
layerId = "4A17B37A-CBFD-40E5-9E02-2080A0E1F76C";
name = Regular;
paths = (
{
closed = 1;
nodes = (
"506 556 OFFCURVE",
"532 582 OFFCURVE",
"532 613 CURVE SMOOTH",
"532 644 OFFCURVE",
"506 670 OFFCURVE",
"475 670 CURVE SMOOTH",
"444 670 OFFCURVE",
"418 644 OFFCURVE",
"418 613 CURVE SMOOTH",
"418 582 OFFCURVE",
"444 556 OFFCURVE",
"475 556 CURVE SMOOTH"
);
},
{
closed = 1;
nodes = (
"217 556 OFFCURVE",
"243 582 OFFCURVE",
"243 613 CURVE SMOOTH",
"243 644 OFFCURVE",
"217 670 OFFCURVE",
"186 670 CURVE SMOOTH",
"155 670 OFFCURVE",
"129 644 OFFCURVE",
"129 613 CURVE SMOOTH",
"129 582 OFFCURVE",
"155 556 OFFCURVE",
"186 556 CURVE SMOOTH"
);
}
);
width = 660;
},
{
components = (
{
name = A;
transform = "{1, 0, 0, 1, 0, 0}";
}
);
layerId = "99EB5860-B45A-4B60-BB0B-F826C8F71D42";
name = Bold;
paths = (
{
closed = 1;
nodes = (
"528 698 OFFCURVE",
"566 731 OFFCURVE",
"566 789 CURVE SMOOTH",
"566 847 OFFCURVE",
"528 880 OFFCURVE",
"461 880 CURVE SMOOTH",
"396 880 OFFCURVE",
"359 847 OFFCURVE",
"359 789 CURVE SMOOTH",
"359 731 OFFCURVE",
"396 698 OFFCURVE",
"461 698 CURVE SMOOTH"
);
},
{
closed = 1;
nodes = (
"291 698 OFFCURVE",
"329 731 OFFCURVE",
"329 789 CURVE SMOOTH",
"329 847 OFFCURVE",
"291 880 OFFCURVE",
"224 880 CURVE SMOOTH",
"159 880 OFFCURVE",
"122 847 OFFCURVE",
"122 789 CURVE SMOOTH",
"122 731 OFFCURVE",
"159 698 OFFCURVE",
"224 698 CURVE SMOOTH"
);
}
);
width = 689;
}
);
},
{
color = 3;
glyphname = Odieresis.titl;
lastChange = "2015-02-07 11:35:54 +0000";
layers = (
{
components = (
{
name = O;
transform = "{1, 0, 0, 1, 0, 0}";
}
);
layerId = "1C7CD022-87C7-4E11-B656-E47B18819458";
name = Light;
paths = (
{
closed = 1;
nodes = (
"100 670 OFFCURVE",
"89 659 OFFCURVE",
"89 645 CURVE SMOOTH",
"89 631 OFFCURVE",
"100 620 OFFCURVE",
"114 620 CURVE SMOOTH",
"128 620 OFFCURVE",
"139 631 OFFCURVE",
"139 645 CURVE SMOOTH",
"139 659 OFFCURVE",
"128 670 OFFCURVE",
"114 670 CURVE SMOOTH"
);
},
{
closed = 1;
nodes = (
"574 670 OFFCURVE",
"563 659 OFFCURVE",
"563 645 CURVE SMOOTH",
"563 631 OFFCURVE",
"574 620 OFFCURVE",
"588 620 CURVE SMOOTH",
"602 620 OFFCURVE",
"613 631 OFFCURVE",
"613 645 CURVE SMOOTH",
"613 659 OFFCURVE",
"602 670 OFFCURVE",
"588 670 CURVE SMOOTH"
);
}
);
width = 714;
},
{
components = (
{
name = O;
transform = "{1, 0, 0, 1, 0, 0}";
}
);
layerId = "4A17B37A-CBFD-40E5-9E02-2080A0E1F76C";
name = Regular;
paths = (
{
closed = 1;
nodes = (
"46 670 OFFCURVE",
"20 644 OFFCURVE",
"20 613 CURVE SMOOTH",
"20 582 OFFCURVE",
"46 556 OFFCURVE",
"77 556 CURVE SMOOTH",
"108 556 OFFCURVE",
"134 582 OFFCURVE",
"134 613 CURVE SMOOTH",
"134 644 OFFCURVE",
"108 670 OFFCURVE",
"77 670 CURVE SMOOTH"
);
},
{
closed = 1;
nodes = (
"640 670 OFFCURVE",
"614 644 OFFCURVE",
"614 613 CURVE SMOOTH",
"614 582 OFFCURVE",
"640 556 OFFCURVE",
"671 556 CURVE SMOOTH",
"702 556 OFFCURVE",
"728 582 OFFCURVE",
"728 613 CURVE SMOOTH",
"728 644 OFFCURVE",
"702 670 OFFCURVE",
"671 670 CURVE SMOOTH"
);
}
);
width = 748;
},
{
components = (
{
name = O;
transform = "{1, 0, 0, 1, 0, 0}";
}
);
layerId = "99EB5860-B45A-4B60-BB0B-F826C8F71D42";
name = Bold;
paths = (
{
closed = 1;
nodes = (
"180 880 OFFCURVE",
"143 847 OFFCURVE",
"143 789 CURVE SMOOTH",
"143 731 OFFCURVE",
"180 698 OFFCURVE",
"245 698 CURVE SMOOTH",
"312 698 OFFCURVE",
"350 731 OFFCURVE",
"350 789 CURVE SMOOTH",
"350 847 OFFCURVE",
"312 880 OFFCURVE",
"245 880 CURVE SMOOTH"
);
},
{
closed = 1;
nodes = (
"417 880 OFFCURVE",
"380 847 OFFCURVE",
"380 789 CURVE SMOOTH",
"380 731 OFFCURVE",
"417 698 OFFCURVE",
"482 698 CURVE SMOOTH",
"549 698 OFFCURVE",
"587 731 OFFCURVE",
"587 789 CURVE SMOOTH",
"587 847 OFFCURVE",
"549 880 OFFCURVE",
"482 880 CURVE SMOOTH"
);
}
);
width = 729;
}
);
},
{
color = 3;
glyphname = Udieresis.titl;
lastChange = "2015-02-07 11:35:54 +0000";
layers = (
{
components = (
{
name = U;
transform = "{1, 0, 0, 1, 0, 0}";
}
);
layerId = "1C7CD022-87C7-4E11-B656-E47B18819458";
name = Light;
paths = (
{
closed = 1;
nodes = (
"425 620 OFFCURVE",
"436 631 OFFCURVE",
"436 645 CURVE SMOOTH",
"436 659 OFFCURVE",
"425 670 OFFCURVE",
"411 670 CURVE SMOOTH",
"397 670 OFFCURVE",
"386 659 OFFCURVE",
"386 645 CURVE SMOOTH",
"386 631 OFFCURVE",
"397 620 OFFCURVE",
"411 620 CURVE SMOOTH"
);
},
{
closed = 1;
nodes = (
"281 620 OFFCURVE",
"292 631 OFFCURVE",
"292 645 CURVE SMOOTH",
"292 659 OFFCURVE",
"281 670 OFFCURVE",
"267 670 CURVE SMOOTH",
"253 670 OFFCURVE",
"242 659 OFFCURVE",
"242 645 CURVE SMOOTH",
"242 631 OFFCURVE",
"253 620 OFFCURVE",
"267 620 CURVE SMOOTH"
);
}
);
width = 680;
},
{
components = (
{
name = U;
transform = "{1, 0, 0, 1, 0, 0}";
}
);
layerId = "4A17B37A-CBFD-40E5-9E02-2080A0E1F76C";
name = Regular;
paths = (
{
closed = 1;
nodes = (
"460 556 OFFCURVE",
"486 582 OFFCURVE",
"486 613 CURVE SMOOTH",
"486 644 OFFCURVE",
"460 670 OFFCURVE",
"429 670 CURVE SMOOTH",
"398 670 OFFCURVE",
"372 644 OFFCURVE",
"372 613 CURVE SMOOTH",
"372 582 OFFCURVE",
"398 556 OFFCURVE",
"429 556 CURVE SMOOTH"
);
},
{
closed = 1;
nodes = (
"322 556 OFFCURVE",
"348 582 OFFCURVE",
"348 613 CURVE SMOOTH",
"348 644 OFFCURVE",
"322 670 OFFCURVE",
"291 670 CURVE SMOOTH",
"260 670 OFFCURVE",
"234 644 OFFCURVE",
"234 613 CURVE SMOOTH",
"234 582 OFFCURVE",
"260 556 OFFCURVE",
"291 556 CURVE SMOOTH"
);
}
);
width = 720;
},
{
components = (
{
name = U;
transform = "{1, 0, 0, 1, 0, 0}";
}
);
layerId = "99EB5860-B45A-4B60-BB0B-F826C8F71D42";
name = Bold;
paths = (
{
closed = 1;
nodes = (
"538 698 OFFCURVE",
"576 731 OFFCURVE",
"576 789 CURVE SMOOTH",
"576 847 OFFCURVE",
"538 880 OFFCURVE",
"471 880 CURVE SMOOTH",
"406 880 OFFCURVE",
"369 847 OFFCURVE",
"369 789 CURVE SMOOTH",
"369 731 OFFCURVE",
"406 698 OFFCURVE",
"471 698 CURVE SMOOTH"
);
},
{
closed = 1;
nodes = (
"301 698 OFFCURVE",
"339 731 OFFCURVE",
"339 789 CURVE SMOOTH",
"339 847 OFFCURVE",
"301 880 OFFCURVE",
"234 880 CURVE SMOOTH",
"169 880 OFFCURVE",
"132 847 OFFCURVE",
"132 789 CURVE SMOOTH",
"132 731 OFFCURVE",
"169 698 OFFCURVE",
"234 698 CURVE SMOOTH"
);
}
);
width = 708;
}
);
},
{
color = 3;
glyphname = Ydieresis.titl;
lastChange = "2015-02-07 11:35:54 +0000";
layers = (
{
components = (
{
name = Y;
transform = "{1, 0, 0, 1, 0, 0}";
}
);
layerId = "1C7CD022-87C7-4E11-B656-E47B18819458";
name = Light;
paths = (
{
closed = 1;
nodes = (
"331 620 OFFCURVE",
"342 631 OFFCURVE",
"342 645 CURVE SMOOTH",
"342 659 OFFCURVE",
"331 670 OFFCURVE",
"317 670 CURVE SMOOTH",
"303 670 OFFCURVE",
"292 659 OFFCURVE",
"292 645 CURVE SMOOTH",
"292 631 OFFCURVE",
"303 620 OFFCURVE",
"317 620 CURVE SMOOTH"
);
},
{
closed = 1;
nodes = (
"207 620 OFFCURVE",
"218 631 OFFCURVE",
"218 645 CURVE SMOOTH",
"218 659 OFFCURVE",
"207 670 OFFCURVE",
"193 670 CURVE SMOOTH",
"179 670 OFFCURVE",
"168 659 OFFCURVE",
"168 645 CURVE SMOOTH",
"168 631 OFFCURVE",
"179 620 OFFCURVE",
"193 620 CURVE SMOOTH"
);
}
);
width = 512;
},
{
components = (
{
name = Y;
transform = "{1, 0, 0, 1, 0, 0}";
}
);
layerId = "4A17B37A-CBFD-40E5-9E02-2080A0E1F76C";
name = Regular;
paths = (
{
closed = 1;
nodes = (
"380 556 OFFCURVE",
"406 582 OFFCURVE",
"406 613 CURVE SMOOTH",
"406 644 OFFCURVE",
"380 670 OFFCURVE",
"349 670 CURVE SMOOTH",
"318 670 OFFCURVE",
"292 644 OFFCURVE",
"292 613 CURVE SMOOTH",
"292 582 OFFCURVE",
"318 556 OFFCURVE",
"349 556 CURVE SMOOTH"
);
},
{
closed = 1;
nodes = (
"254 556 OFFCURVE",
"280 582 OFFCURVE",
"280 613 CURVE SMOOTH",
"280 644 OFFCURVE",
"254 670 OFFCURVE",
"223 670 CURVE SMOOTH",
"192 670 OFFCURVE",
"166 644 OFFCURVE",
"166 613 CURVE SMOOTH",
"166 582 OFFCURVE",
"192 556 OFFCURVE",
"223 556 CURVE SMOOTH"
);
}
);
width = 572;
},
{
components = (
{
name = Y;
transform = "{1, 0, 0, 1, 0, 0}";
}
);
layerId = "99EB5860-B45A-4B60-BB0B-F826C8F71D42";
name = Bold;
paths = (
{
closed = 1;
nodes = (
"540 698 OFFCURVE",
"578 731 OFFCURVE",
"578 789 CURVE SMOOTH",
"578 847 OFFCURVE",
"540 880 OFFCURVE",
"473 880 CURVE SMOOTH",
"408 880 OFFCURVE",
"371 847 OFFCURVE",
"371 789 CURVE SMOOTH",
"371 731 OFFCURVE",
"408 698 OFFCURVE",
"473 698 CURVE SMOOTH"
);
},
{
closed = 1;
nodes = (
"303 698 OFFCURVE",
"341 731 OFFCURVE",
"341 789 CURVE SMOOTH",
"341 847 OFFCURVE",
"303 880 OFFCURVE",
"236 880 CURVE SMOOTH",
"171 880 OFFCURVE",
"134 847 OFFCURVE",
"134 789 CURVE SMOOTH",
"134 731 OFFCURVE",
"171 698 OFFCURVE",
"236 698 CURVE SMOOTH"
);
}
);
width = 713;
}
);
},
{
color = 3;
glyphname = a;
lastChange = "2015-02-07 11:35:54 +0000";
layers = (
{
anchors = (
{
name = ogonek;
position = "{538, 0}";
},
{
name = top;
position = "{276, 500}";
}
);
layerId = "4A17B37A-CBFD-40E5-9E02-2080A0E1F76C";
name = Regular;
paths = (
{
closed = 1;
nodes = (
"171 510 OFFCURVE",
"92 462 OFFCURVE",
"66 388 CURVE",
"125 345 LINE",
"152 408 OFFCURVE",
"202 440 OFFCURVE",
"268 440 CURVE SMOOTH",
"343 440 OFFCURVE",
"385 396 OFFCURVE",
"385 330 CURVE SMOOTH",
"385 112 LINE",
"385 102 LINE SMOOTH",
"385 16 OFFCURVE",
"419 -10 OFFCURVE",
"478 -10 CURVE SMOOTH",
"503 -10 OFFCURVE",
"524 -5 OFFCURVE",
"538 0 CURVE",
"543 63 LINE",
"531 60 OFFCURVE",
"516 58 OFFCURVE",
"503 58 CURVE SMOOTH",
"475 58 OFFCURVE",
"465 70 OFFCURVE",
"465 94 CURVE SMOOTH",
"465 340 LINE SMOOTH",
"465 456 OFFCURVE",
"382 510 OFFCURVE",
"268 510 CURVE SMOOTH"
);
},
{
closed = 1;
nodes = (
"252 280 LINE SMOOTH",
"123 258 OFFCURVE",
"57 199 OFFCURVE",
"57 124 CURVE SMOOTH",
"57 34 OFFCURVE",
"133 -10 OFFCURVE",
"227 -10 CURVE SMOOTH",
"315 -10 OFFCURVE",
"407 42 OFFCURVE",
"407 125 CURVE",
"385 168 LINE",
"385 102 OFFCURVE",
"311 60 OFFCURVE",
"231 60 CURVE SMOOTH",
"174 60 OFFCURVE",
"140 82 OFFCURVE",
"140 124 CURVE SMOOTH",
"140 171 OFFCURVE",
"185 198 OFFCURVE",
"273 216 CURVE SMOOTH",
"431 245 LINE",
"420 308 LINE"
);
}
);
width = 566;
},
{
anchors = (
{
name = ogonek;
position = "{579, 10}";
},
{
name = top;
position = "{277, 500}";
}
);
layerId = "99EB5860-B45A-4B60-BB0B-F826C8F71D42";
name = Bold;
paths = (
{
closed = 1;
nodes = (
"115 510 OFFCURVE",
"32 441 OFFCURVE",
"22 329 CURVE",
"212 300 LINE",
"214 349 OFFCURVE",
"237 361 OFFCURVE",
"265 361 CURVE SMOOTH",
"294 361 OFFCURVE",
"310 343 OFFCURVE",
"310 312 CURVE SMOOTH",
"310 112 LINE",
"342 117 LINE",
"342 32 OFFCURVE",
"407 -10 OFFCURVE",
"505 -10 CURVE SMOOTH",
"530 -10 OFFCURVE",
"555 -4 OFFCURVE",
"579 10 CURVE",
"597 127 LINE",
"591 124 OFFCURVE",
"583 123 OFFCURVE",
"572 123 CURVE SMOOTH",
"550 123 OFFCURVE",
"538 136 OFFCURVE",
"538 164 CURVE SMOOTH",
"538 304 LINE SMOOTH",
"538 441 OFFCURVE",
"457 510 OFFCURVE",
"278 510 CURVE SMOOTH"
);
},
{
closed = 1;
nodes = (
"211 270 LINE SMOOTH",
"69 239 OFFCURVE",
"16 192 OFFCURVE",
"16 109 CURVE SMOOTH",
"16 33 OFFCURVE",
"65 -10 OFFCURVE",
"170 -10 CURVE SMOOTH",
"312 -10 OFFCURVE",
"372 74 OFFCURVE",
"372 164 CURVE",
"310 164 LINE",
"310 131 OFFCURVE",
"291 115 OFFCURVE",
"267 115 CURVE SMOOTH",
"248 115 OFFCURVE",
"232 126 OFFCURVE",
"232 150 CURVE SMOOTH",
"232 175 OFFCURVE",
"249 194 OFFCURVE",
"277 202 CURVE SMOOTH",
"360 226 LINE",
"342 299 LINE"
);
}
);
width = 588;
},
{
anchors = (
{
name = ogonek;
position = "{515, -1}";
},
{
name = top;
position = "{242, 500}";
}
);
layerId = "1C7CD022-87C7-4E11-B656-E47B18819458";
name = Light;
paths = (
{
closed = 1;
nodes = (
"148 510 OFFCURVE",
"87 471 OFFCURVE",
"56 388 CURVE",
"69 378 LINE",
"99 462 OFFCURVE",
"157 496 OFFCURVE",
"248 496 CURVE SMOOTH",
"351 496 OFFCURVE",
"407 441 OFFCURVE",
"407 348 CURVE SMOOTH",
"407 113 LINE",
"407 82 LINE SMOOTH",
"407 4 OFFCURVE",
"448 -10 OFFCURVE",
"479 -10 CURVE SMOOTH",
"495 -10 OFFCURVE",
"506 -7 OFFCURVE",
"515 -1 CURVE",
"516 13 LINE",
"507 6 OFFCURVE",
"493 4 OFFCURVE",
"478 4 CURVE SMOOTH",
"445 4 OFFCURVE",
"423 27 OFFCURVE",
"423 76 CURVE SMOOTH",
"423 348 LINE SMOOTH",
"423 453 OFFCURVE",
"361 510 OFFCURVE",
"248 510 CURVE SMOOTH"
);
},
{
closed = 1;
nodes = (
"230 253 LINE SMOOTH",
"100 229 OFFCURVE",
"46 187 OFFCURVE",
"46 108 CURVE SMOOTH",
"46 34 OFFCURVE",
"104 -10 OFFCURVE",
"202 -10 CURVE SMOOTH",
"300 -10 OFFCURVE",
"415 37 OFFCURVE",
"415 140 CURVE",
"407 151 LINE",
"407 47 OFFCURVE",
"285 4 OFFCURVE",
"207 4 CURVE SMOOTH",
"116 4 OFFCURVE",
"62 43 OFFCURVE",
"62 108 CURVE SMOOTH",
"62 175 OFFCURVE",
"110 217 OFFCURVE",
"241 241 CURVE SMOOTH",
"414 273 LINE",
"412 287 LINE"
);
}
);
width = 517;
},
{
anchors = (
{
name = ogonek;
position = "{543, 4}";
},
{
name = top;
position = "{266, 500}";
}
);
associatedMasterId = "4A17B37A-CBFD-40E5-9E02-2080A0E1F76C";
background = {
anchors = (
{
name = ogonek;
position = "{543, 4}";
},
{
name = top;
position = "{266, 500}";
}
);
paths = (
{
closed = 1;
nodes = (
"139.18 510 OFFCURVE",
"58.66 454.02 OFFCURVE",
"38.74 365.58 CURVE",
"147.52 327.9 LINE",
"165.4 385.58 OFFCURVE",
"205.9 409.98 OFFCURVE",
"256.32 409.98 CURVE SMOOTH",
"313.84 409.98 OFFCURVE",
"345.96 375.86 OFFCURVE",
"345.96 323.16 CURVE SMOOTH",
"345.96 112 LINE",
"358.12 107.7 LINE SMOOTH",
"358.12 22.08 OFFCURVE",
"403.9 -10 OFFCURVE",
"477.72 -10 CURVE SMOOTH",
"502.72 -10 OFFCURVE",
"525.24 -4.62 OFFCURVE",
"543.04 3.8 CURVE",
"552.98 87.32 LINE",
"543.26 84.32 OFFCURVE",
"530.92 82.7 OFFCURVE",
"518.68 82.7 CURVE SMOOTH",
"492.96 82.7 OFFCURVE",
"482.2 95.08 OFFCURVE",
"482.2 120.6 CURVE SMOOTH",
"482.2 326.32 LINE SMOOTH",
"482.2 450.3 OFFCURVE",
"399.96 510 OFFCURVE",
"261.26 510 CURVE SMOOTH"
);
},
{
closed = 1;
nodes = (
"225.88 276.2 LINE SMOOTH",
"91.94 250.78 OFFCURVE",
"30.88 196.34 OFFCURVE",
"30.88 118.3 CURVE SMOOTH",
"30.88 33.62 OFFCURVE",
"96.62 -10 OFFCURVE",
"194.8 -10 CURVE SMOOTH",
"303.32 -10 OFFCURVE",
"383.16 54.16 OFFCURVE",
"383.16 139.82 CURVE",
"345.96 166.48 LINE",
"345.96 113.02 OFFCURVE",
"292.86 80.9 OFFCURVE",
"234.14 80.9 CURVE SMOOTH",
"191.58 80.9 OFFCURVE",
"164.42 98.72 OFFCURVE",
"164.42 133.88 CURVE SMOOTH",
"164.42 172.52 OFFCURVE",
"198.78 196.48 OFFCURVE",
"263.98 210.68 CURVE SMOOTH",
"393.48 237.78 LINE",
"379.82 304.58 LINE"
);
}
);
};
layerId = "39F793B2-4349-449C-BF11-D288AA46F75A";
name = "Regular {137,5}";
paths = (
{
closed = 1;
nodes = (
"133 510 OFFCURVE",
"58 456 OFFCURVE",
"37 371 CURVE",
"146 325 LINE",
"161 388 OFFCURVE",
"203 410 OFFCURVE",
"261 410 CURVE SMOOTH",
"315 410 OFFCURVE",
"346 376 OFFCURVE",
"346 323 CURVE SMOOTH",
"346 112 LINE",
"358 108 LINE",
"358 22 OFFCURVE",
"404 -10 OFFCURVE",
"478 -10 CURVE SMOOTH",
"503 -10 OFFCURVE",
"525 -5 OFFCURVE",
"543 4 CURVE",
"553 87 LINE",
"543 84 OFFCURVE",
"531 83 OFFCURVE",
"519 83 CURVE SMOOTH",
"493 83 OFFCURVE",
"482 95 OFFCURVE",
"482 121 CURVE SMOOTH",
"482 326 LINE SMOOTH",
"482 450 OFFCURVE",
"394 510 OFFCURVE",
"255 510 CURVE SMOOTH"
);
},
{
closed = 1;
nodes = (
"226 276 LINE SMOOTH",
"92 251 OFFCURVE",
"31 196 OFFCURVE",
"31 118 CURVE SMOOTH",
"31 34 OFFCURVE",
"91 -10 OFFCURVE",
"186 -10 CURVE SMOOTH",
"307 -10 OFFCURVE",
"383 44 OFFCURVE",
"383 140 CURVE",
"346 163 LINE",
"346 110 OFFCURVE",
"281 83 OFFCURVE",
"229 83 CURVE SMOOTH",
"193 83 OFFCURVE",
"172 100 OFFCURVE",
"172 132 CURVE SMOOTH",
"172 165 OFFCURVE",
"195 181 OFFCURVE",
"239 191 CURVE SMOOTH",
"394 226 LINE",
"380 305 LINE"
);
}
);
width = 560;
}
);
leftKerningGroup = a;
rightKerningGroup = a;
unicode = 0061;
},
{
color = 3;
glyphname = aogonek;
lastChange = "2015-02-07 11:35:54 +0000";
layers = (
{
guideLines = (
{
angle = 90;
position = "{543, 188}";
}
);
layerId = "4A17B37A-CBFD-40E5-9E02-2080A0E1F76C";
name = Regular;
paths = (
{
closed = 1;
nodes = (
"171 510 OFFCURVE",
"92 462 OFFCURVE",
"66 388 CURVE",
"125 345 LINE",
"152 408 OFFCURVE",
"202 440 OFFCURVE",
"268 440 CURVE SMOOTH",
"343 440 OFFCURVE",
"385 396 OFFCURVE",
"385 330 CURVE SMOOTH",
"385 128 LINE",
"385 112 LINE SMOOTH",
"385 16 OFFCURVE",
"449 -10 OFFCURVE",
"488 -10 CURVE SMOOTH",
"503 -10 OFFCURVE",
"524 -5 OFFCURVE",
"538 0 CURVE",
"543 63 LINE",
"531 60 OFFCURVE",
"516 58 OFFCURVE",
"503 58 CURVE SMOOTH",
"475 58 OFFCURVE",
"465 70 OFFCURVE",
"465 94 CURVE SMOOTH",
"465 340 LINE SMOOTH",
"465 456 OFFCURVE",
"382 510 OFFCURVE",
"268 510 CURVE SMOOTH"
);
},
{
closed = 1;
nodes = (
"403 -6 OFFCURVE",
"349 -49 OFFCURVE",
"349 -119 CURVE SMOOTH",
"349 -177 OFFCURVE",
"394 -215 OFFCURVE",
"466 -215 CURVE SMOOTH",
"495 -215 OFFCURVE",
"524 -209 OFFCURVE",
"543 -197 CURVE",
"527 -146 LINE",
"511 -156 OFFCURVE",
"489 -158 OFFCURVE",
"472 -158 CURVE SMOOTH",
"434 -158 OFFCURVE",
"414 -138 OFFCURVE",
"414 -105 CURVE SMOOTH",
"414 -65 OFFCURVE",
"440 -30 OFFCURVE",
"538 0 CURVE",
"492 26 LINE"
);
},
{
closed = 1;
nodes = (
"252 280 LINE SMOOTH",
"123 258 OFFCURVE",
"57 199 OFFCURVE",
"57 124 CURVE SMOOTH",
"57 34 OFFCURVE",
"133 -10 OFFCURVE",
"227 -10 CURVE SMOOTH",
"315 -10 OFFCURVE",
"407 42 OFFCURVE",
"407 125 CURVE",
"385 168 LINE",
"385 102 OFFCURVE",
"311 60 OFFCURVE",
"231 60 CURVE SMOOTH",
"174 60 OFFCURVE",
"140 82 OFFCURVE",
"140 124 CURVE SMOOTH",
"140 171 OFFCURVE",
"185 198 OFFCURVE",
"273 216 CURVE SMOOTH",
"431 245 LINE",
"420 308 LINE"
);
}
);
width = 566;
},
{
guideLines = (
{
angle = 90;
position = "{597, 127}";
}
);
layerId = "99EB5860-B45A-4B60-BB0B-F826C8F71D42";
leftMetricsKey = "=a";
rightMetricsKey = "=a";
name = Bold;
paths = (
{
closed = 1;
nodes = (
"115 510 OFFCURVE",
"32 441 OFFCURVE",
"22 329 CURVE",
"212 300 LINE",
"214 349 OFFCURVE",
"237 361 OFFCURVE",
"265 361 CURVE SMOOTH",
"294 361 OFFCURVE",
"310 343 OFFCURVE",
"310 312 CURVE SMOOTH",
"310 112 LINE",
"356 126 LINE",
"356 56 OFFCURVE",
"401 9 OFFCURVE",
"505 9 CURVE SMOOTH",
"530 9 OFFCURVE",
"555 5 OFFCURVE",
"579 5 CURVE",
"597 127 LINE",
"591 124 OFFCURVE",
"583 123 OFFCURVE",
"572 123 CURVE SMOOTH",
"550 123 OFFCURVE",
"538 136 OFFCURVE",
"538 164 CURVE SMOOTH",
"538 304 LINE SMOOTH",
"538 441 OFFCURVE",
"457 510 OFFCURVE",
"278 510 CURVE SMOOTH"
);
},
{
closed = 1;
nodes = (
"379 27 OFFCURVE",
"321 -17 OFFCURVE",
"321 -90 CURVE SMOOTH",
"321 -180 OFFCURVE",
"390 -215 OFFCURVE",
"473 -215 CURVE SMOOTH",
"523 -215 OFFCURVE",
"559 -209 OFFCURVE",
"591 -189 CURVE",
"564 -86 LINE",
"554 -92 OFFCURVE",
"539 -94 OFFCURVE",
"524 -94 CURVE SMOOTH",
"493 -94 OFFCURVE",
"475 -80 OFFCURVE",
"475 -56 CURVE SMOOTH",
"475 -18 OFFCURVE",
"511 -1 OFFCURVE",
"579 5 CURVE",
"481 27 LINE"
);
},
{
closed = 1;
nodes = (
"211 270 LINE SMOOTH",
"69 239 OFFCURVE",
"16 192 OFFCURVE",
"16 109 CURVE SMOOTH",
"16 33 OFFCURVE",
"65 -10 OFFCURVE",
"170 -10 CURVE SMOOTH",
"312 -10 OFFCURVE",
"372 74 OFFCURVE",
"372 164 CURVE",
"310 164 LINE",
"310 131 OFFCURVE",
"291 115 OFFCURVE",
"267 115 CURVE SMOOTH",
"248 115 OFFCURVE",
"232 126 OFFCURVE",
"232 150 CURVE SMOOTH",
"232 175 OFFCURVE",
"249 194 OFFCURVE",
"277 202 CURVE SMOOTH",
"360 226 LINE",
"342 299 LINE"
);
}
);
width = 588;
},
{
guideLines = (
{
angle = 270;
position = "{516, 13}";
}
);
layerId = "1C7CD022-87C7-4E11-B656-E47B18819458";
name = Light;
paths = (
{
closed = 1;
nodes = (
"148 510 OFFCURVE",
"87 471 OFFCURVE",
"56 388 CURVE",
"69 378 LINE",
"100 459 OFFCURVE",
"157 496 OFFCURVE",
"248 496 CURVE SMOOTH",
"351 496 OFFCURVE",
"407 441 OFFCURVE",
"407 348 CURVE SMOOTH",
"407 112 LINE",
"407 82 LINE SMOOTH",
"407 4 OFFCURVE",
"448 -10 OFFCURVE",
"479 -10 CURVE SMOOTH",
"479 -10 OFFCURVE",
"515 -1 OFFCURVE",
"515 -1 CURVE",
"516 13 LINE",
"507 6 OFFCURVE",
"493 4 OFFCURVE",
"478 4 CURVE SMOOTH",
"445 4 OFFCURVE",
"423 27 OFFCURVE",
"423 76 CURVE SMOOTH",
"423 348 LINE SMOOTH",
"423 453 OFFCURVE",
"361 510 OFFCURVE",
"248 510 CURVE SMOOTH"
);
},
{
closed = 1;
nodes = (
"401 -32 OFFCURVE",
"358 -70 OFFCURVE",
"358 -126 CURVE SMOOTH",
"358 -174 OFFCURVE",
"398 -202 OFFCURVE",
"446 -202 CURVE SMOOTH",
"482 -202 OFFCURVE",
"499 -196 OFFCURVE",
"515 -185 CURVE",
"509 -172 LINE",
"495 -183 OFFCURVE",
"480 -188 OFFCURVE",
"446 -188 CURVE SMOOTH",
"406 -188 OFFCURVE",
"373 -165 OFFCURVE",
"373 -126 CURVE SMOOTH",
"373 -73 OFFCURVE",
"416 -43 OFFCURVE",
"515 -1 CURVE",
"509 5 LINE"
);
},
{
closed = 1;
nodes = (
"230 253 LINE SMOOTH",
"100 229 OFFCURVE",
"46 187 OFFCURVE",
"46 108 CURVE SMOOTH",
"46 34 OFFCURVE",
"104 -10 OFFCURVE",
"202 -10 CURVE SMOOTH",
"300 -10 OFFCURVE",
"415 37 OFFCURVE",
"415 140 CURVE",
"407 151 LINE",
"407 47 OFFCURVE",
"285 4 OFFCURVE",
"207 4 CURVE SMOOTH",
"116 4 OFFCURVE",
"62 43 OFFCURVE",
"62 108 CURVE SMOOTH",
"62 175 OFFCURVE",
"110 217 OFFCURVE",
"241 241 CURVE SMOOTH",
"414 273 LINE",
"412 287 LINE"
);
}
);
width = 517;
},
{
associatedMasterId = "4A17B37A-CBFD-40E5-9E02-2080A0E1F76C";
background = {
paths = (
{
closed = 1;
nodes = (
"139 510 OFFCURVE",
"59 454 OFFCURVE",
"39 366 CURVE",
"148 328 LINE",
"165 386 OFFCURVE",
"205 410 OFFCURVE",
"257 410 CURVE SMOOTH",
"314 410 OFFCURVE",
"346 376 OFFCURVE",
"346 323 CURVE SMOOTH",
"346 122 LINE",
"364 117 LINE SMOOTH",
"364 31 OFFCURVE",
"420 -3 OFFCURVE",
"484 -3 CURVE SMOOTH",
"503 -3 OFFCURVE",
"526 -1 OFFCURVE",
"543 2 CURVE",
"553 87 LINE",
"544 84 OFFCURVE",
"531 83 OFFCURVE",
"519 83 CURVE SMOOTH",
"493 83 OFFCURVE",
"482 95 OFFCURVE",
"482 121 CURVE SMOOTH",
"482 326 LINE SMOOTH",
"482 450 OFFCURVE",
"400 510 OFFCURVE",
"262 510 CURVE SMOOTH"
);
},
{
closed = 1;
nodes = (
"384 7 OFFCURVE",
"328 -37 OFFCURVE",
"328 -108 CURVE SMOOTH",
"328 -178 OFFCURVE",
"382 -215 OFFCURVE",
"458 -215 CURVE SMOOTH",
"495 -215 OFFCURVE",
"527 -209 OFFCURVE",
"551 -194 CURVE",
"531 -123 LINE",
"517 -132 OFFCURVE",
"498 -134 OFFCURVE",
"481 -134 CURVE SMOOTH",
"446 -134 OFFCURVE",
"427 -116 OFFCURVE",
"427 -86 CURVE SMOOTH",
"427 -47 OFFCURVE",
"457 -19 OFFCURVE",
"543 2 CURVE",
"477 26 LINE"
);
},
{
closed = 1;
nodes = (
"226 276 LINE SMOOTH",
"92 251 OFFCURVE",
"31 196 OFFCURVE",
"31 118 CURVE SMOOTH",
"31 34 OFFCURVE",
"97 -10 OFFCURVE",
"195 -10 CURVE SMOOTH",
"303 -10 OFFCURVE",
"383 54 OFFCURVE",
"383 140 CURVE",
"346 166 LINE",
"346 113 OFFCURVE",
"293 81 OFFCURVE",
"234 81 CURVE SMOOTH",
"192 81 OFFCURVE",
"165 99 OFFCURVE",
"165 134 CURVE SMOOTH",
"165 173 OFFCURVE",
"199 196 OFFCURVE",
"264 211 CURVE SMOOTH",
"394 238 LINE",
"380 305 LINE"
);
}
);
};
guideLines = (
{
angle = 90;
position = "{543, 87}";
}
);
layerId = "E85FF441-9BCE-4815-929A-81DAB2A5E2AC";
leftMetricsKey = "=a";
rightMetricsKey = "=a";
name = "Regular {137,5}";
paths = (
{
closed = 1;
nodes = (
"133 510 OFFCURVE",
"58 456 OFFCURVE",
"37 371 CURVE",
"146 325 LINE",
"161 388 OFFCURVE",
"203 410 OFFCURVE",
"261 410 CURVE SMOOTH",
"315 410 OFFCURVE",
"346 376 OFFCURVE",
"346 323 CURVE SMOOTH",
"346 124 LINE",
"365 118 LINE",
"365 38 OFFCURVE",
"404 4 OFFCURVE",
"478 4 CURVE SMOOTH",
"503 4 OFFCURVE",
"507 4 OFFCURVE",
"543 4 CURVE",
"553 87 LINE",
"543 84 OFFCURVE",
"531 83 OFFCURVE",
"519 83 CURVE SMOOTH",
"493 83 OFFCURVE",
"482 95 OFFCURVE",
"482 121 CURVE SMOOTH",
"482 326 LINE SMOOTH",
"482 450 OFFCURVE",
"394 510 OFFCURVE",
"255 510 CURVE SMOOTH"
);
},
{
closed = 1;
nodes = (
"384 7 OFFCURVE",
"328 -37 OFFCURVE",
"328 -108 CURVE SMOOTH",
"328 -178 OFFCURVE",
"382 -215 OFFCURVE",
"458 -215 CURVE SMOOTH",
"495 -215 OFFCURVE",
"527 -209 OFFCURVE",
"551 -194 CURVE",
"531 -123 LINE",
"517 -132 OFFCURVE",
"498 -134 OFFCURVE",
"481 -134 CURVE SMOOTH",
"446 -134 OFFCURVE",
"427 -116 OFFCURVE",
"427 -86 CURVE SMOOTH",
"427 -47 OFFCURVE",
"457 -17 OFFCURVE",
"543 4 CURVE",
"477 26 LINE"
);
},
{
closed = 1;
nodes = (
"226 276 LINE SMOOTH",
"92 251 OFFCURVE",
"31 196 OFFCURVE",
"31 118 CURVE SMOOTH",
"31 34 OFFCURVE",
"91 -10 OFFCURVE",
"186 -10 CURVE SMOOTH",
"307 -10 OFFCURVE",
"383 44 OFFCURVE",
"383 140 CURVE",
"346 163 LINE",
"346 110 OFFCURVE",
"281 83 OFFCURVE",
"229 83 CURVE SMOOTH",
"193 83 OFFCURVE",
"172 100 OFFCURVE",
"172 132 CURVE SMOOTH",
"172 165 OFFCURVE",
"195 181 OFFCURVE",
"239 191 CURVE SMOOTH",
"394 226 LINE",
"380 305 LINE"
);
}
);
width = 560;
}
);
leftKerningGroup = a;
leftMetricsKey = a;
rightKerningGroup = a;
rightMetricsKey = a;
unicode = 0105;
},
{
color = 3;
glyphname = ae;
lastChange = "2015-02-07 11:35:54 +0000";
layers = (
{
layerId = "4A17B37A-CBFD-40E5-9E02-2080A0E1F76C";
name = Regular;
paths = (
{
closed = 1;
nodes = (
"467 510 OFFCURVE",
"399 374 OFFCURVE",
"399 247 CURVE SMOOTH",
"399 96 OFFCURVE",
"471 -10 OFFCURVE",
"614 -10 CURVE SMOOTH",
"722 -10 OFFCURVE",
"779 31 OFFCURVE",
"815 99 CURVE",
"748 134 LINE",
"731 86 OFFCURVE",
"694 60 OFFCURVE",
"619 60 CURVE SMOOTH",
"520 60 OFFCURVE",
"463 131 OFFCURVE",
"463 250 CURVE SMOOTH",
"463 369 OFFCURVE",
"523 440 OFFCURVE",
"612 440 CURVE SMOOTH",
"702 440 OFFCURVE",
"754 368 OFFCURVE",
"751 255 CURVE SMOOTH",
"750 220 LINE",
"827 220 LINE",
"827 255 LINE SMOOTH",
"827 412 OFFCURVE",
"754 510 OFFCURVE",
"613 510 CURVE SMOOTH"
);
},
{
closed = 1;
nodes = (
"243 273 LINE SMOOTH",
"120 257 OFFCURVE",
"57 199 OFFCURVE",
"57 124 CURVE SMOOTH",
"57 42 OFFCURVE",
"122 -10 OFFCURVE",
"220 -10 CURVE SMOOTH",
"338 -10 OFFCURVE",
"434 54 OFFCURVE",
"434 179 CURVE",
"392 198 LINE",
"392 112 OFFCURVE",
"316 60 OFFCURVE",
"234 60 CURVE SMOOTH",
"173 60 OFFCURVE",
"140 81 OFFCURVE",
"140 124 CURVE SMOOTH",
"140 171 OFFCURVE",
"176 195 OFFCURVE",
"264 209 CURVE SMOOTH",
"434 236 LINE",
"423 296 LINE"
);
},
{
closed = 1;
nodes = (
"175 510 OFFCURVE",
"95 465 OFFCURVE",
"66 388 CURVE",
"125 345 LINE",
"152 408 OFFCURVE",
"203 440 OFFCURVE",
"269 440 CURVE SMOOTH",
"348 440 OFFCURVE",
"392 396 OFFCURVE",
"392 330 CURVE SMOOTH",
"392 181 LINE",
"460 188 LINE",
"460 290 LINE SMOOTH",
"460 435 OFFCURVE",
"386 510 OFFCURVE",
"271 510 CURVE SMOOTH"
);
},
{
closed = 1;
nodes = (
"433 291 LINE",
"433 220 LINE",
"790 220 LINE",
"790 291 LINE"
);
}
);
width = 886;
},
{
layerId = "99EB5860-B45A-4B60-BB0B-F826C8F71D42";
leftMetricsKey = "=a";
rightMetricsKey = "=e";
name = Bold;
paths = (
{
closed = 1;
nodes = (
"450 510 OFFCURVE",
"370 386 OFFCURVE",
"370 250 CURVE SMOOTH",
"370 94 OFFCURVE",
"440 -10 OFFCURVE",
"619 -10 CURVE SMOOTH",
"721 -10 OFFCURVE",
"821 41 OFFCURVE",
"844 135 CURVE",
"659 186 LINE",
"652 155 OFFCURVE",
"637 140 OFFCURVE",
"608 140 CURVE SMOOTH",
"562 140 OFFCURVE",
"538 156 OFFCURVE",
"538 246 CURVE SMOOTH",
"538 333 OFFCURVE",
"556 360 OFFCURVE",
"593 360 CURVE SMOOTH",
"628 360 OFFCURVE",
"639 333 OFFCURVE",
"639 249 CURVE SMOOTH",
"639 206 LINE",
"855 206 LINE",
"856 236 LINE SMOOTH",
"862 412 OFFCURVE",
"755 510 OFFCURVE",
"607 510 CURVE SMOOTH"
);
},
{
closed = 1;
nodes = (
"202 264 LINE SMOOTH",
"69 236 OFFCURVE",
"16 198 OFFCURVE",
"16 107 CURVE SMOOTH",
"16 39 OFFCURVE",
"62 -10 OFFCURVE",
"179 -10 CURVE SMOOTH",
"361 -10 OFFCURVE",
"440 84 OFFCURVE",
"440 179 CURVE",
"311 161 LINE",
"311 118 OFFCURVE",
"286 106 OFFCURVE",
"264 106 CURVE SMOOTH",
"239 106 OFFCURVE",
"227 122 OFFCURVE",
"227 146 CURVE SMOOTH",
"227 176 OFFCURVE",
"243 192 OFFCURVE",
"278 200 CURVE SMOOTH",
"361 220 LINE",
"343 294 LINE"
);
},
{
closed = 1;
nodes = (
"100 510 OFFCURVE",
"31 436 OFFCURVE",
"22 330 CURVE",
"212 300 LINE",
"216 348 OFFCURVE",
"231 362 OFFCURVE",
"265 362 CURVE SMOOTH",
"297 362 OFFCURVE",
"311 345 OFFCURVE",
"311 312 CURVE SMOOTH",
"311 112 LINE",
"499 148 LINE",
"499 304 LINE SMOOTH",
"499 431 OFFCURVE",
"399 510 OFFCURVE",
"257 510 CURVE SMOOTH"
);
},
{
closed = 1;
nodes = (
"458 285 LINE",
"458 206 LINE",
"749 206 LINE",
"749 285 LINE"
);
}
);
width = 876;
},
{
layerId = "1C7CD022-87C7-4E11-B656-E47B18819458";
name = Light;
paths = (
{
closed = 1;
nodes = (
"487 510 OFFCURVE",
"407 413 OFFCURVE",
"407 250 CURVE SMOOTH",
"407 87 OFFCURVE",
"488 -10 OFFCURVE",
"616 -10 CURVE SMOOTH",
"717 -10 OFFCURVE",
"778 35 OFFCURVE",
"809 109 CURVE",
"796 116 LINE",
"767 46 OFFCURVE",
"711 4 OFFCURVE",
"616 4 CURVE SMOOTH",
"497 4 OFFCURVE",
"422 96 OFFCURVE",
"422 250 CURVE SMOOTH",
"422 404 OFFCURVE",
"496 496 OFFCURVE",
"615 496 CURVE SMOOTH",
"742 496 OFFCURVE",
"804 419 OFFCURVE",
"804 262 CURVE SMOOTH",
"804 257 LINE",
"818 257 LINE",
"818 264 LINE SMOOTH",
"818 429 OFFCURVE",
"747 510 OFFCURVE",
"615 510 CURVE SMOOTH"
);
},
{
closed = 1;
nodes = (
"230 253 LINE SMOOTH",
"99 240 OFFCURVE",
"46 187 OFFCURVE",
"46 108 CURVE SMOOTH",
"46 30 OFFCURVE",
"110 -10 OFFCURVE",
"202 -10 CURVE SMOOTH",
"300 -10 OFFCURVE",
"418 37 OFFCURVE",
"418 180 CURVE",
"407 188 LINE",
"407 44 OFFCURVE",
"285 4 OFFCURVE",
"207 4 CURVE SMOOTH",
"125 4 OFFCURVE",
"62 38 OFFCURVE",
"62 108 CURVE SMOOTH",
"62 175 OFFCURVE",
"109 229 OFFCURVE",
"241 241 CURVE SMOOTH",
"414 257 LINE",
"412 271 LINE"
);
},
{
closed = 1;
nodes = (
"148 510 OFFCURVE",
"87 471 OFFCURVE",
"56 388 CURVE",
"69 378 LINE",
"100 459 OFFCURVE",
"157 496 OFFCURVE",
"248 496 CURVE SMOOTH",
"351 496 OFFCURVE",
"407 441 OFFCURVE",
"407 345 CURVE SMOOTH",
"407 172 LINE",
"423 178 LINE",
"423 351 LINE SMOOTH",
"423 453 OFFCURVE",
"361 510 OFFCURVE",
"248 510 CURVE SMOOTH"
);
},
{
closed = 1;
nodes = (
"415 272 LINE",
"415 257 LINE",
"813 257 LINE",
"813 272 LINE"
);
}
);
width = 866;
},
{
associatedMasterId = "4A17B37A-CBFD-40E5-9E02-2080A0E1F76C";
background = {
paths = (
{
closed = 1;
nodes = (
"133 510 OFFCURVE",
"58 456 OFFCURVE",
"37 371 CURVE",
"146 325 LINE",
"161 388 OFFCURVE",
"203 410 OFFCURVE",
"261 410 CURVE SMOOTH",
"315 410 OFFCURVE",
"346 376 OFFCURVE",
"346 323 CURVE SMOOTH",
"346 112 LINE",
"358 108 LINE",
"358 22 OFFCURVE",
"404 -10 OFFCURVE",
"478 -10 CURVE SMOOTH",
"503 -10 OFFCURVE",
"525 -5 OFFCURVE",
"543 4 CURVE",
"553 87 LINE",
"543 84 OFFCURVE",
"531 83 OFFCURVE",
"519 83 CURVE SMOOTH",
"493 83 OFFCURVE",
"482 95 OFFCURVE",
"482 121 CURVE SMOOTH",
"482 326 LINE SMOOTH",
"482 450 OFFCURVE",
"394 510 OFFCURVE",
"255 510 CURVE SMOOTH"
);
},
{
closed = 1;
nodes = (
"226 276 LINE SMOOTH",
"92 251 OFFCURVE",
"31 196 OFFCURVE",
"31 118 CURVE SMOOTH",
"31 34 OFFCURVE",
"91 -10 OFFCURVE",
"186 -10 CURVE SMOOTH",
"307 -10 OFFCURVE",
"383 44 OFFCURVE",
"383 140 CURVE",
"346 163 LINE",
"346 110 OFFCURVE",
"281 83 OFFCURVE",
"229 83 CURVE SMOOTH",
"193 83 OFFCURVE",
"172 100 OFFCURVE",
"172 132 CURVE SMOOTH",
"172 165 OFFCURVE",
"195 181 OFFCURVE",
"239 191 CURVE SMOOTH",
"394 226 LINE",
"380 305 LINE"
);
}
);
};
layerId = "2DE3B94B-D4B3-4990-AED3-596ECEDF97E8";
leftMetricsKey = "=a";
rightMetricsKey = "=e";
name = "Regular {137,5}";
paths = (
{
closed = 1;
nodes = (
"453 510 OFFCURVE",
"377 379 OFFCURVE",
"377 248 CURVE SMOOTH",
"377 95 OFFCURVE",
"452 -10 OFFCURVE",
"609 -10 CURVE SMOOTH",
"730 -10 OFFCURVE",
"803 35 OFFCURVE",
"834 113 CURVE",
"729 154 LINE",
"716 112 OFFCURVE",
"681 90 OFFCURVE",
"618 90 CURVE SMOOTH",
"539 90 OFFCURVE",
"484 131 OFFCURVE",
"484 248 CURVE SMOOTH",
"484 365 OFFCURVE",
"527 410 OFFCURVE",
"607 410 CURVE SMOOTH",
"668 410 OFFCURVE",
"726 381 OFFCURVE",
"726 253 CURVE SMOOTH",
"726 207 LINE",
"841 207 LINE",
"842 246 LINE SMOOTH",
"846 420 OFFCURVE",
"767 510 OFFCURVE",
"613 510 CURVE SMOOTH"
);
},
{
closed = 1;
nodes = (
"226 267 LINE SMOOTH",
"92 244 OFFCURVE",
"31 196 OFFCURVE",
"31 118 CURVE SMOOTH",
"31 34 OFFCURVE",
"97 -10 OFFCURVE",
"195 -10 CURVE SMOOTH",
"344 -10 OFFCURVE",
"432 58 OFFCURVE",
"432 179 CURVE",
"356 179 LINE",
"355 126 OFFCURVE",
"301 83 OFFCURVE",
"231 83 CURVE SMOOTH",
"197 83 OFFCURVE",
"172 96 OFFCURVE",
"172 127 CURVE SMOOTH",
"172 161 OFFCURVE",
"196 174 OFFCURVE",
"239 183 CURVE SMOOTH",
"394 210 LINE",
"380 293 LINE"
);
},
{
closed = 1;
nodes = (
"126 510 OFFCURVE",
"53 454 OFFCURVE",
"32 369 CURVE",
"142 321 LINE",
"155 381 OFFCURVE",
"187 410 OFFCURVE",
"251 410 CURVE SMOOTH",
"322 410 OFFCURVE",
"355 376 OFFCURVE",
"356 323 CURVE SMOOTH",
"356 122 LINE",
"455 219 LINE",
"455 326 LINE SMOOTH",
"455 450 OFFCURVE",
"377 510 OFFCURVE",
"255 510 CURVE SMOOTH"
);
},
{
closed = 1;
nodes = (
"435 292 LINE",
"435 207 LINE",
"782 207 LINE",
"783 292 LINE"
);
}
);
width = 885;
}
);
leftKerningGroup = a;
leftMetricsKey = a;
rightKerningGroup = e;
rightMetricsKey = e;
unicode = 00E6;
},
{
glyphname = b;
lastChange = "2015-02-07 11:35:54 +0000";
layers = (
{
components = (
{
name = bowl;
transform = "{-1, 0, 0, 1, 647, 0}";
}
);
layerId = "4A17B37A-CBFD-40E5-9E02-2080A0E1F76C";
name = Regular;
paths = (
{
closed = 1;
nodes = (
"93 730 LINE",
"93 117 LINE",
"93 0 LINE",
"163 0 LINE",
"170 118 LINE",
"173 166 LINE",
"173 730 LINE"
);
}
);
width = 630;
},
{
components = (
{
name = bowl;
transform = "{-1, 0, 0, 1, 682, 0}";
}
);
layerId = "99EB5860-B45A-4B60-BB0B-F826C8F71D42";
leftMetricsKey = "=n";
rightMetricsKey = "=o+5";
name = Bold;
paths = (
{
closed = 1;
nodes = (
"39 700 LINE",
"39 219 LINE",
"39 0 LINE",
"241 0 LINE",
"249 162 LINE",
"269 219 LINE",
"269 700 LINE"
);
}
);
width = 627;
},
{
components = (
{
disableAlignment = 1;
name = bowl;
transform = "{-1, 0, 0, 1, 658, 0}";
}
);
layerId = "1C7CD022-87C7-4E11-B656-E47B18819458";
name = Light;
paths = (
{
closed = 1;
nodes = (
"85 730 LINE",
"85 101 LINE",
"85 0 LINE",
"101 0 LINE",
"101 173 LINE",
"101 176 LINE",
"101 730 LINE"
);
}
);
width = 585;
}
);
leftKerningGroup = h;
rightKerningGroup = o;
unicode = 0062;
},
{
glyphname = c;
lastChange = "2015-02-07 11:35:54 +0000";
layers = (
{
anchors = (
{
name = bottomC;
position = "{294, 0}";
},
{
name = top;
position = "{296, 500}";
}
);
layerId = "4A17B37A-CBFD-40E5-9E02-2080A0E1F76C";
name = Regular;
paths = (
{
closed = 1;
nodes = (
"153 510 OFFCURVE",
"62 412 OFFCURVE",
"62 250 CURVE SMOOTH",
"62 88 OFFCURVE",
"153 -10 OFFCURVE",
"304 -10 CURVE SMOOTH",
"410 -10 OFFCURVE",
"482 46 OFFCURVE",
"514 138 CURVE",
"442 163 LINE",
"422 97 OFFCURVE",
"375 60 OFFCURVE",
"302 60 CURVE SMOOTH",
"202 60 OFFCURVE",
"142 131 OFFCURVE",
"142 250 CURVE SMOOTH",
"142 369 OFFCURVE",
"202 440 OFFCURVE",
"302 440 CURVE SMOOTH",
"367 440 OFFCURVE",
"412 404 OFFCURVE",
"433 341 CURVE",
"509 377 LINE",
"474 459 OFFCURVE",
"407 510 OFFCURVE",
"304 510 CURVE SMOOTH"
);
}
);
width = 564;
},
{
anchors = (
{
name = bottomC;
position = "{314, 0}";
},
{
name = top;
position = "{297, 500}";
}
);
layerId = "99EB5860-B45A-4B60-BB0B-F826C8F71D42";
leftMetricsKey = "=o";
name = Bold;
paths = (
{
closed = 1;
nodes = (
"121 510 OFFCURVE",
"20 416 OFFCURVE",
"20 250 CURVE SMOOTH",
"20 84 OFFCURVE",
"118 -10 OFFCURVE",
"309 -10 CURVE SMOOTH",
"471 -10 OFFCURVE",
"559 63 OFFCURVE",
"559 147 CURVE",
"353 211 LINE",
"350 168 OFFCURVE",
"337 145 OFFCURVE",
"308 145 CURVE SMOOTH",
"275 145 OFFCURVE",
"251 161 OFFCURVE",
"251 247 CURVE SMOOTH",
"251 330 OFFCURVE",
"269 355 OFFCURVE",
"309 355 CURVE SMOOTH",
"337 355 OFFCURVE",
"351 331.273 OFFCURVE",
"349 278 CURVE",
"561 340 LINE",
"559 421 OFFCURVE",
"499 510 OFFCURVE",
"297 510 CURVE SMOOTH"
);
}
);
width = 576;
},
{
anchors = (
{
name = bottomC;
position = "{258, 0}";
},
{
name = top;
position = "{275, 500}";
}
);
layerId = "1C7CD022-87C7-4E11-B656-E47B18819458";
name = Light;
paths = (
{
closed = 1;
nodes = (
"136 510 OFFCURVE",
"51 412 OFFCURVE",
"51 250 CURVE SMOOTH",
"51 88 OFFCURVE",
"133 -10 OFFCURVE",
"278 -10 CURVE SMOOTH",
"379 -10 OFFCURVE",
"465 47 OFFCURVE",
"482 137 CURVE",
"468 142 LINE",
"454 57 OFFCURVE",
"371 4 OFFCURVE",
"278 4 CURVE SMOOTH",
"143 4 OFFCURVE",
"67 97 OFFCURVE",
"67 250 CURVE SMOOTH",
"67 403 OFFCURVE",
"146 496 OFFCURVE",
"281 496 CURVE SMOOTH",
"375 496 OFFCURVE",
"442 449 OFFCURVE",
"464 366 CURVE",
"478 373 LINE",
"454 461 OFFCURVE",
"380 510 OFFCURVE",
"281 510 CURVE SMOOTH"
);
}
);
width = 524;
}
);
leftKerningGroup = o;
rightKerningGroup = c;
unicode = 0063;
},
{
glyphname = d;
lastChange = "2015-02-07 11:35:54 +0000";
layers = (
{
anchors = (
{
name = center;
position = "{323, 250}";
},
{
name = topright;
position = "{614, 730}";
}
);
components = (
{
name = bowl;
transform = "{1, 0, 0, 1, -17, 0}";
}
);
layerId = "4A17B37A-CBFD-40E5-9E02-2080A0E1F76C";
name = Regular;
paths = (
{
closed = 1;
nodes = (
"457 730 LINE",
"457 123 LINE",
"460 117 LINE",
"467 0 LINE",
"537 0 LINE",
"537 117 LINE",
"537 730 LINE"
);
}
);
width = 630;
},
{
anchors = (
{
name = center;
position = "{310, 250}";
},
{
name = topright;
position = "{643, 700}";
}
);
components = (
{
name = bowl;
transform = "{1, 0, 0, 1, -55, 0}";
}
);
layerId = "99EB5860-B45A-4B60-BB0B-F826C8F71D42";
leftMetricsKey = "=o+5";
name = Bold;
paths = (
{
closed = 1;
nodes = (
"358 700 LINE",
"358 219 LINE",
"369 162 LINE",
"381 0 LINE",
"588 0 LINE",
"588 219 LINE",
"588 700 LINE"
);
}
);
width = 627;
},
{
anchors = (
{
name = center;
position = "{301, 281}";
},
{
name = topright;
position = "{611, 730}";
}
);
components = (
{
disableAlignment = 1;
name = bowl;
transform = "{1, 0, 0, 1, -73, 0}";
}
);
layerId = "1C7CD022-87C7-4E11-B656-E47B18819458";
name = Light;
paths = (
{
closed = 1;
nodes = (
"484 730 LINE",
"484 184 LINE",
"484 175 LINE",
"484 0 LINE",
"500 0 LINE",
"500 101 LINE",
"500 730 LINE"
);
}
);
width = 585;
}
);
leftKerningGroup = o;
rightKerningGroup = d;
rightMetricsKey = "=|n";
unicode = 0064;
},
{
glyphname = eth;
lastChange = "2015-02-07 11:35:54 +0000";
layers = (
{
layerId = "99EB5860-B45A-4B60-BB0B-F826C8F71D42";
name = Bold;
paths = (
{
closed = 1;
nodes = (
"156 717 LINE",
"328 591 OFFCURVE",
"415 521 OFFCURVE",
"415 318 CURVE",
"357 246 LINE",
"357 169 OFFCURVE",
"345 145 OFFCURVE",
"306 145 CURVE SMOOTH",
"269 145 OFFCURVE",
"258 171 OFFCURVE",
"258 246 CURVE SMOOTH",
"258 335 OFFCURVE",
"269 362 OFFCURVE",
"306 362 CURVE SMOOTH",
"345 362 OFFCURVE",
"357 335 OFFCURVE",
"357 246 CURVE",
"427 265 LINE",
"427 395 OFFCURVE",
"414 502 OFFCURVE",
"278 502 CURVE SMOOTH",
"126 502 OFFCURVE",
"27 409 OFFCURVE",
"27 246 CURVE SMOOTH",
"27 83 OFFCURVE",
"127 -10 OFFCURVE",
"289 -10 CURVE SMOOTH",
"491 -10 OFFCURVE",
"572 75 OFFCURVE",
"572 313 CURVE SMOOTH",
"572 543 OFFCURVE",
"435 671 OFFCURVE",
"341 717 CURVE"
);
},
{
closed = 1;
nodes = (
"172 604 LINE",
"183 544 LINE",
"353 573 LINE",
"318 616 LINE"
);
},
{
closed = 1;
nodes = (
"404 635 LINE",
"423 598 LINE",
"582 610 LINE",
"567 670 LINE"
);
}
);
width = 593;
},
{
layerId = "4A17B37A-CBFD-40E5-9E02-2080A0E1F76C";
name = Regular;
paths = (
{
closed = 1;
nodes = (
"205 730 LINE",
"401 626 OFFCURVE",
"457 519 OFFCURVE",
"480 322 CURVE",
"468 238 LINE",
"468 144 OFFCURVE",
"407 60 OFFCURVE",
"302 60 CURVE SMOOTH",
"206 60 OFFCURVE",
"145 126 OFFCURVE",
"145 238 CURVE SMOOTH",
"145 348 OFFCURVE",
"206 415 OFFCURVE",
"307 415 CURVE SMOOTH",
"407 415 OFFCURVE",
"468 348 OFFCURVE",
"468 238 CURVE",
"514 238 LINE",
"514 392 OFFCURVE",
"446 485 OFFCURVE",
"296 485 CURVE SMOOTH",
"163 485 OFFCURVE",
"62 392 OFFCURVE",
"62 238 CURVE SMOOTH",
"62 83 OFFCURVE",
"153 -10 OFFCURVE",
"298 -10 CURVE SMOOTH",
"467 -10 OFFCURVE",
"546 114 OFFCURVE",
"546 288 CURVE SMOOTH",
"546 491 OFFCURVE",
"472 638 OFFCURVE",
"316 730 CURVE"
);
},
{
closed = 1;
nodes = (
"188 594 LINE",
"198 545 LINE",
"419 602 LINE",
"388 638 LINE"
);
},
{
closed = 1;
nodes = (
"388 638 LINE",
"419 602 LINE",
"545 628 LINE",
"531 678 LINE"
);
}
);
width = 620;
},
{
layerId = "1C7CD022-87C7-4E11-B656-E47B18819458";
name = Light;
paths = (
{
closed = 1;
nodes = (
"239 730 LINE",
"381 676 OFFCURVE",
"497 535 OFFCURVE",
"497 290 CURVE",
"498 257 LINE",
"492 95 OFFCURVE",
"416 4 OFFCURVE",
"287 4 CURVE SMOOTH",
"150 4 OFFCURVE",
"67 95 OFFCURVE",
"67 237 CURVE SMOOTH",
"67 379 OFFCURVE",
"151 471 OFFCURVE",
"279 471 CURVE SMOOTH",
"424 471 OFFCURVE",
"498 366 OFFCURVE",
"498 257 CURVE",
"504 281 LINE",
"497 405 OFFCURVE",
"413 485 OFFCURVE",
"279 485 CURVE SMOOTH",
"142 485 OFFCURVE",
"51 388 OFFCURVE",
"51 237 CURVE SMOOTH",
"51 88 OFFCURVE",
"141 -10 OFFCURVE",
"287 -10 CURVE SMOOTH",
"425 -10 OFFCURVE",
"511 85 OFFCURVE",
"511 283 CURVE SMOOTH",
"511 550 OFFCURVE",
"398 672 OFFCURVE",
"270 730 CURVE"
);
},
{
closed = 1;
nodes = (
"224 587 LINE",
"228 574 LINE",
"414 613 LINE",
"406 625 LINE"
);
},
{
closed = 1;
nodes = (
"406 625 LINE",
"414 613 LINE",
"530 638 LINE",
"526 651 LINE"
);
}
);
width = 577;
}
);
unicode = 00F0;
},
{
color = 1;
glyphname = dcroat;
lastChange = "2015-02-07 11:35:54 +0000";
layers = (
{
components = (
{
name = d;
transform = "{1, 0, 0, 1, 0, 0}";
}
);
layerId = "4A17B37A-CBFD-40E5-9E02-2080A0E1F76C";
name = Regular;
paths = (
{
closed = 1;
nodes = (
"300 627 LINE",
"300 566 LINE",
"614 566 LINE",
"614 627 LINE"
);
}
);
width = 629;
},
{
components = (
{
name = d;
transform = "{1, 0, 0, 1, 0, 0}";
}
);
layerId = "99EB5860-B45A-4B60-BB0B-F826C8F71D42";
leftMetricsKey = "=o+5";
name = Bold;
paths = (
{
closed = 1;
nodes = (
"246 640 LINE",
"246 519 LINE",
"664 519 LINE",
"664 640 LINE"
);
}
);
width = 627;
},
{
associatedMasterId = "99EB5860-B45A-4B60-BB0B-F826C8F71D42";
background = {
components = (
{
name = d;
transform = "{1, 0, 0, 1, 334, 0}";
}
);
paths = (
{
closed = 1;
nodes = (
"634 627 LINE",
"634 566 LINE",
"948 566 LINE",
"948 627 LINE"
);
}
);
};
components = (
{
name = d;
transform = "{1, 0, 0, 1, 0, 0}";
}
);
layerId = "F761A027-701B-4886-BE79-5C40867E8DED";
leftMetricsKey = "=o+5";
name = "Bold [201]";
paths = (
{
closed = 1;
nodes = (
"246 629 LINE",
"246 539 LINE",
"674 539 LINE",
"674 629 LINE"
);
}
);
width = 627;
},
{
components = (
{
disableAlignment = 1;
name = d;
transform = "{1, 0, 0, 1, 0, 0}";
}
);
layerId = "1C7CD022-87C7-4E11-B656-E47B18819458";
name = Light;
paths = (
{
closed = 1;
nodes = (
"302 606 LINE",
"302 594 LINE",
"597 594 LINE",
"597 606 LINE"
);
}
);
width = 585;
}
);
leftKerningGroup = o;
rightKerningGroup = d;
unicode = 0111;
},
{
color = 3;
glyphname = e;
lastChange = "2015-02-07 11:35:54 +0000";
layers = (
{
anchors = (
{
name = bottom;
position = "{304, 0}";
},
{
name = ogonek;
position = "{379, 40}";
},
{
name = top;
position = "{295, 500}";
}
);
layerId = "4A17B37A-CBFD-40E5-9E02-2080A0E1F76C";
name = Regular;
paths = (
{
closed = 1;
nodes = (
"412 -10 OFFCURVE",
"474 31 OFFCURVE",
"512 99 CURVE",
"445 134 LINE",
"427 86 OFFCURVE",
"377 60 OFFCURVE",
"304 60 CURVE SMOOTH",
"203 60 OFFCURVE",
"140 131 OFFCURVE",
"140 250 CURVE SMOOTH",
"140 369 OFFCURVE",
"197 440 OFFCURVE",
"298 440 CURVE SMOOTH",
"392 440 OFFCURVE",
"445 370 OFFCURVE",
"447 260 CURVE",
"483 291 LINE",
"114 291 LINE",
"114 220 LINE",
"518 220 LINE",
"520 234 OFFCURVE",
"522 253 OFFCURVE",
"522 276 CURVE SMOOTH",
"522 405 OFFCURVE",
"443 510 OFFCURVE",
"298 510 CURVE SMOOTH",
"147 510 OFFCURVE",
"62 412 OFFCURVE",
"62 250 CURVE SMOOTH",
"62 88 OFFCURVE",
"153 -10 OFFCURVE",
"304 -10 CURVE SMOOTH"
);
}
);
width = 581;
},
{
anchors = (
{
name = bottom;
position = "{294, 0}";
},
{
name = ogonek;
position = "{348, 36}";
},
{
name = top;
position = "{296, 500}";
}
);
layerId = "99EB5860-B45A-4B60-BB0B-F826C8F71D42";
leftMetricsKey = "=o";
name = Bold;
paths = (
{
closed = 1;
nodes = (
"431 -10 OFFCURVE",
"531 37 OFFCURVE",
"554 136 CURVE",
"369 186 LINE",
"362 159 OFFCURVE",
"343 143 OFFCURVE",
"309 143 CURVE SMOOTH",
"261 143 OFFCURVE",
"238 159 OFFCURVE",
"238 246 CURVE SMOOTH",
"238 332 OFFCURVE",
"255 358 OFFCURVE",
"298 358 CURVE SMOOTH",
"341 358 OFFCURVE",
"349 320 OFFCURVE",
"349 248 CURVE",
"458 291 LINE",
"168 291 LINE",
"168 206 LINE",
"558 206 LINE",
"561 219 OFFCURVE",
"563 244 OFFCURVE",
"563 266 CURVE SMOOTH",
"563 412 OFFCURVE",
"473 510 OFFCURVE",
"297 510 CURVE SMOOTH",
"121 510 OFFCURVE",
"20 416 OFFCURVE",
"20 250 CURVE SMOOTH",
"20 84 OFFCURVE",
"118 -10 OFFCURVE",
"309 -10 CURVE SMOOTH"
);
}
);
width = 583;
},
{
anchors = (
{
name = bottom;
position = "{284, 0}";
},
{
name = ogonek;
position = "{374, 21}";
},
{
name = top;
position = "{271, 500}";
}
);
layerId = "1C7CD022-87C7-4E11-B656-E47B18819458";
name = Light;
paths = (
{
closed = 1;
nodes = (
"371 -10 OFFCURVE",
"447 35 OFFCURVE",
"482 109 CURVE",
"469 116 LINE",
"436 46 OFFCURVE",
"364 4 OFFCURVE",
"280 4 CURVE SMOOTH",
"145 4 OFFCURVE",
"67 96 OFFCURVE",
"67 250 CURVE SMOOTH",
"67 404 OFFCURVE",
"144 496 OFFCURVE",
"275 496 CURVE SMOOTH",
"402 496 OFFCURVE",
"471 403 OFFCURVE",
"472 248 CURVE",
"479 254 LINE",
"59 254 LINE",
"59 239 LINE",
"486 239 LINE",
"486 241 OFFCURVE",
"486 244 OFFCURVE",
"486 246 CURVE SMOOTH",
"486 411 OFFCURVE",
"407 510 OFFCURVE",
"275 510 CURVE SMOOTH",
"135 510 OFFCURVE",
"51 413 OFFCURVE",
"51 250 CURVE SMOOTH",
"51 87 OFFCURVE",
"136 -10 OFFCURVE",
"280 -10 CURVE SMOOTH"
);
}
);
width = 534;
},
{
anchors = (
{
name = bottom;
position = "{300, 0}";
},
{
name = ogonek;
position = "{367, 38}";
},
{
name = top;
position = "{295, 500}";
}
);
associatedMasterId = "4A17B37A-CBFD-40E5-9E02-2080A0E1F76C";
background = {
paths = (
{
closed = 1;
nodes = (
"419 -10 OFFCURVE",
"496 33 OFFCURVE",
"527.96 113.06 CURVE",
"416 154 LINE",
"402 114 OFFCURVE",
"364 92 OFFCURVE",
"306 92 CURVE SMOOTH",
"225 92 OFFCURVE",
"177 142 OFFCURVE",
"177 248 CURVE SMOOTH",
"177 355 OFFCURVE",
"219 409 OFFCURVE",
"298 409 CURVE SMOOTH",
"373 409 OFFCURVE",
"408 351 OFFCURVE",
"410 255 CURVE",
"473 291 LINE",
"134 291 LINE",
"134 215 LINE",
"533 215 LINE",
"536 228 OFFCURVE",
"538 250 OFFCURVE",
"538 272 CURVE SMOOTH",
"538 408 OFFCURVE",
"454 510 OFFCURVE",
"298 510 CURVE SMOOTH",
"137 510 OFFCURVE",
"46 414 OFFCURVE",
"46.04 250 CURVE SMOOTH",
"46 86 OFFCURVE",
"140 -10 OFFCURVE",
"306 -10 CURVE SMOOTH"
);
}
);
};
layerId = "72421C35-BB32-41DB-AC18-520E82ABE3E5";
leftMetricsKey = "=o";
name = "Regular {137,5}";
paths = (
{
closed = 1;
nodes = (
"419 -10 OFFCURVE",
"496 33 OFFCURVE",
"528 113 CURVE",
"416 154 LINE",
"402 114 OFFCURVE",
"364 92 OFFCURVE",
"306 92 CURVE SMOOTH",
"225 92 OFFCURVE",
"177 142 OFFCURVE",
"177 248 CURVE SMOOTH",
"177 355 OFFCURVE",
"219 409 OFFCURVE",
"297 409 CURVE SMOOTH",
"370 409 OFFCURVE",
"415 355 OFFCURVE",
"415 257 CURVE",
"451 294 LINE",
"135 294 LINE",
"135 198 LINE",
"535 198 LINE",
"537 211 OFFCURVE",
"539 238 OFFCURVE",
"539 252 CURVE SMOOTH",
"539 416 OFFCURVE",
"454 510 OFFCURVE",
"298 510 CURVE SMOOTH",
"137 510 OFFCURVE",
"46 414 OFFCURVE",
"46 250 CURVE SMOOTH",
"46 86 OFFCURVE",
"140 -10 OFFCURVE",
"306 -10 CURVE SMOOTH"
);
}
);
width = 582;
}
);
leftKerningGroup = o;
rightKerningGroup = e;
unicode = 0065;
},
{
glyphname = f;
lastChange = "2015-02-07 11:35:54 +0000";
layers = (
{
guideLines = (
{
angle = 90;
position = "{372, 500}";
}
);
hints = (
{
place = "{257.299790, 0.000000}";
}
);
layerId = "4A17B37A-CBFD-40E5-9E02-2080A0E1F76C";
name = Regular;
paths = (
{
closed = 1;
nodes = (
"186 735 OFFCURVE",
"132 673 OFFCURVE",
"132 584 CURVE SMOOTH",
"132 0 LINE",
"212 0 LINE",
"212 474 LINE",
"212 500 LINE",
"212 576 LINE SMOOTH",
"212 636 OFFCURVE",
"245 662 OFFCURVE",
"303 662 CURVE SMOOTH",
"326 662 OFFCURVE",
"344 657 OFFCURVE",
"360 647 CURVE",
"381 712 LINE",
"363 727 OFFCURVE",
"331 735 OFFCURVE",
"296 735 CURVE SMOOTH"
);
},
{
closed = 1;
nodes = (
"32 500 LINE",
"32 431 LINE",
"379 431 LINE",
"379 500 LINE"
);
}
);
width = 393;
},
{
guideLines = (
{
angle = 90;
position = "{425, 500}";
}
);
layerId = "99EB5860-B45A-4B60-BB0B-F826C8F71D42";
name = Bold;
paths = (
{
closed = 1;
nodes = (
"183 720 OFFCURVE",
"70 672 OFFCURVE",
"70 520 CURVE SMOOTH",
"70 0 LINE",
"300 0 LINE",
"300 421 LINE",
"284 450 LINE",
"284 508 LINE SMOOTH",
"284 555 OFFCURVE",
"313 570 OFFCURVE",
"361 570 CURVE SMOOTH",
"389 570 OFFCURVE",
"404 565 OFFCURVE",
"418 554 CURVE",
"433 687 LINE",
"407 707 OFFCURVE",
"361 720 OFFCURVE",
"298 720 CURVE SMOOTH"
);
},
{
closed = 1;
nodes = (
"3 500 LINE",
"3 345 LINE",
"426 345 LINE",
"426 500 LINE"
);
}
);
width = 430;
},
{
hints = (
{
place = "{102.919918, 0.000000}";
}
);
layerId = "1C7CD022-87C7-4E11-B656-E47B18819458";
name = Light;
paths = (
{
closed = 1;
nodes = (
"162 735 OFFCURVE",
"112 678 OFFCURVE",
"112 583 CURVE SMOOTH",
"112 0 LINE",
"128 0 LINE",
"128 491 LINE",
"128 500 LINE",
"128 583 LINE SMOOTH",
"128 669 OFFCURVE",
"172 721 OFFCURVE",
"245 721 CURVE SMOOTH",
"277 721 OFFCURVE",
"297 713 OFFCURVE",
"315 692 CURVE",
"322 704 LINE",
"306 722 OFFCURVE",
"284 735 OFFCURVE",
"245 735 CURVE SMOOTH"
);
},
{
closed = 1;
nodes = (
"12 500 LINE",
"12 486 LINE",
"314 486 LINE",
"314 500 LINE"
);
}
);
width = 320;
}
);
leftKerningGroup = f;
unicode = 0066;
},
{
color = 1;
glyphname = g;
lastChange = "2015-02-07 11:35:54 +0000";
layers = (
{
anchors = (
{
name = top;
position = "{267, 500}";
}
);
components = (
{
name = gbase;
transform = "{1, 0, 0, 1, -10, 0}";
}
);
layerId = "4A17B37A-CBFD-40E5-9E02-2080A0E1F76C";
name = Regular;
paths = (
{
closed = 1;
nodes = (
"435 592 OFFCURVE",
"372 542 OFFCURVE",
"374 460 CURVE",
"424 439 LINE",
"422 497 OFFCURVE",
"462 522 OFFCURVE",
"532 522 CURVE",
"514 592 LINE"
);
}
);
width = 532;
},
{
anchors = (
{
name = top;
position = "{255, 500}";
}
);
components = (
{
disableAlignment = 1;
name = gbase;
transform = "{1, 0, 0, 1, -6, 0}";
}
);
layerId = "99EB5860-B45A-4B60-BB0B-F826C8F71D42";
name = Bold;
paths = (
{
closed = 1;
nodes = (
"429 677 OFFCURVE",
"387 566 OFFCURVE",
"387 474 CURVE",
"454 454 LINE",
"454 494 OFFCURVE",
"497 539 OFFCURVE",
"577 520 CURVE",
"558 662 LINE"
);
}
);
width = 578;
},
{
anchors = (
{
name = top;
position = "{277, 500}";
}
);
associatedMasterId = "4A17B37A-CBFD-40E5-9E02-2080A0E1F76C";
background = {
paths = (
{
closed = 1;
nodes = (
"119 213 OFFCURVE",
"66 174 OFFCURVE",
"66 110 CURVE SMOOTH",
"66 35 OFFCURVE",
"155 -5 OFFCURVE",
"216 -5 CURVE SMOOTH",
"350 -5 LINE SMOOTH",
"425 -5 OFFCURVE",
"449 -28 OFFCURVE",
"449 -64 CURVE SMOOTH",
"449 -108 OFFCURVE",
"391 -148 OFFCURVE",
"285 -148 CURVE SMOOTH",
"175 -148 OFFCURVE",
"120 -119 OFFCURVE",
"120 -70 CURVE SMOOTH",
"120 -34 OFFCURVE",
"156 -5 OFFCURVE",
"216 -5 CURVE",
"192 34 LINE",
"104 34 OFFCURVE",
"43 -12 OFFCURVE",
"43 -83 CURVE SMOOTH",
"43 -158 OFFCURVE",
"118 -215 OFFCURVE",
"276 -215 CURVE SMOOTH",
"411 -215 OFFCURVE",
"527 -154 OFFCURVE",
"527 -55 CURVE SMOOTH",
"527 17 OFFCURVE",
"467 64 OFFCURVE",
"372 64 CURVE SMOOTH",
"242 64 LINE SMOOTH",
"177 64 OFFCURVE",
"141 87 OFFCURVE",
"141 124 CURVE SMOOTH",
"141 155 OFFCURVE",
"170 176 OFFCURVE",
"231 184 CURVE",
"188 217 LINE"
);
},
{
closed = 1;
nodes = (
"153 510 OFFCURVE",
"68 440 OFFCURVE",
"68 341 CURVE SMOOTH",
"68 242 OFFCURVE",
"141 172 OFFCURVE",
"273 172 CURVE SMOOTH",
"393 172 OFFCURVE",
"478 242 OFFCURVE",
"478 341 CURVE SMOOTH",
"478 440 OFFCURVE",
"393 510 OFFCURVE",
"273 510 CURVE SMOOTH"
);
},
{
closed = 1;
nodes = (
"342 445 OFFCURVE",
"395 403 OFFCURVE",
"395 341 CURVE SMOOTH",
"395 279 OFFCURVE",
"342 237 OFFCURVE",
"273 237 CURVE SMOOTH",
"204 237 OFFCURVE",
"151 279 OFFCURVE",
"151 341 CURVE SMOOTH",
"151 403 OFFCURVE",
"204 445 OFFCURVE",
"273 445 CURVE SMOOTH"
);
},
{
closed = 1;
nodes = (
"427 592 OFFCURVE",
"375 545 OFFCURVE",
"368 460 CURVE",
"413 439 LINE",
"418 496 OFFCURVE",
"454 522 OFFCURVE",
"534 522 CURVE",
"516 592 LINE"
);
}
);
};
components = (
{
name = gbase;
transform = "{1, 0, 0, 1, 0, 0}";
}
);
layerId = "8EE4D5BB-17C2-4780-9682-EA7BB72901B8";
name = "Regular [79]";
paths = (
{
closed = 1;
nodes = (
"431 592 OFFCURVE",
"382 549 OFFCURVE",
"368 460 CURVE",
"409 441 LINE",
"414 494 OFFCURVE",
"453 522 OFFCURVE",
"534 522 CURVE",
"516 592 LINE"
);
}
);
width = 549;
},
{
anchors = (
{
name = top;
position = "{253, 500}";
}
);
components = (
{
disableAlignment = 1;
name = gbase;
transform = "{1, 0, 0, 1, -15, 0}";
}
);
layerId = "1C7CD022-87C7-4E11-B656-E47B18819458";
name = Light;
paths = (
{
closed = 1;
nodes = (
"421 592 OFFCURVE",
"379 544 OFFCURVE",
"379 470 CURVE",
"392 465 LINE",
"392 533 OFFCURVE",
"429 578 OFFCURVE",
"496 578 CURVE",
"491 592 LINE"
);
}
);
width = 496;
}
);
leftKerningGroup = g;
rightKerningGroup = g;
unicode = 0067;
},
{
glyphname = gbreve;
lastChange = "2015-02-07 11:35:54 +0000";
layers = (
{
components = (
{
name = gbase;
transform = "{1, 0, 0, 1, -10, 0}";
},
{
name = breve;
transform = "{1, 0, 0, 1, 27, 0}";
}
);
layerId = "4A17B37A-CBFD-40E5-9E02-2080A0E1F76C";
name = Regular;
paths = (
{
closed = 1;
nodes = (
"435 592 OFFCURVE",
"372 542 OFFCURVE",
"374 460 CURVE",
"424 439 LINE",
"422 497 OFFCURVE",
"462 522 OFFCURVE",
"532 522 CURVE",
"514 592 LINE"
);
}
);
width = 532;
},
{
components = (
{
disableAlignment = 1;
name = gbase;
transform = "{1, 0, 0, 1, -6, 0}";
},
{
name = breve;
transform = "{1, 0, 0, 1, 39, 0}";
}
);
layerId = "99EB5860-B45A-4B60-BB0B-F826C8F71D42";
name = Bold;
paths = (
{
closed = 1;
nodes = (
"483 662 OFFCURVE",
"417 559 OFFCURVE",
"437 454 CURVE",
"494 434 LINE",
"494 500 OFFCURVE",
"541 527 OFFCURVE",
"597 520 CURVE",
"578 662 LINE"
);
}
);
width = 578;
},
{
components = (
{
disableAlignment = 1;
name = gbase;
transform = "{1, 0, 0, 1, -15, 0}";
},
{
disableAlignment = 1;
name = breve;
transform = "{1, 0, 0, 1, 6, 0}";
}
);
layerId = "1C7CD022-87C7-4E11-B656-E47B18819458";
name = Light;
paths = (
{
closed = 1;
nodes = (
"421 592 OFFCURVE",
"379 544 OFFCURVE",
"379 470 CURVE",
"392 465 LINE",
"392 533 OFFCURVE",
"429 578 OFFCURVE",
"496 578 CURVE",
"491 592 LINE"
);
}
);
width = 496;
}
);
leftKerningGroup = g;
leftMetricsKey = g;
rightKerningGroup = g;
unicode = 011F;
},
{
glyphname = h;
lastChange = "2015-02-07 11:35:54 +0000";
layers = (
{
layerId = "4A17B37A-CBFD-40E5-9E02-2080A0E1F76C";
name = Regular;
paths = (
{
closed = 1;
nodes = (
"93 730 LINE",
"93 0 LINE",
"173 0 LINE",
"173 730 LINE"
);
},
{
closed = 1;
nodes = (
"230 510 OFFCURVE",
"142 449 OFFCURVE",
"142 288 CURVE",
"173 265 LINE",
"173 393 OFFCURVE",
"255 440 OFFCURVE",
"328 440 CURVE SMOOTH",
"397 440 OFFCURVE",
"451 403 OFFCURVE",
"451 292 CURVE SMOOTH",
"451 0 LINE",
"531 0 LINE",
"531 320 LINE SMOOTH",
"531 449 OFFCURVE",
"443 510 OFFCURVE",
"336 510 CURVE SMOOTH"
);
}
);
width = 619;
},
{
layerId = "99EB5860-B45A-4B60-BB0B-F826C8F71D42";
leftMetricsKey = "=n";
rightMetricsKey = "=n";
name = Bold;
paths = (
{
closed = 1;
nodes = (
"39 700 LINE",
"39 0 LINE",
"269 0 LINE",
"269 700 LINE"
);
},
{
closed = 1;
nodes = (
"309 510 OFFCURVE",
"248 418 OFFCURVE",
"248 262 CURVE",
"269 262 LINE",
"269 316 OFFCURVE",
"284 341 OFFCURVE",
"317 341 CURVE SMOOTH",
"341 341 OFFCURVE",
"352 327 OFFCURVE",
"352 282 CURVE SMOOTH",
"352 0 LINE",
"582 0 LINE",
"582 342 LINE SMOOTH",
"582 449 OFFCURVE",
"524 510 OFFCURVE",
"425 510 CURVE SMOOTH"
);
}
);
width = 620;
},
{
layerId = "1C7CD022-87C7-4E11-B656-E47B18819458";
name = Light;
paths = (
{
closed = 1;
nodes = (
"85 730 LINE",
"85 0 LINE",
"101 0 LINE",
"101 730 LINE"
);
},
{
closed = 1;
nodes = (
"184 511 OFFCURVE",
"94 424 OFFCURVE",
"94 318 CURVE",
"101 302 LINE",
"101 406 OFFCURVE",
"189 497 OFFCURVE",
"306 497 CURVE SMOOTH",
"412 497 OFFCURVE",
"479 435 OFFCURVE",
"479 328 CURVE SMOOTH",
"479 1 LINE",
"495 1 LINE",
"495 330 LINE SMOOTH",
"495 445 OFFCURVE",
"424 511 OFFCURVE",
"309 511 CURVE SMOOTH"
);
}
);
width = 574;
}
);
leftKerningGroup = h;
rightKerningGroup = n;
unicode = 0068;
},
{
glyphname = i;
lastChange = "2015-02-07 11:35:54 +0000";
layers = (
{
components = (
{
disableAlignment = 1;
name = idotless;
transform = "{1, 0, 0, 1, 0, 0}";
}
);
layerId = "4A17B37A-CBFD-40E5-9E02-2080A0E1F76C";
name = Regular;
paths = (
{
closed = 1;
nodes = (
"169 596 OFFCURVE",
"193 620 OFFCURVE",
"193 656 CURVE SMOOTH",
"193 692 OFFCURVE",
"169 716 OFFCURVE",
"133 716 CURVE SMOOTH",
"97 716 OFFCURVE",
"73 692 OFFCURVE",
"73 656 CURVE SMOOTH",
"73 620 OFFCURVE",
"97 596 OFFCURVE",
"133 596 CURVE SMOOTH"
);
}
);
width = 266;
},
{
components = (
{
disableAlignment = 1;
name = idotless;
transform = "{1, 0, 0, 1, 0, 0}";
}
);
layerId = "99EB5860-B45A-4B60-BB0B-F826C8F71D42";
leftMetricsKey = "=n-10";
rightMetricsKey = "=|n-10";
name = Bold;
paths = (
{
closed = 1;
nodes = (
"245 532 OFFCURVE",
"279 558 OFFCURVE",
"279 628 CURVE SMOOTH",
"279 698 OFFCURVE",
"245 724 OFFCURVE",
"154 724 CURVE SMOOTH",
"63 724 OFFCURVE",
"29 698 OFFCURVE",
"29 628 CURVE SMOOTH",
"29 558 OFFCURVE",
"63 532 OFFCURVE",
"154 532 CURVE SMOOTH"
);
}
);
width = 308;
},
{
components = (
{
disableAlignment = 1;
name = idotless;
transform = "{1, 0, 0, 1, 0, 0}";
}
);
layerId = "1C7CD022-87C7-4E11-B656-E47B18819458";
name = Light;
paths = (
{
closed = 1;
nodes = (
"107 602 OFFCURVE",
"118 613 OFFCURVE",
"118 627 CURVE SMOOTH",
"118 641 OFFCURVE",
"107 652 OFFCURVE",
"93 652 CURVE SMOOTH",
"79 652 OFFCURVE",
"68 641 OFFCURVE",
"68 627 CURVE SMOOTH",
"68 613 OFFCURVE",
"79 602 OFFCURVE",
"93 602 CURVE SMOOTH"
);
}
);
width = 186;
}
);
leftKerningGroup = i;
rightKerningGroup = i;
unicode = 0069;
},
{
glyphname = idotless;
lastChange = "2015-02-07 11:35:54 +0000";
layers = (
{
anchors = (
{
name = ogonek;
position = "{173, 0}";
},
{
name = top;
position = "{133, 500}";
}
);
layerId = "4A17B37A-CBFD-40E5-9E02-2080A0E1F76C";
name = Regular;
paths = (
{
closed = 1;
nodes = (
"93 500 LINE",
"93 0 LINE",
"173 0 LINE",
"173 500 LINE"
);
}
);
width = 266;
},
{
anchors = (
{
name = ogonek;
position = "{250, 10}";
},
{
name = top;
position = "{154, 500}";
}
);
layerId = "99EB5860-B45A-4B60-BB0B-F826C8F71D42";
name = Bold;
paths = (
{
closed = 1;
nodes = (
"39 500 LINE",
"39 0 LINE",
"269 0 LINE",
"269 500 LINE"
);
}
);
width = 308;
},
{
anchors = (
{
name = ogonek;
position = "{101, 0}";
},
{
name = top;
position = "{93, 500}";
}
);
layerId = "1C7CD022-87C7-4E11-B656-E47B18819458";
name = Light;
paths = (
{
closed = 1;
nodes = (
"85 500 LINE",
"85 0 LINE",
"101 0 LINE",
"101 500 LINE"
);
}
);
width = 186;
}
);
leftKerningGroup = i;
rightKerningGroup = i;
unicode = 0131;
},
{
glyphname = idieresis;
lastChange = "2015-02-07 11:35:54 +0000";
layers = (
{
components = (
{
name = idotless;
transform = "{1, 0, 0, 1, 0, 0}";
}
);
layerId = "4A17B37A-CBFD-40E5-9E02-2080A0E1F76C";
name = Regular;
paths = (
{
closed = 1;
nodes = (
"244 601 OFFCURVE",
"270 627 OFFCURVE",
"270 659 CURVE SMOOTH",
"270 690 OFFCURVE",
"244 716 OFFCURVE",
"213 716 CURVE SMOOTH",
"181 716 OFFCURVE",
"155 690 OFFCURVE",
"155 659 CURVE SMOOTH",
"155 627 OFFCURVE",
"181 601 OFFCURVE",
"213 601 CURVE SMOOTH"
);
},
{
closed = 1;
nodes = (
"85 601 OFFCURVE",
"111 627 OFFCURVE",
"111 659 CURVE SMOOTH",
"111 690 OFFCURVE",
"85 716 OFFCURVE",
"53 716 CURVE SMOOTH",
"22 716 OFFCURVE",
"-4 690 OFFCURVE",
"-4 659 CURVE SMOOTH",
"-4 627 OFFCURVE",
"22 601 OFFCURVE",
"53 601 CURVE SMOOTH"
);
}
);
width = 266;
},
{
components = (
{
name = idotless;
transform = "{1, 0, 0, 1, 0, 0}";
}
);
layerId = "99EB5860-B45A-4B60-BB0B-F826C8F71D42";
name = Bold;
paths = (
{
closed = 1;
nodes = (
"325 535 OFFCURVE",
"357 566 OFFCURVE",
"357 629 CURVE SMOOTH",
"357 692 OFFCURVE",
"325 723 OFFCURVE",
"261 723 CURVE SMOOTH",
"197 723 OFFCURVE",
"165 692 OFFCURVE",
"165 629 CURVE SMOOTH",
"165 566 OFFCURVE",
"197 535 OFFCURVE",
"261 535 CURVE SMOOTH"
);
},
{
closed = 1;
nodes = (
"111 535 OFFCURVE",
"143 566 OFFCURVE",
"143 629 CURVE SMOOTH",
"143 692 OFFCURVE",
"111 723 OFFCURVE",
"47 723 CURVE SMOOTH",
"-17 723 OFFCURVE",
"-49 692 OFFCURVE",
"-49 629 CURVE SMOOTH",
"-49 566 OFFCURVE",
"-17 535 OFFCURVE",
"47 535 CURVE SMOOTH"
);
}
);
width = 308;
},
{
components = (
{
disableAlignment = 1;
name = idotless;
transform = "{1, 0, 0, 1, 0, 0}";
}
);
layerId = "1C7CD022-87C7-4E11-B656-E47B18819458";
name = Light;
paths = (
{
closed = 1;
nodes = (
"157 602 OFFCURVE",
"168 613 OFFCURVE",
"168 627 CURVE SMOOTH",
"168 641 OFFCURVE",
"157 652 OFFCURVE",
"143 652 CURVE SMOOTH",
"129 652 OFFCURVE",
"118 641 OFFCURVE",
"118 627 CURVE SMOOTH",
"118 613 OFFCURVE",
"129 602 OFFCURVE",
"143 602 CURVE SMOOTH"
);
},
{
closed = 1;
nodes = (
"57 602 OFFCURVE",
"68 613 OFFCURVE",
"68 627 CURVE SMOOTH",
"68 641 OFFCURVE",
"57 652 OFFCURVE",
"43 652 CURVE SMOOTH",
"29 652 OFFCURVE",
"18 641 OFFCURVE",
"18 627 CURVE SMOOTH",
"18 613 OFFCURVE",
"29 602 OFFCURVE",
"43 602 CURVE SMOOTH"
);
}
);
width = 186;
}
);
leftKerningGroup = i;
rightKerningGroup = i;
unicode = 00EF;
},
{
glyphname = iogonek;
lastChange = "2015-02-07 11:35:54 +0000";
layers = (
{
components = (
{
name = i;
transform = "{1, 0, 0, 1, 0, 0}";
}
);
layerId = "4A17B37A-CBFD-40E5-9E02-2080A0E1F76C";
name = Regular;
paths = (
{
closed = 1;
nodes = (
"127 20 LINE",
"48 -19 OFFCURVE",
"8 -60 OFFCURVE",
"8 -117 CURVE SMOOTH",
"8 -177 OFFCURVE",
"53 -215 OFFCURVE",
"124 -215 CURVE SMOOTH",
"161 -215 OFFCURVE",
"187 -208 OFFCURVE",
"209 -194 CURVE",
"190 -144 LINE",
"174 -154 OFFCURVE",
"150 -159 OFFCURVE",
"131 -159 CURVE SMOOTH",
"94 -159 OFFCURVE",
"74 -138 OFFCURVE",
"74 -109 CURVE SMOOTH",
"74 -72 OFFCURVE",
"95 -44 OFFCURVE",
"173 0 CURVE"
);
}
);
width = 266;
},
{
components = (
{
name = i;
transform = "{1, 0, 0, 1, 0, 0}";
}
);
layerId = "99EB5860-B45A-4B60-BB0B-F826C8F71D42";
name = Bold;
paths = (
{
closed = 1;
nodes = (
"177 32 LINE",
"75 26 OFFCURVE",
"2 -17 OFFCURVE",
"2 -96 CURVE SMOOTH",
"2 -180 OFFCURVE",
"71 -215 OFFCURVE",
"154 -215 CURVE SMOOTH",
"204 -215 OFFCURVE",
"240 -209 OFFCURVE",
"272 -189 CURVE",
"245 -86 LINE",
"235 -92 OFFCURVE",
"220 -94 OFFCURVE",
"205 -94 CURVE SMOOTH",
"174 -94 OFFCURVE",
"156 -80 OFFCURVE",
"156 -56 CURVE SMOOTH",
"156 -25 OFFCURVE",
"199 0 OFFCURVE",
"269 0 CURVE"
);
}
);
width = 308;
},
{
components = (
{
disableAlignment = 1;
name = i;
transform = "{1, 0, 0, 1, 0, 0}";
}
);
layerId = "1C7CD022-87C7-4E11-B656-E47B18819458";
name = Light;
paths = (
{
closed = 1;
nodes = (
"89 5 LINE",
"29 -45 OFFCURVE",
"2 -74 OFFCURVE",
"2 -120 CURVE SMOOTH",
"2 -172 OFFCURVE",
"43 -202 OFFCURVE",
"87 -202 CURVE SMOOTH",
"117 -202 OFFCURVE",
"133 -198 OFFCURVE",
"151 -180 CURVE",
"145 -167 LINE",
"128 -183 OFFCURVE",
"116 -188 OFFCURVE",
"87 -188 CURVE SMOOTH",
"51 -188 OFFCURVE",
"17 -163 OFFCURVE",
"17 -120 CURVE SMOOTH",
"17 -77 OFFCURVE",
"43 -50 OFFCURVE",
"101 0 CURVE"
);
}
);
width = 186;
}
);
leftKerningGroup = i;
rightKerningGroup = i;
unicode = 012F;
},
{
glyphname = j;
lastChange = "2015-02-07 11:35:54 +0000";
layers = (
{
layerId = "4A17B37A-CBFD-40E5-9E02-2080A0E1F76C";
name = Regular;
paths = (
{
closed = 1;
nodes = (
"93 500 LINE",
"93 -43 LINE SMOOTH",
"93 -113 OFFCURVE",
"63 -137 OFFCURVE",
"20 -137 CURVE SMOOTH",
"-15 -137 OFFCURVE",
"-43 -123 OFFCURVE",
"-62 -106 CURVE",
"-79 -182 LINE",
"-56 -201 OFFCURVE",
"-20 -215 OFFCURVE",
"21 -215 CURVE SMOOTH",
"89 -215 OFFCURVE",
"173 -176 OFFCURVE",
"173 -51 CURVE SMOOTH",
"173 500 LINE"
);
},
{
closed = 1;
nodes = (
"100 716 OFFCURVE",
"73 689 OFFCURVE",
"73 656 CURVE SMOOTH",
"73 623 OFFCURVE",
"100 596 OFFCURVE",
"133 596 CURVE SMOOTH",
"166 596 OFFCURVE",
"193 623 OFFCURVE",
"193 656 CURVE SMOOTH",
"193 689 OFFCURVE",
"166 716 OFFCURVE",
"133 716 CURVE SMOOTH"
);
}
);
width = 266;
},
{
layerId = "99EB5860-B45A-4B60-BB0B-F826C8F71D42";
rightMetricsKey = "=|n-12";
name = Bold;
paths = (
{
closed = 1;
nodes = (
"39 500 LINE",
"39 7 LINE SMOOTH",
"39 -44 OFFCURVE",
"17 -64 OFFCURVE",
"-25 -64 CURVE SMOOTH",
"-45 -64 OFFCURVE",
"-65 -59 OFFCURVE",
"-76 -51 CURVE",
"-104 -184 LINE",
"-63 -206 OFFCURVE",
"-15 -215 OFFCURVE",
"48 -215 CURVE SMOOTH",
"203 -215 OFFCURVE",
"269 -155 OFFCURVE",
"269 -13 CURVE SMOOTH",
"269 500 LINE"
);
},
{
closed = 1;
nodes = (
"62 724 OFFCURVE",
"29 698 OFFCURVE",
"29 628 CURVE SMOOTH",
"29 558 OFFCURVE",
"62 532 OFFCURVE",
"153 532 CURVE SMOOTH",
"246 532 OFFCURVE",
"279 558 OFFCURVE",
"279 628 CURVE SMOOTH",
"279 698 OFFCURVE",
"246 724 OFFCURVE",
"153 724 CURVE SMOOTH"
);
}
);
width = 306;
},
{
layerId = "1C7CD022-87C7-4E11-B656-E47B18819458";
name = Light;
paths = (
{
closed = 1;
nodes = (
"85 500 LINE",
"85 -64 LINE SMOOTH",
"85 -147 OFFCURVE",
"39 -201 OFFCURVE",
"-31 -201 CURVE SMOOTH",
"-55 -201 OFFCURVE",
"-81 -194 OFFCURVE",
"-97 -179 CURVE",
"-102 -193 LINE",
"-86 -207 OFFCURVE",
"-59 -215 OFFCURVE",
"-31 -215 CURVE SMOOTH",
"49 -215 OFFCURVE",
"101 -156 OFFCURVE",
"101 -64 CURVE SMOOTH",
"101 500 LINE"
);
},
{
closed = 1;
nodes = (
"79 652 OFFCURVE",
"68 641 OFFCURVE",
"68 627 CURVE SMOOTH",
"68 613 OFFCURVE",
"79 602 OFFCURVE",
"93 602 CURVE SMOOTH",
"107 602 OFFCURVE",
"118 613 OFFCURVE",
"118 627 CURVE SMOOTH",
"118 641 OFFCURVE",
"107 652 OFFCURVE",
"93 652 CURVE SMOOTH"
);
}
);
width = 186;
}
);
leftKerningGroup = i;
rightKerningGroup = i;
unicode = 006A;
},
{
glyphname = k;
lastChange = "2015-02-07 11:35:54 +0000";
layers = (
{
anchors = (
{
name = bottom;
position = "{315, 0}";
}
);
layerId = "4A17B37A-CBFD-40E5-9E02-2080A0E1F76C";
name = Regular;
paths = (
{
closed = 1;
nodes = (
"432 500 LINE",
"133 201 LINE",
"133 101 LINE",
"297 265 LINE",
"316 284 LINE",
"532 500 LINE"
);
},
{
closed = 1;
nodes = (
"93 730 LINE",
"93 0 LINE",
"173 0 LINE",
"173 730 LINE"
);
},
{
closed = 1;
nodes = (
"256 280 LINE",
"447 0 LINE",
"544 0 LINE",
"323 325 LINE"
);
}
);
width = 567;
},
{
anchors = (
{
name = bottom;
position = "{337, 0}";
}
);
layerId = "99EB5860-B45A-4B60-BB0B-F826C8F71D42";
leftMetricsKey = "=n";
name = Bold;
paths = (
{
closed = 1;
nodes = (
"415 500 LINE",
"234 281 LINE",
"237 58 LINE",
"366 215 LINE",
"406 218 LINE",
"662 500 LINE"
);
},
{
closed = 1;
nodes = (
"39 700 LINE",
"39 0 LINE",
"269 0 LINE",
"269 700 LINE"
);
},
{
closed = 1;
nodes = (
"305 230 LINE",
"423 0 LINE",
"673 0 LINE",
"445 366 LINE"
);
}
);
width = 658;
},
{
anchors = (
{
name = bottom;
position = "{310, 0}";
}
);
layerId = "1C7CD022-87C7-4E11-B656-E47B18819458";
name = Light;
paths = (
{
closed = 1;
nodes = (
"441 500 LINE",
"93 177 LINE",
"93 155 LINE",
"237 289 LINE",
"241 292 LINE",
"465 500 LINE"
);
},
{
closed = 1;
nodes = (
"85 730 LINE",
"85 0 LINE",
"101 0 LINE",
"101 730 LINE"
);
},
{
closed = 1;
nodes = (
"228 291 LINE",
"450 0 LINE",
"470 0 LINE",
"240 302 LINE"
);
}
);
width = 482;
}
);
leftKerningGroup = h;
rightKerningGroup = k;
unicode = 006B;
},
{
glyphname = l;
lastChange = "2015-02-07 11:35:54 +0000";
layers = (
{
anchors = (
{
name = bottom;
position = "{214, 0}";
},
{
name = top;
position = "{129, 730}";
},
{
name = topright;
position = "{246, 730}";
}
);
layerId = "4A17B37A-CBFD-40E5-9E02-2080A0E1F76C";
name = Regular;
paths = (
{
closed = 1;
nodes = (
"89 730 LINE",
"89 124 LINE SMOOTH",
"89 33 OFFCURVE",
"128 -10 OFFCURVE",
"209 -10 CURVE SMOOTH",
"235 -10 OFFCURVE",
"262 -5 OFFCURVE",
"283 4 CURVE",
"296 81 LINE",
"271 72 OFFCURVE",
"254 67 OFFCURVE",
"223 67 CURVE SMOOTH",
"182 67 OFFCURVE",
"169 83 OFFCURVE",
"169 134 CURVE SMOOTH",
"169 730 LINE"
);
}
);
width = 306;
},
{
anchors = (
{
name = bottom;
position = "{174, 0}";
},
{
name = top;
position = "{144, 700}";
},
{
name = topright;
position = "{317, 700}";
}
);
layerId = "99EB5860-B45A-4B60-BB0B-F826C8F71D42";
name = Bold;
paths = (
{
closed = 1;
nodes = (
"39 700 LINE",
"39 164 LINE SMOOTH",
"39 39 OFFCURVE",
"88 -10 OFFCURVE",
"212 -10 CURVE SMOOTH",
"257 -10 OFFCURVE",
"311 3 OFFCURVE",
"336 22 CURVE",
"346 146 LINE",
"334 144 OFFCURVE",
"325 141 OFFCURVE",
"310 141 CURVE SMOOTH",
"279 141 OFFCURVE",
"269 159 OFFCURVE",
"269 199 CURVE SMOOTH",
"269 700 LINE"
);
}
);
width = 341;
},
{
anchors = (
{
name = bottom;
position = "{179, 0}";
},
{
name = top;
position = "{89, 730}";
},
{
name = topright;
position = "{211, 730}";
}
);
layerId = "1C7CD022-87C7-4E11-B656-E47B18819458";
name = Light;
paths = (
{
closed = 1;
nodes = (
"81 730 LINE",
"81 107 LINE SMOOTH",
"81 25 OFFCURVE",
"111 -10 OFFCURVE",
"170 -10 CURVE SMOOTH",
"196 -10 OFFCURVE",
"215 -5 OFFCURVE",
"228 2 CURVE",
"228 16 LINE",
"212 8 OFFCURVE",
"199 4 OFFCURVE",
"170 4 CURVE SMOOTH",
"121 4 OFFCURVE",
"97 34 OFFCURVE",
"97 107 CURVE SMOOTH",
"97 730 LINE"
);
}
);
width = 237;
}
);
leftKerningGroup = l;
rightKerningGroup = l;
unicode = 006C;
},
{
glyphname = lacute;
lastChange = "2015-02-07 11:35:54 +0000";
layers = (
{
components = (
{
name = l;
transform = "{1, 0, 0, 1, 0, 0}";
}
);
layerId = "4A17B37A-CBFD-40E5-9E02-2080A0E1F76C";
name = Regular;
paths = (
{
closed = 1;
nodes = (
"93 800 LINE",
"157 800 LINE",
"218 930 LINE",
"130 930 LINE"
);
}
);
width = 315;
},
{
components = (
{
name = l;
transform = "{1, 0, 0, 1, 0, 0}";
}
);
layerId = "99EB5860-B45A-4B60-BB0B-F826C8F71D42";
name = Bold;
paths = (
{
closed = 1;
nodes = (
"73 746 LINE",
"235 746 LINE",
"326 913 LINE",
"131 913 LINE"
);
}
);
width = 341;
},
{
components = (
{
disableAlignment = 1;
name = l;
transform = "{1, 0, 0, 1, 0, 0}";
}
);
layerId = "1C7CD022-87C7-4E11-B656-E47B18819458";
name = Light;
paths = (
{
closed = 1;
nodes = (
"84 793 LINE",
"98 793 LINE",
"143 930 LINE",
"125 930 LINE"
);
}
);
width = 237;
}
);
leftKerningGroup = l;
rightKerningGroup = l;
unicode = 013A;
},
{
glyphname = lslash;
lastChange = "2015-02-07 11:35:54 +0000";
layers = (
{
components = (
{
name = l;
transform = "{1, 0, 0, 1, 46, 0}";
}
);
layerId = "4A17B37A-CBFD-40E5-9E02-2080A0E1F76C";
name = Regular;
paths = (
{
closed = 1;
nodes = (
"175 398 LINE",
"39 312 LINE",
"39 229 LINE",
"187 323 LINE",
"335 417 LINE",
"335 500 LINE"
);
}
);
width = 372;
},
{
components = (
{
disableAlignment = 1;
name = l;
transform = "{1, 0, 0, 1, 39, 0}";
}
);
layerId = "99EB5860-B45A-4B60-BB0B-F826C8F71D42";
name = Bold;
paths = (
{
closed = 1;
nodes = (
"185 375 LINE",
"-2 297 LINE",
"-2 145 LINE",
"236 300 LINE",
"402 365 LINE",
"402 518 LINE"
);
}
);
width = 409;
},
{
components = (
{
disableAlignment = 1;
name = l;
transform = "{1, 0, 0, 1, 30, 0}";
}
);
layerId = "1C7CD022-87C7-4E11-B656-E47B18819458";
name = Light;
paths = (
{
closed = 1;
nodes = (
"118 359 LINE",
"14 284 LINE",
"14 267 LINE",
"120 343 LINE",
"252 438 LINE",
"252 455 LINE"
);
}
);
width = 278;
}
);
unicode = 0142;
},
{
glyphname = m;
lastChange = "2015-02-07 11:35:54 +0000";
layers = (
{
guideLines = (
{
position = "{193, 423}";
}
);
layerId = "4A17B37A-CBFD-40E5-9E02-2080A0E1F76C";
name = Regular;
paths = (
{
closed = 1;
nodes = (
"594 510 OFFCURVE",
"486 461 OFFCURVE",
"486 346 CURVE",
"519 274 LINE",
"519 381 OFFCURVE",
"589 440 OFFCURVE",
"667 440 CURVE SMOOTH",
"733 440 OFFCURVE",
"785 403 OFFCURVE",
"785 312 CURVE SMOOTH",
"785 0 LINE",
"865 0 LINE",
"865 320 LINE SMOOTH",
"865 452 OFFCURVE",
"770 510 OFFCURVE",
"674 510 CURVE SMOOTH"
);
},
{
closed = 1;
nodes = (
"93 500 LINE",
"93 383 LINE",
"93 0 LINE",
"173 0 LINE",
"173 379 LINE",
"170 383 LINE",
"163 500 LINE"
);
},
{
closed = 1;
nodes = (
"233 510 OFFCURVE",
"136 445 OFFCURVE",
"136 293 CURVE",
"173 267 LINE",
"173 391 OFFCURVE",
"255 440 OFFCURVE",
"321 440 CURVE SMOOTH",
"387 440 OFFCURVE",
"439 403 OFFCURVE",
"439 312 CURVE SMOOTH",
"439 0 LINE",
"519 0 LINE",
"519 320 LINE SMOOTH",
"519 452 OFFCURVE",
"424 510 OFFCURVE",
"328 510 CURVE SMOOTH"
);
}
);
width = 953;
},
{
guideLines = (
{
position = "{187, 423}";
}
);
layerId = "99EB5860-B45A-4B60-BB0B-F826C8F71D42";
leftMetricsKey = "=n";
rightMetricsKey = "=n";
name = Bold;
paths = (
{
closed = 1;
nodes = (
"612 510 OFFCURVE",
"544 418 OFFCURVE",
"544 262 CURVE",
"582 262 LINE",
"582 316 OFFCURVE",
"597 340 OFFCURVE",
"630 340 CURVE SMOOTH",
"654 340 OFFCURVE",
"665 327 OFFCURVE",
"665 282 CURVE SMOOTH",
"665 0 LINE",
"895 0 LINE",
"895 342 LINE SMOOTH",
"895 449 OFFCURVE",
"837 510 OFFCURVE",
"738 510 CURVE SMOOTH"
);
},
{
closed = 1;
nodes = (
"39 500 LINE",
"39 281 LINE",
"39 0 LINE",
"269 0 LINE",
"269 281 LINE",
"254 338 LINE",
"246 500 LINE"
);
},
{
closed = 1;
nodes = (
"299 510 OFFCURVE",
"231 418 OFFCURVE",
"231 262 CURVE",
"269 262 LINE",
"269 316 OFFCURVE",
"284 340 OFFCURVE",
"317 340 CURVE SMOOTH",
"341 340 OFFCURVE",
"352 327 OFFCURVE",
"352 282 CURVE SMOOTH",
"352 0 LINE",
"582 0 LINE",
"582 342 LINE SMOOTH",
"582 449 OFFCURVE",
"524 510 OFFCURVE",
"425 510 CURVE SMOOTH"
);
}
);
width = 933;
},
{
layerId = "1C7CD022-87C7-4E11-B656-E47B18819458";
name = Light;
paths = (
{
closed = 1;
nodes = (
"578 512 OFFCURVE",
"488 425 OFFCURVE",
"488 319 CURVE",
"495 303 LINE",
"495 407 OFFCURVE",
"583 498 OFFCURVE",
"700 498 CURVE SMOOTH",
"806 498 OFFCURVE",
"873 436 OFFCURVE",
"873 329 CURVE SMOOTH",
"873 2 LINE",
"889 2 LINE",
"889 331 LINE SMOOTH",
"889 446 OFFCURVE",
"818 512 OFFCURVE",
"703 512 CURVE SMOOTH"
);
},
{
closed = 1;
nodes = (
"85 500 LINE",
"85 301 LINE",
"85 0 LINE",
"101 0 LINE",
"101 334 LINE",
"101 341 LINE",
"101 500 LINE"
);
},
{
closed = 1;
nodes = (
"184 510 OFFCURVE",
"94 423 OFFCURVE",
"94 317 CURVE",
"101 301 LINE",
"101 405 OFFCURVE",
"189 496 OFFCURVE",
"306 496 CURVE SMOOTH",
"412 496 OFFCURVE",
"479 434 OFFCURVE",
"479 327 CURVE SMOOTH",
"479 0 LINE",
"495 0 LINE",
"495 329 LINE SMOOTH",
"495 444 OFFCURVE",
"424 510 OFFCURVE",
"309 510 CURVE SMOOTH"
);
}
);
width = 968;
}
);
leftKerningGroup = n;
rightKerningGroup = n;
unicode = 006D;
},
{
glyphname = n;
lastChange = "2015-02-07 11:35:54 +0000";
layers = (
{
anchors = (
{
name = bottom;
position = "{342, 0}";
},
{
name = top;
position = "{318, 500}";
}
);
layerId = "4A17B37A-CBFD-40E5-9E02-2080A0E1F76C";
name = Regular;
paths = (
{
closed = 1;
nodes = (
"231 510 OFFCURVE",
"138 451 OFFCURVE",
"138 291 CURVE",
"173 266 LINE",
"173 394 OFFCURVE",
"255 440 OFFCURVE",
"328 440 CURVE SMOOTH",
"397 440 OFFCURVE",
"451 403 OFFCURVE",
"451 292 CURVE SMOOTH",
"451 0 LINE",
"531 0 LINE",
"531 320 LINE SMOOTH",
"531 449 OFFCURVE",
"443 510 OFFCURVE",
"336 510 CURVE SMOOTH"
);
},
{
closed = 1;
nodes = (
"93 500 LINE",
"93 383 LINE",
"93 0 LINE",
"173 0 LINE",
"173 377 LINE",
"170 383 LINE",
"163 500 LINE"
);
}
);
width = 619;
},
{
anchors = (
{
name = bottom;
position = "{303, 0}";
},
{
name = top;
position = "{309, 500}";
}
);
layerId = "99EB5860-B45A-4B60-BB0B-F826C8F71D42";
name = Bold;
paths = (
{
closed = 1;
nodes = (
"299 510 OFFCURVE",
"231 418 OFFCURVE",
"231 262 CURVE",
"269 262 LINE",
"269 316 OFFCURVE",
"284 340 OFFCURVE",
"317 340 CURVE SMOOTH",
"341 340 OFFCURVE",
"352 327 OFFCURVE",
"352 282 CURVE SMOOTH",
"352 0 LINE",
"582 0 LINE",
"582 342 LINE SMOOTH",
"582 449 OFFCURVE",
"524 510 OFFCURVE",
"425 510 CURVE SMOOTH"
);
},
{
closed = 1;
nodes = (
"39 500 LINE",
"39 281 LINE",
"39 0 LINE",
"269 0 LINE",
"269 281 LINE",
"254 338 LINE",
"246 500 LINE"
);
}
);
width = 620;
},
{
anchors = (
{
name = bottom;
position = "{323, 0}";
},
{
name = top;
position = "{293, 500}";
}
);
layerId = "1C7CD022-87C7-4E11-B656-E47B18819458";
name = Light;
paths = (
{
closed = 1;
nodes = (
"184 510 OFFCURVE",
"94 423 OFFCURVE",
"94 317 CURVE",
"101 301 LINE",
"101 405 OFFCURVE",
"189 496 OFFCURVE",
"306 496 CURVE SMOOTH",
"412 496 OFFCURVE",
"479 434 OFFCURVE",
"479 327 CURVE SMOOTH",
"479 0 LINE",
"495 0 LINE",
"495 329 LINE SMOOTH",
"495 444 OFFCURVE",
"424 510 OFFCURVE",
"309 510 CURVE SMOOTH"
);
},
{
closed = 1;
nodes = (
"85 500 LINE",
"85 301 LINE",
"85 0 LINE",
"101 0 LINE",
"101 292 LINE",
"101 301 LINE",
"101 500 LINE"
);
}
);
width = 574;
}
);
leftKerningGroup = n;
rightKerningGroup = n;
unicode = 006E;
},
{
glyphname = o;
lastChange = "2015-02-07 11:35:54 +0000";
layers = (
{
anchors = (
{
name = top;
position = "{304, 500}";
}
);
layerId = "4A17B37A-CBFD-40E5-9E02-2080A0E1F76C";
name = Regular;
paths = (
{
closed = 1;
nodes = (
"153 510 OFFCURVE",
"62 412 OFFCURVE",
"62 250 CURVE SMOOTH",
"62 88 OFFCURVE",
"153 -10 OFFCURVE",
"304 -10 CURVE SMOOTH",
"455 -10 OFFCURVE",
"546 88 OFFCURVE",
"546 250 CURVE SMOOTH",
"546 412 OFFCURVE",
"455 510 OFFCURVE",
"304 510 CURVE SMOOTH"
);
},
{
closed = 1;
nodes = (
"405 440 OFFCURVE",
"466 369 OFFCURVE",
"466 250 CURVE SMOOTH",
"466 131 OFFCURVE",
"405 60 OFFCURVE",
"304 60 CURVE SMOOTH",
"203 60 OFFCURVE",
"142 131 OFFCURVE",
"142 250 CURVE SMOOTH",
"142 369 OFFCURVE",
"203 440 OFFCURVE",
"304 440 CURVE SMOOTH"
);
}
);
width = 608;
},
{
anchors = (
{
name = top;
position = "{299, 500}";
}
);
layerId = "99EB5860-B45A-4B60-BB0B-F826C8F71D42";
name = Bold;
paths = (
{
closed = 1;
nodes = (
"122 510 OFFCURVE",
"20 415 OFFCURVE",
"20 250 CURVE SMOOTH",
"20 85 OFFCURVE",
"122 -10 OFFCURVE",
"299 -10 CURVE SMOOTH",
"476 -10 OFFCURVE",
"578 85 OFFCURVE",
"578 250 CURVE SMOOTH",
"578 415 OFFCURVE",
"476 510 OFFCURVE",
"299 510 CURVE SMOOTH"
);
},
{
closed = 1;
nodes = (
"337 355 OFFCURVE",
"347 334 OFFCURVE",
"347 250 CURVE SMOOTH",
"347 166 OFFCURVE",
"337 145 OFFCURVE",
"299 145 CURVE SMOOTH",
"261 145 OFFCURVE",
"251 166 OFFCURVE",
"251 250 CURVE SMOOTH",
"251 334 OFFCURVE",
"261 355 OFFCURVE",
"299 355 CURVE SMOOTH"
);
}
);
width = 598;
},
{
anchors = (
{
name = top;
position = "{285, 500}";
}
);
layerId = "1C7CD022-87C7-4E11-B656-E47B18819458";
name = Light;
paths = (
{
closed = 1;
nodes = (
"140 510 OFFCURVE",
"51 412 OFFCURVE",
"51 250 CURVE SMOOTH",
"51 88 OFFCURVE",
"140 -10 OFFCURVE",
"285 -10 CURVE SMOOTH",
"430 -10 OFFCURVE",
"518 88 OFFCURVE",
"518 250 CURVE SMOOTH",
"518 412 OFFCURVE",
"430 510 OFFCURVE",
"285 510 CURVE SMOOTH"
);
},
{
closed = 1;
nodes = (
"420 496 OFFCURVE",
"502 403 OFFCURVE",
"502 250 CURVE SMOOTH",
"502 97 OFFCURVE",
"420 4 OFFCURVE",
"285 4 CURVE SMOOTH",
"150 4 OFFCURVE",
"67 97 OFFCURVE",
"67 250 CURVE SMOOTH",
"67 403 OFFCURVE",
"150 496 OFFCURVE",
"285 496 CURVE SMOOTH"
);
}
);
width = 569;
}
);
leftKerningGroup = o;
rightKerningGroup = o;
unicode = 006F;
},
{
glyphname = oslash;
lastChange = "2015-02-07 11:35:54 +0000";
layers = (
{
components = (
{
disableAlignment = 1;
name = o;
transform = "{1, 0, 0, 1, 0, 0}";
}
);
layerId = "1C7CD022-87C7-4E11-B656-E47B18819458";
name = Light;
paths = (
{
closed = 1;
nodes = (
"122 55 LINE",
"55 -30 LINE",
"76 -30 LINE",
"133 42 LINE"
);
},
{
closed = 1;
nodes = (
"443 434 LINE",
"519 530 LINE",
"498 530 LINE",
"432 446 LINE"
);
},
{
closed = 1;
nodes = (
"133 42 LINE",
"443 434 LINE",
"432 446 LINE",
"122 55 LINE"
);
}
);
width = 570;
},
{
components = (
{
name = o;
transform = "{1, 0, 0, 1, 0, 0}";
}
);
layerId = "4A17B37A-CBFD-40E5-9E02-2080A0E1F76C";
name = Regular;
paths = (
{
closed = 1;
nodes = (
"155 87 LINE",
"61 -37 LINE",
"128 -37 LINE",
"197 55 LINE"
);
},
{
closed = 1;
nodes = (
"465 410 LINE",
"551 523 LINE",
"484 523 LINE",
"419 437 LINE"
);
},
{
closed = 1;
nodes = (
"197 55 LINE",
"465 410 LINE",
"419 437 LINE",
"155 87 LINE"
);
}
);
width = 609;
},
{
components = (
{
name = o;
transform = "{1, 0, 0, 1, 0, 0}";
}
);
layerId = "99EB5860-B45A-4B60-BB0B-F826C8F71D42";
name = Bold;
paths = (
{
closed = 1;
nodes = (
"162 131 LINE",
"44 -21 LINE",
"111 -21 LINE",
"198 95 LINE"
);
},
{
closed = 1;
nodes = (
"449 376 LINE",
"566 520 LINE",
"499 520 LINE",
"414 413 LINE"
);
},
{
closed = 1;
nodes = (
"215 90 LINE",
"438 388 LINE",
"401 423 LINE",
"178 123 LINE"
);
}
);
width = 598;
}
);
leftKerningGroup = o;
rightKerningGroup = o;
unicode = 00F8;
},
{
glyphname = oe;
lastChange = "2015-02-07 11:35:54 +0000";
layers = (
{
layerId = "4A17B37A-CBFD-40E5-9E02-2080A0E1F76C";
name = Regular;
paths = (
{
closed = 1;
nodes = (
"153 510 OFFCURVE",
"62 412 OFFCURVE",
"62 250 CURVE SMOOTH",
"62 88 OFFCURVE",
"153 -10 OFFCURVE",
"307 -10 CURVE SMOOTH",
"455 -10 OFFCURVE",
"542 88 OFFCURVE",
"542 250 CURVE SMOOTH",
"542 412 OFFCURVE",
"455 510 OFFCURVE",
"307 510 CURVE SMOOTH"
);
},
{
closed = 1;
nodes = (
"408 440 OFFCURVE",
"469 369 OFFCURVE",
"469 250 CURVE SMOOTH",
"469 131 OFFCURVE",
"408 60 OFFCURVE",
"307 60 CURVE SMOOTH",
"206 60 OFFCURVE",
"145 131 OFFCURVE",
"145 250 CURVE SMOOTH",
"145 369 OFFCURVE",
"206 440 OFFCURVE",
"307 440 CURVE SMOOTH"
);
},
{
closed = 1;
nodes = (
"560 510 OFFCURVE",
"479 412 OFFCURVE",
"479 250 CURVE SMOOTH",
"479 88 OFFCURVE",
"566 -10 OFFCURVE",
"711 -10 CURVE SMOOTH",
"819 -10 OFFCURVE",
"881 31 OFFCURVE",
"919 99 CURVE",
"852 134 LINE",
"834 86 OFFCURVE",
"784 60 OFFCURVE",
"711 60 CURVE SMOOTH",
"610 60 OFFCURVE",
"547 131 OFFCURVE",
"547 250 CURVE SMOOTH",
"547 369 OFFCURVE",
"604 440 OFFCURVE",
"705 440 CURVE SMOOTH",
"800 440 OFFCURVE",
"858 368 OFFCURVE",
"854 255 CURVE SMOOTH",
"853 220 LINE",
"930 220 LINE",
"930 255 LINE SMOOTH",
"930 412 OFFCURVE",
"850 510 OFFCURVE",
"705 510 CURVE SMOOTH"
);
},
{
closed = 1;
nodes = (
"521 291 LINE",
"521 220 LINE",
"893 220 LINE",
"893 291 LINE"
);
}
);
width = 989;
},
{
layerId = "99EB5860-B45A-4B60-BB0B-F826C8F71D42";
leftMetricsKey = "=o";
rightMetricsKey = "=e";
name = Bold;
paths = (
{
closed = 1;
nodes = (
"123 510 OFFCURVE",
"20 415 OFFCURVE",
"20 250 CURVE SMOOTH",
"20 85 OFFCURVE",
"123 -10 OFFCURVE",
"285 -10 CURVE SMOOTH",
"445 -10 OFFCURVE",
"528 85 OFFCURVE",
"528 250 CURVE SMOOTH",
"528 415 OFFCURVE",
"445 510 OFFCURVE",
"285 510 CURVE SMOOTH"
);
},
{
closed = 1;
nodes = (
"337 356 OFFCURVE",
"347 334 OFFCURVE",
"347 250 CURVE SMOOTH",
"347 165 OFFCURVE",
"337 145 OFFCURVE",
"299 145 CURVE SMOOTH",
"262 145 OFFCURVE",
"252 165 OFFCURVE",
"252 250 CURVE SMOOTH",
"252 334 OFFCURVE",
"262 356 OFFCURVE",
"299 356 CURVE SMOOTH"
);
},
{
closed = 1;
nodes = (
"496 510 OFFCURVE",
"412 416 OFFCURVE",
"412 250 CURVE SMOOTH",
"412 84 OFFCURVE",
"498 -10 OFFCURVE",
"676 -10 CURVE SMOOTH",
"778 -10 OFFCURVE",
"879 45 OFFCURVE",
"902 135 CURVE",
"716 186 LINE",
"709 157 OFFCURVE",
"694 145 OFFCURVE",
"655 145 CURVE SMOOTH",
"612 145 OFFCURVE",
"585 159 OFFCURVE",
"585 246 CURVE SMOOTH",
"585 329 OFFCURVE",
"603 356 OFFCURVE",
"643 356 CURVE SMOOTH",
"683 356 OFFCURVE",
"696 329 OFFCURVE",
"696 249 CURVE SMOOTH",
"696 206 LINE",
"912 206 LINE",
"913 236 LINE SMOOTH",
"919 412 OFFCURVE",
"820 510 OFFCURVE",
"664 510 CURVE SMOOTH"
);
},
{
closed = 1;
nodes = (
"515 290 LINE",
"515 206 LINE",
"806 206 LINE",
"806 290 LINE"
);
}
);
width = 933;
},
{
layerId = "1C7CD022-87C7-4E11-B656-E47B18819458";
name = Light;
paths = (
{
closed = 1;
nodes = (
"140 510 OFFCURVE",
"51 412 OFFCURVE",
"51 250 CURVE SMOOTH",
"51 88 OFFCURVE",
"140 -10 OFFCURVE",
"285 -10 CURVE SMOOTH",
"430 -10 OFFCURVE",
"518 88 OFFCURVE",
"518 250 CURVE SMOOTH",
"518 412 OFFCURVE",
"430 510 OFFCURVE",
"285 510 CURVE SMOOTH"
);
},
{
closed = 1;
nodes = (
"420 496 OFFCURVE",
"502 403 OFFCURVE",
"502 250 CURVE SMOOTH",
"502 97 OFFCURVE",
"420 4 OFFCURVE",
"285 4 CURVE SMOOTH",
"150 4 OFFCURVE",
"67 97 OFFCURVE",
"67 250 CURVE SMOOTH",
"67 403 OFFCURVE",
"150 496 OFFCURVE",
"285 496 CURVE SMOOTH"
);
},
{
closed = 1;
nodes = (
"587 510 OFFCURVE",
"503 413 OFFCURVE",
"503 250 CURVE SMOOTH",
"503 87 OFFCURVE",
"588 -10 OFFCURVE",
"732 -10 CURVE SMOOTH",
"823 -10 OFFCURVE",
"899 35 OFFCURVE",
"934 109 CURVE",
"921 116 LINE",
"888 46 OFFCURVE",
"816 4 OFFCURVE",
"732 4 CURVE SMOOTH",
"597 4 OFFCURVE",
"518 96 OFFCURVE",
"518 250 CURVE SMOOTH",
"518 404 OFFCURVE",
"596 496 OFFCURVE",
"727 496 CURVE SMOOTH",
"855 496 OFFCURVE",
"924 401 OFFCURVE",
"924 244 CURVE SMOOTH",
"924 239 LINE",
"938 239 LINE",
"938 246 LINE SMOOTH",
"938 411 OFFCURVE",
"859 510 OFFCURVE",
"727 510 CURVE SMOOTH"
);
},
{
closed = 1;
nodes = (
"511 254 LINE",
"511 239 LINE",
"933 239 LINE",
"933 254 LINE"
);
}
);
width = 986;
}
);
leftKerningGroup = o;
rightKerningGroup = e;
unicode = 0153;
},
{
glyphname = p;
lastChange = "2015-02-07 11:35:54 +0000";
layers = (
{
components = (
{
name = bowl;
transform = "{-1, 0, 0, -1, 647, 500}";
}
);
layerId = "4A17B37A-CBFD-40E5-9E02-2080A0E1F76C";
name = Regular;
paths = (
{
closed = 1;
nodes = (
"93 500 LINE",
"93 383 LINE",
"93 -210 LINE",
"173 -210 LINE",
"173 376 LINE",
"170 383 LINE",
"163 500 LINE"
);
}
);
width = 630;
},
{
components = (
{
name = bowl;
transform = "{-1, 0, 0, -1, 682, 500}";
}
);
layerId = "99EB5860-B45A-4B60-BB0B-F826C8F71D42";
rightMetricsKey = "=o+5";
name = Bold;
paths = (
{
closed = 1;
nodes = (
"39 500 LINE",
"39 281 LINE",
"39 -210 LINE",
"269 -210 LINE",
"269 281 LINE",
"249 338 LINE",
"241 500 LINE"
);
}
);
width = 627;
},
{
components = (
{
disableAlignment = 1;
name = bowl;
transform = "{-1, 0, 0, -1, 658, 500}";
}
);
layerId = "1C7CD022-87C7-4E11-B656-E47B18819458";
name = Light;
paths = (
{
closed = 1;
nodes = (
"85 500 LINE",
"85 399 LINE",
"85 -210 LINE",
"101 -210 LINE",
"101 317 LINE",
"101 321 LINE",
"101 500 LINE"
);
}
);
width = 585;
}
);
leftKerningGroup = n;
rightKerningGroup = o;
unicode = 0070;
},
{
glyphname = thorn;
lastChange = "2015-02-07 11:35:54 +0000";
layers = (
{
layerId = "4A17B37A-CBFD-40E5-9E02-2080A0E1F76C";
name = Regular;
paths = (
{
closed = 1;
nodes = (
"93 730 LINE",
"93 -210 LINE",
"173 -210 LINE",
"173 730 LINE"
);
},
{
closed = 1;
nodes = (
"222 510 OFFCURVE",
"144 432 OFFCURVE",
"144 337 CURVE",
"173 256 LINE",
"173 369 OFFCURVE",
"235 440 OFFCURVE",
"330 440 CURVE SMOOTH",
"428 440 OFFCURVE",
"487 366 OFFCURVE",
"487 250 CURVE SMOOTH",
"487 134 OFFCURVE",
"428 60 OFFCURVE",
"330 60 CURVE SMOOTH",
"235 60 OFFCURVE",
"173 131 OFFCURVE",
"173 244 CURVE",
"144 163 LINE",
"144 68 OFFCURVE",
"222 -10 OFFCURVE",
"339 -10 CURVE SMOOTH",
"478 -10 OFFCURVE",
"567 87 OFFCURVE",
"567 250 CURVE SMOOTH",
"567 413 OFFCURVE",
"478 510 OFFCURVE",
"339 510 CURVE SMOOTH"
);
}
);
width = 630;
},
{
layerId = "99EB5860-B45A-4B60-BB0B-F826C8F71D42";
leftMetricsKey = "=n";
rightMetricsKey = "=o+5";
name = Bold;
paths = (
{
closed = 1;
nodes = (
"39 700 LINE",
"39 -210 LINE",
"269 -210 LINE",
"269 700 LINE"
);
},
{
closed = 1;
nodes = (
"295 510 OFFCURVE",
"249 397 OFFCURVE",
"249 280 CURVE",
"269 254 LINE",
"269 323 OFFCURVE",
"287 349 OFFCURVE",
"318 349 CURVE SMOOTH",
"357 349 OFFCURVE",
"370 329 OFFCURVE",
"370 250 CURVE SMOOTH",
"370 171 OFFCURVE",
"357 152 OFFCURVE",
"318 152 CURVE SMOOTH",
"284 152 OFFCURVE",
"269 182 OFFCURVE",
"269 246 CURVE",
"242 220 LINE",
"242 90 OFFCURVE",
"289 -10 OFFCURVE",
"409 -10 CURVE SMOOTH",
"481 -10 OFFCURVE",
"602 35 OFFCURVE",
"602 258 CURVE SMOOTH",
"602 439 OFFCURVE",
"514 510 OFFCURVE",
"418 510 CURVE SMOOTH"
);
}
);
width = 627;
},
{
layerId = "1C7CD022-87C7-4E11-B656-E47B18819458";
name = Light;
paths = (
{
closed = 1;
nodes = (
"85 730 LINE",
"85 -210 LINE",
"101 -210 LINE",
"101 730 LINE"
);
},
{
closed = 1;
nodes = (
"176 510 OFFCURVE",
"91 420 OFFCURVE",
"91 267 CURVE",
"101 253 LINE",
"101 404 OFFCURVE",
"180 496 OFFCURVE",
"302 496 CURVE SMOOTH",
"438 496 OFFCURVE",
"518 405 OFFCURVE",
"518 250 CURVE SMOOTH",
"518 95 OFFCURVE",
"438 4 OFFCURVE",
"302 4 CURVE SMOOTH",
"181 4 OFFCURVE",
"101 95 OFFCURVE",
"101 246 CURVE",
"92 230 LINE",
"92 79 OFFCURVE",
"175 -10 OFFCURVE",
"305 -10 CURVE SMOOTH",
"449 -10 OFFCURVE",
"534 87 OFFCURVE",
"534 250 CURVE SMOOTH",
"534 413 OFFCURVE",
"449 510 OFFCURVE",
"305 510 CURVE SMOOTH"
);
}
);
width = 585;
}
);
leftKerningGroup = h;
rightKerningGroup = o;
unicode = 00FE;
},
{
glyphname = q;
lastChange = "2015-02-07 11:35:54 +0000";
layers = (
{
components = (
{
name = bowl;
transform = "{1, 0, 0, -1, -16, 500}";
}
);
layerId = "4A17B37A-CBFD-40E5-9E02-2080A0E1F76C";
name = Regular;
paths = (
{
closed = 1;
nodes = (
"468 500 LINE",
"461 383 LINE",
"458 377 LINE",
"458 -210 LINE",
"538 -210 LINE",
"538 383 LINE",
"538 500 LINE"
);
}
);
width = 631;
},
{
components = (
{
name = bowl;
transform = "{1, 0, 0, -1, -55, 500}";
}
);
layerId = "99EB5860-B45A-4B60-BB0B-F826C8F71D42";
leftMetricsKey = "=o+5";
rightMetricsKey = "=|n";
name = Bold;
paths = (
{
closed = 1;
nodes = (
"386 500 LINE",
"378 338 LINE",
"358 281 LINE",
"358 -210 LINE",
"588 -210 LINE",
"588 281 LINE",
"588 500 LINE"
);
}
);
width = 627;
},
{
components = (
{
disableAlignment = 1;
name = bowl;
transform = "{1, 0, 0, -1, -72, 500}";
}
);
layerId = "1C7CD022-87C7-4E11-B656-E47B18819458";
name = Light;
paths = (
{
closed = 1;
nodes = (
"485 500 LINE",
"485 318 LINE",
"485 309 LINE",
"485 -210 LINE",
"501 -210 LINE",
"501 399 LINE",
"501 500 LINE"
);
}
);
width = 586;
}
);
leftKerningGroup = o;
rightKerningGroup = u;
unicode = 0071;
},
{
glyphname = r;
lastChange = "2015-02-07 11:35:54 +0000";
layers = (
{
anchors = (
{
name = bottom;
position = "{154, 0}";
},
{
name = top;
position = "{220, 500}";
}
);
layerId = "4A17B37A-CBFD-40E5-9E02-2080A0E1F76C";
name = Regular;
paths = (
{
closed = 1;
nodes = (
"210 510 OFFCURVE",
"146 438 OFFCURVE",
"146 295 CURVE",
"173 270 LINE",
"173 382 OFFCURVE",
"245 435 OFFCURVE",
"305 435 CURVE SMOOTH",
"331 435 OFFCURVE",
"353 430 OFFCURVE",
"368 422 CURVE",
"384 500 LINE",
"369 508 OFFCURVE",
"346 510 OFFCURVE",
"329 510 CURVE SMOOTH"
);
},
{
closed = 1;
nodes = (
"93 500 LINE",
"93 383 LINE",
"93 0 LINE",
"173 0 LINE",
"173 372 LINE",
"173 383 LINE",
"158 500 LINE"
);
}
);
width = 408;
},
{
anchors = (
{
name = bottom;
position = "{142, 0}";
},
{
name = top;
position = "{241, 500}";
}
);
layerId = "99EB5860-B45A-4B60-BB0B-F826C8F71D42";
leftMetricsKey = "=n";
name = Bold;
paths = (
{
closed = 1;
nodes = (
"282 510 OFFCURVE",
"236 394 OFFCURVE",
"236 240 CURVE",
"269 240 LINE",
"269 297 OFFCURVE",
"308 326 OFFCURVE",
"368 326 CURVE SMOOTH",
"395 326 OFFCURVE",
"419 319 OFFCURVE",
"431 310 CURVE",
"450 498 LINE",
"443 503 OFFCURVE",
"428 510 OFFCURVE",
"398 510 CURVE SMOOTH"
);
},
{
closed = 1;
nodes = (
"39 500 LINE",
"39 281 LINE",
"39 0 LINE",
"269 0 LINE",
"269 281 LINE",
"254 307 LINE",
"246 500 LINE"
);
}
);
width = 444;
},
{
anchors = (
{
name = bottom;
position = "{105, 0}";
},
{
name = top;
position = "{195, 500}";
}
);
layerId = "1C7CD022-87C7-4E11-B656-E47B18819458";
name = Light;
paths = (
{
closed = 1;
nodes = (
"162 510 OFFCURVE",
"92 411 OFFCURVE",
"92 305 CURVE",
"101 291 LINE",
"101 395 OFFCURVE",
"170 496 OFFCURVE",
"263 496 CURVE SMOOTH",
"300 496 OFFCURVE",
"314 487 OFFCURVE",
"327 474 CURVE",
"336 486 LINE",
"322 500 OFFCURVE",
"301 510 OFFCURVE",
"265 510 CURVE SMOOTH"
);
},
{
closed = 1;
nodes = (
"85 500 LINE",
"85 291 LINE",
"85 0 LINE",
"101 0 LINE",
"101 334 LINE",
"101 341 LINE",
"101 500 LINE"
);
}
);
width = 343;
}
);
leftKerningGroup = n;
rightKerningGroup = r;
unicode = 0072;
},
{
color = 3;
glyphname = s;
lastChange = "2015-02-07 11:35:54 +0000";
layers = (
{
anchors = (
{
name = bottom;
position = "{279, 0}";
},
{
name = bottomC;
position = "{271, 0}";
},
{
name = top;
position = "{264, 500}";
}
);
layerId = "4A17B37A-CBFD-40E5-9E02-2080A0E1F76C";
name = Regular;
paths = (
{
closed = 1;
nodes = (
"142 510 OFFCURVE",
"67 441 OFFCURVE",
"67 360 CURVE SMOOTH",
"67 166 OFFCURVE",
"392 249 OFFCURVE",
"392 134 CURVE SMOOTH",
"392 93 OFFCURVE",
"353 60 OFFCURVE",
"271 60 CURVE SMOOTH",
"199 60 OFFCURVE",
"137 87 OFFCURVE",
"113 148 CURVE",
"48 103 LINE",
"86 26 OFFCURVE",
"171 -10 OFFCURVE",
"263 -10 CURVE SMOOTH",
"391 -10 OFFCURVE",
"472 51 OFFCURVE",
"472 138 CURVE SMOOTH",
"472 335 OFFCURVE",
"147 241 OFFCURVE",
"147 367 CURVE SMOOTH",
"147 404 OFFCURVE",
"197 440 OFFCURVE",
"264 440 CURVE SMOOTH",
"327 440 OFFCURVE",
"372 416 OFFCURVE",
"394 350 CURVE",
"462 390 LINE",
"434 472 OFFCURVE",
"371 510 OFFCURVE",
"264 510 CURVE SMOOTH"
);
}
);
width = 527;
},
{
anchors = (
{
name = bottom;
position = "{273, 0}";
},
{
name = bottomC;
position = "{270, 0}";
},
{
name = top;
position = "{282, 500}";
}
);
layerId = "99EB5860-B45A-4B60-BB0B-F826C8F71D42";
name = Bold;
paths = (
{
closed = 1;
nodes = (
"97 510 OFFCURVE",
"16 418 OFFCURVE",
"16 336 CURVE SMOOTH",
"16 164 OFFCURVE",
"298 188 OFFCURVE",
"298 143 CURVE SMOOTH",
"298 132 OFFCURVE",
"277 128 OFFCURVE",
"254 128 CURVE SMOOTH",
"195 128 OFFCURVE",
"143 154 OFFCURVE",
"107 186 CURVE",
"6 64 LINE",
"65 11 OFFCURVE",
"149 -10 OFFCURVE",
"271 -10 CURVE SMOOTH",
"454 -10 OFFCURVE",
"529 74 OFFCURVE",
"529 170 CURVE SMOOTH",
"529 353 OFFCURVE",
"247 320 OFFCURVE",
"247 354 CURVE SMOOTH",
"247 363 OFFCURVE",
"259 372 OFFCURVE",
"298 372 CURVE SMOOTH",
"346 372 OFFCURVE",
"397 363 OFFCURVE",
"431 323 CURVE",
"528 437 LINE",
"490 472 OFFCURVE",
"416 510 OFFCURVE",
"287 510 CURVE SMOOTH"
);
}
);
width = 537;
},
{
anchors = (
{
name = bottom;
position = "{252, 0}";
},
{
name = bottomC;
position = "{232, 0}";
},
{
name = top;
position = "{239, 500}";
}
);
layerId = "1C7CD022-87C7-4E11-B656-E47B18819458";
name = Light;
paths = (
{
closed = 1;
nodes = (
"137 510 OFFCURVE",
"59 451 OFFCURVE",
"59 374 CURVE SMOOTH",
"59 186 OFFCURVE",
"416 290 OFFCURVE",
"416 124 CURVE SMOOTH",
"416 51 OFFCURVE",
"349 4 OFFCURVE",
"243 4 CURVE SMOOTH",
"142 4 OFFCURVE",
"69 43 OFFCURVE",
"52 118 CURVE",
"37 111 LINE",
"56 31 OFFCURVE",
"136 -10 OFFCURVE",
"240 -10 CURVE SMOOTH",
"358 -10 OFFCURVE",
"432 41 OFFCURVE",
"432 124 CURVE SMOOTH",
"432 310 OFFCURVE",
"75 199 OFFCURVE",
"75 378 CURVE SMOOTH",
"75 445 OFFCURVE",
"146 496 OFFCURVE",
"244 496 CURVE SMOOTH",
"338 496 OFFCURVE",
"398 459 OFFCURVE",
"415 377 CURVE",
"429 385 LINE",
"410 472 OFFCURVE",
"346 510 OFFCURVE",
"244 510 CURVE SMOOTH"
);
}
);
width = 479;
},
{
anchors = (
{
name = bottom;
position = "{277, 0}";
},
{
name = bottomC;
position = "{271, 0}";
},
{
name = top;
position = "{271, 500}";
}
);
associatedMasterId = "4A17B37A-CBFD-40E5-9E02-2080A0E1F76C";
background = {
paths = (
{
closed = 1;
nodes = (
"125 510 OFFCURVE",
"48 432 OFFCURVE",
"48 351 CURVE SMOOTH",
"48 165 OFFCURVE",
"356 226 OFFCURVE",
"356 137 CURVE SMOOTH",
"356 108 OFFCURVE",
"324 86 OFFCURVE",
"265 86 CURVE SMOOTH",
"197 86 OFFCURVE",
"139 112 OFFCURVE",
"111 162 CURVE",
"32 88 LINE",
"78 20 OFFCURVE",
"163 -10 OFFCURVE",
"266.04 -10 CURVE SMOOTH",
"414.94 -10 OFFCURVE",
"494 60 OFFCURVE",
"494 150 CURVE SMOOTH",
"494 342 OFFCURVE",
"185 271.02 OFFCURVE",
"185 362.06 CURVE SMOOTH",
"185 388 OFFCURVE",
"221 414 OFFCURVE",
"277 414 CURVE SMOOTH",
"334 414 OFFCURVE",
"381 396 OFFCURVE",
"408 340 CURVE",
"487 408 LINE",
"455 472 OFFCURVE",
"388 510 OFFCURVE",
"273 510 CURVE SMOOTH"
);
}
);
};
layerId = "7A5DE7F6-4D37-482E-B2C9-7DAF0435345E";
name = "Regular {137,5}";
paths = (
{
closed = 1;
nodes = (
"125 510 OFFCURVE",
"48 430 OFFCURVE",
"48 349 CURVE SMOOTH",
"48 160 OFFCURVE",
"356 211 OFFCURVE",
"356 135 CURVE SMOOTH",
"356 108 OFFCURVE",
"323 90 OFFCURVE",
"264 90 CURVE SMOOTH",
"196 90 OFFCURVE",
"142 108 OFFCURVE",
"114 168 CURVE",
"34 86 LINE",
"80 18 OFFCURVE",
"163 -10 OFFCURVE",
"266 -10 CURVE SMOOTH",
"415 -10 OFFCURVE",
"494 55 OFFCURVE",
"494 145 CURVE SMOOTH",
"494 332 OFFCURVE",
"185 273 OFFCURVE",
"185 362 CURVE SMOOTH",
"185 388 OFFCURVE",
"219 410 OFFCURVE",
"275 410 CURVE SMOOTH",
"342 410 OFFCURVE",
"382 383 OFFCURVE",
"406 327 CURVE",
"496 404 LINE",
"450 476 OFFCURVE",
"388 510 OFFCURVE",
"273 510 CURVE SMOOTH"
);
}
);
width = 531;
}
);
leftKerningGroup = s;
rightKerningGroup = s;
unicode = 0073;
},
{
glyphname = germandbls;
lastChange = "2015-02-07 11:35:54 +0000";
layers = (
{
hints = (
{
place = "{257.299790, 0.000000}";
},
{
place = "{257.299790, 0.000000}";
}
);
layerId = "4A17B37A-CBFD-40E5-9E02-2080A0E1F76C";
name = Regular;
paths = (
{
closed = 1;
nodes = (
"373 393 LINE",
"489 393 OFFCURVE",
"534 483 OFFCURVE",
"534 549 CURVE SMOOTH",
"534 631 OFFCURVE",
"480 735 OFFCURVE",
"326 735 CURVE SMOOTH",
"148 735 OFFCURVE",
"93 634 OFFCURVE",
"93 497 CURVE SMOOTH",
"93 0 LINE",
"173 0 LINE",
"173 473 LINE SMOOTH",
"173 596 OFFCURVE",
"206 660 OFFCURVE",
"318 660 CURVE SMOOTH",
"405 660 OFFCURVE",
"452 623 OFFCURVE",
"452 544 CURVE SMOOTH",
"452 474 OFFCURVE",
"399 422 OFFCURVE",
"309 422 CURVE SMOOTH",
"270 422 LINE",
"270 347 LINE",
"309 347 LINE SMOOTH",
"421 347 OFFCURVE",
"483 299 OFFCURVE",
"483 206 CURVE SMOOTH",
"483 123 OFFCURVE",
"434 63 OFFCURVE",
"343 63 CURVE SMOOTH",
"305 63 OFFCURVE",
"277 72 OFFCURVE",
"257 88 CURVE",
"234 23 LINE",
"252 6 OFFCURVE",
"294 -10 OFFCURVE",
"339 -10 CURVE SMOOTH",
"487 -10 OFFCURVE",
"560 91 OFFCURVE",
"560 197 CURVE SMOOTH",
"560 286 OFFCURVE",
"512 391 OFFCURVE",
"373 391 CURVE"
);
}
);
width = 620;
},
{
layerId = "99EB5860-B45A-4B60-BB0B-F826C8F71D42";
leftMetricsKey = "=n";
name = Bold;
paths = (
{
closed = 1;
nodes = (
"473 347 LINE",
"575 347 OFFCURVE",
"638 421 OFFCURVE",
"638 507 CURVE SMOOTH",
"638 628 OFFCURVE",
"537 705 OFFCURVE",
"356 705 CURVE SMOOTH",
"130 705 OFFCURVE",
"39 610 OFFCURVE",
"39 437 CURVE SMOOTH",
"39 0 LINE",
"269 0 LINE",
"269 431 LINE SMOOTH",
"269 518 OFFCURVE",
"292 550 OFFCURVE",
"355 550 CURVE SMOOTH",
"391 550 OFFCURVE",
"417 526 OFFCURVE",
"417 486 CURVE SMOOTH",
"417 444 OFFCURVE",
"398 418 OFFCURVE",
"364 417 CURVE SMOOTH",
"338 417 LINE",
"310 265 LINE",
"365 265 LINE SMOOTH",
"406 265 OFFCURVE",
"428 245 OFFCURVE",
"428 208 CURVE SMOOTH",
"428 168 OFFCURVE",
"407 145 OFFCURVE",
"376 145 CURVE SMOOTH",
"349 145 OFFCURVE",
"337 152 OFFCURVE",
"323 167 CURVE",
"293 22 LINE",
"325 1 OFFCURVE",
"371 -10 OFFCURVE",
"429 -10 CURVE SMOOTH",
"583 -10 OFFCURVE",
"649 78 OFFCURVE",
"649 175 CURVE SMOOTH",
"649 282 OFFCURVE",
"574 345 OFFCURVE",
"473 345 CURVE"
);
}
);
width = 666;
},
{
hints = (
{
place = "{102.919918, 0.000000}";
},
{
place = "{102.919918, 0.000000}";
}
);
layerId = "1C7CD022-87C7-4E11-B656-E47B18819458";
name = Light;
paths = (
{
closed = 1;
nodes = (
"323 378 LINE",
"409 382 OFFCURVE",
"477 453 OFFCURVE",
"477 561 CURVE SMOOTH",
"477 671 OFFCURVE",
"407 735 OFFCURVE",
"293 735 CURVE SMOOTH",
"157 735 OFFCURVE",
"85 660 OFFCURVE",
"85 516 CURVE SMOOTH",
"85 0 LINE",
"100 0 LINE",
"100 505 LINE SMOOTH",
"100 647 OFFCURVE",
"167 721 OFFCURVE",
"293 721 CURVE SMOOTH",
"397 721 OFFCURVE",
"461 662 OFFCURVE",
"461 563 CURVE SMOOTH",
"461 449 OFFCURVE",
"390 384 OFFCURVE",
"292 384 CURVE SMOOTH",
"248 384 LINE",
"248 370 LINE",
"292 370 LINE SMOOTH",
"408 370 OFFCURVE",
"490 310 OFFCURVE",
"490 182 CURVE SMOOTH",
"490 73 OFFCURVE",
"422 3 OFFCURVE",
"320 3 CURVE SMOOTH",
"279 3 OFFCURVE",
"249 15 OFFCURVE",
"224 44 CURVE",
"215 34 LINE",
"238 5 OFFCURVE",
"276 -10 OFFCURVE",
"320 -10 CURVE SMOOTH",
"431 -10 OFFCURVE",
"506 65 OFFCURVE",
"506 182 CURVE SMOOTH",
"506 299 OFFCURVE",
"440 371 OFFCURVE",
"323 377 CURVE"
);
}
);
width = 555;
}
);
leftKerningGroup = h;
unicode = 00DF;
},
{
glyphname = longs;
lastChange = "2015-02-07 11:35:54 +0000";
layers = (
{
hints = (
{
place = "{102.919918, 0.000000}";
}
);
layerId = "1C7CD022-87C7-4E11-B656-E47B18819458";
name = Light;
paths = (
{
closed = 1;
nodes = (
"97 0 LINE",
"97 592 LINE SMOOTH",
"97 678 OFFCURVE",
"129 721 OFFCURVE",
"190 721 CURVE SMOOTH",
"221 721 OFFCURVE",
"232 715 OFFCURVE",
"249 698 CURVE",
"255 710 LINE",
"239 724 OFFCURVE",
"226 735 OFFCURVE",
"190 735 CURVE SMOOTH",
"121 735 OFFCURVE",
"81 687 OFFCURVE",
"81 592 CURVE SMOOTH",
"81 0 LINE"
);
}
);
width = 209;
},
{
hints = (
{
place = "{257.299790, 0.000000}";
}
);
layerId = "4A17B37A-CBFD-40E5-9E02-2080A0E1F76C";
name = Regular;
paths = (
{
closed = 1;
nodes = (
"169 0 LINE",
"169 576 LINE SMOOTH",
"169 636 OFFCURVE",
"195 662 OFFCURVE",
"240 662 CURVE SMOOTH",
"258 662 OFFCURVE",
"272 657 OFFCURVE",
"285 647 CURVE",
"301 712 LINE",
"287 727 OFFCURVE",
"262 735 OFFCURVE",
"224 735 CURVE SMOOTH",
"125 735 OFFCURVE",
"89 673 OFFCURVE",
"89 584 CURVE SMOOTH",
"89 0 LINE"
);
}
);
width = 260;
},
{
layerId = "99EB5860-B45A-4B60-BB0B-F826C8F71D42";
name = Bold;
paths = (
{
closed = 1;
nodes = (
"261 0 LINE",
"261 505 LINE SMOOTH",
"261 552 OFFCURVE",
"291 570 OFFCURVE",
"330 570 CURVE SMOOTH",
"348 570 OFFCURVE",
"359 568 OFFCURVE",
"371 560 CURVE",
"377 694 LINE",
"350 713 OFFCURVE",
"318 720 OFFCURVE",
"267 720 CURVE SMOOTH",
"152 720 OFFCURVE",
"39 672 OFFCURVE",
"39 520 CURVE SMOOTH",
"39 0 LINE"
);
}
);
width = 369;
}
);
leftKerningGroup = l;
leftMetricsKey = l;
unicode = 017F;
},
{
glyphname = t;
lastChange = "2015-02-07 11:35:54 +0000";
layers = (
{
anchors = (
{
name = bottom;
position = "{256, 0}";
},
{
name = center;
position = "{164, 250}";
},
{
name = topright;
position = "{292, 767}";
}
);
layerId = "4A17B37A-CBFD-40E5-9E02-2080A0E1F76C";
name = Regular;
paths = (
{
closed = 1;
nodes = (
"131 620 LINE",
"131 124 LINE SMOOTH",
"132 27 OFFCURVE",
"196 -10 OFFCURVE",
"270 -10 CURVE SMOOTH",
"325 -10 OFFCURVE",
"368 7 OFFCURVE",
"399 35 CURVE",
"371 102 LINE",
"348 79 OFFCURVE",
"322 65 OFFCURVE",
"286 65 CURVE SMOOTH",
"242 65 OFFCURVE",
"211 89 OFFCURVE",
"211 138 CURVE SMOOTH",
"211 642 LINE"
);
},
{
closed = 1;
nodes = (
"31 500 LINE",
"31 431 LINE",
"396 431 LINE",
"396 500 LINE"
);
}
);
width = 419;
},
{
anchors = (
{
name = bottom;
position = "{251, 0}";
},
{
name = center;
position = "{156, 250}";
},
{
name = topright;
position = "{367, 767}";
}
);
layerId = "99EB5860-B45A-4B60-BB0B-F826C8F71D42";
name = Bold;
paths = (
{
closed = 1;
nodes = (
"78 606 LINE",
"78 168 LINE SMOOTH",
"78 38 OFFCURVE",
"152 -10 OFFCURVE",
"292 -10 CURVE SMOOTH",
"342 -10 OFFCURVE",
"407 3 OFFCURVE",
"441 24 CURVE",
"431 154 LINE",
"413 145 OFFCURVE",
"395 141 OFFCURVE",
"368 141 CURVE SMOOTH",
"327 141 OFFCURVE",
"308 158 OFFCURVE",
"308 204 CURVE SMOOTH",
"308 670 LINE"
);
},
{
closed = 1;
nodes = (
"1 500 LINE",
"1 345 LINE",
"434 345 LINE",
"434 500 LINE"
);
}
);
width = 445;
},
{
anchors = (
{
name = bottom;
position = "{220, 0}";
},
{
name = center;
position = "{119, 281}";
},
{
name = topright;
position = "{247, 767}";
}
);
layerId = "1C7CD022-87C7-4E11-B656-E47B18819458";
name = Light;
paths = (
{
closed = 1;
nodes = (
"111 630 LINE",
"112 126 LINE SMOOTH",
"112 37 OFFCURVE",
"150 -10 OFFCURVE",
"231 -10 CURVE SMOOTH",
"271 -10 OFFCURVE",
"307 7 OFFCURVE",
"327 28 CURVE",
"319 41 LINE",
"295 15 OFFCURVE",
"266 4 OFFCURVE",
"231 4 CURVE SMOOTH",
"159 4 OFFCURVE",
"127 46 OFFCURVE",
"127 126 CURVE SMOOTH",
"127 635 LINE"
);
},
{
closed = 1;
nodes = (
"11 500 LINE",
"11 486 LINE",
"320 486 LINE",
"320 500 LINE"
);
}
);
width = 329;
}
);
leftKerningGroup = t;
rightKerningGroup = t;
unicode = 0074;
},
{
glyphname = u;
lastChange = "2015-02-07 11:35:54 +0000";
layers = (
{
anchors = (
{
name = ogonek;
position = "{526, 0}";
},
{
name = top;
position = "{308, 500}";
}
);
layerId = "4A17B37A-CBFD-40E5-9E02-2080A0E1F76C";
name = Regular;
paths = (
{
closed = 1;
nodes = (
"88 500 LINE",
"88 173 LINE SMOOTH",
"88 41 OFFCURVE",
"173 -10 OFFCURVE",
"272 -10 CURVE SMOOTH",
"396 -10 OFFCURVE",
"482 53 OFFCURVE",
"482 208 CURVE",
"446 228 LINE",
"446 110 OFFCURVE",
"371 60 OFFCURVE",
"286 60 CURVE SMOOTH",
"214 60 OFFCURVE",
"168 91 OFFCURVE",
"168 194 CURVE SMOOTH",
"168 500 LINE"
);
},
{
closed = 1;
nodes = (
"446 500 LINE",
"446 123 LINE",
"449 117 LINE",
"456 0 LINE",
"526 0 LINE",
"526 117 LINE",
"526 500 LINE"
);
}
);
width = 619;
},
{
anchors = (
{
name = ogonek;
position = "{581, 0}";
},
{
name = top;
position = "{304, 500}";
}
);
layerId = "99EB5860-B45A-4B60-BB0B-F826C8F71D42";
leftMetricsKey = "=|n";
rightMetricsKey = "=|n";
name = Bold;
paths = (
{
closed = 1;
nodes = (
"38 500 LINE",
"38 162 LINE SMOOTH",
"38 40 OFFCURVE",
"96 -10 OFFCURVE",
"200 -10 CURVE SMOOTH",
"321 -10 OFFCURVE",
"389 73 OFFCURVE",
"389 239 CURVE",
"351 239 LINE",
"351 185 OFFCURVE",
"336 160 OFFCURVE",
"305 160 CURVE SMOOTH",
"279 160 OFFCURVE",
"268 174 OFFCURVE",
"268 219 CURVE SMOOTH",
"268 500 LINE"
);
},
{
closed = 1;
nodes = (
"351 500 LINE",
"351 219 LINE",
"366 162 LINE",
"374 0 LINE",
"581 0 LINE",
"581 152 LINE",
"581 500 LINE"
);
}
);
width = 620;
},
{
anchors = (
{
name = ogonek;
position = "{479, 0}";
},
{
name = top;
position = "{280, 500}";
}
);
layerId = "1C7CD022-87C7-4E11-B656-E47B18819458";
name = Light;
paths = (
{
closed = 1;
nodes = (
"79 500 LINE",
"79 167 LINE SMOOTH",
"79 54 OFFCURVE",
"143 -10 OFFCURVE",
"254 -10 CURVE SMOOTH",
"381 -10 OFFCURVE",
"470 77 OFFCURVE",
"470 183 CURVE",
"463 196 LINE",
"463 122 OFFCURVE",
"401 4 OFFCURVE",
"257 4 CURVE SMOOTH",
"154 4 OFFCURVE",
"95 64 OFFCURVE",
"95 169 CURVE SMOOTH",
"95 500 LINE"
);
},
{
closed = 1;
nodes = (
"463 500 LINE",
"463 199 LINE",
"463 165 LINE",
"463 0 LINE",
"479 0 LINE",
"479 199 LINE",
"479 500 LINE"
);
}
);
width = 564;
}
);
leftKerningGroup = u;
rightKerningGroup = u;
unicode = 0075;
},
{
glyphname = uni0123;
lastChange = "2015-02-07 11:35:54 +0000";
layers = (
{
components = (
{
name = g;
transform = "{1, 0, 0, 1, 0, 0}";
}
);
layerId = "4A17B37A-CBFD-40E5-9E02-2080A0E1F76C";
name = Regular;
paths = (
{
closed = 1;
nodes = (
"297 778 LINE",
"227 587 LINE",
"315 587 LINE",
"357 778 LINE"
);
}
);
width = 532;
},
{
components = (
{
name = g;
transform = "{1, 0, 0, 1, 0, 0}";
}
);
layerId = "99EB5860-B45A-4B60-BB0B-F826C8F71D42";
name = Bold;
paths = (
{
closed = 1;
nodes = (
"262 768 LINE",
"191 547 LINE",
"369 547 LINE",
"401 768 LINE"
);
}
);
width = 578;
},
{
components = (
{
disableAlignment = 1;
name = g;
transform = "{1, 0, 0, 1, 0, 0}";
}
);
layerId = "1C7CD022-87C7-4E11-B656-E47B18819458";
name = Light;
paths = (
{
closed = 1;
nodes = (
"314 778 LINE",
"254 587 LINE",
"272 587 LINE",
"327 778 LINE"
);
}
);
width = 496;
}
);
leftKerningGroup = g;
leftMetricsKey = g;
rightKerningGroup = g;
rightMetricsKey = g;
unicode = 0123;
},
{
glyphname = uni0163;
lastChange = "2015-02-07 11:35:54 +0000";
layers = (
{
components = (
{
name = t;
transform = "{1, 0, 0, 1, 0, 0}";
}
);
layerId = "4A17B37A-CBFD-40E5-9E02-2080A0E1F76C";
name = Regular;
paths = (
{
closed = 1;
nodes = (
"275 -32 OFFCURVE",
"296 -55 OFFCURVE",
"296 -97 CURVE SMOOTH",
"296 -132 OFFCURVE",
"271 -155 OFFCURVE",
"239 -155 CURVE SMOOTH",
"211 -155 OFFCURVE",
"186 -142 OFFCURVE",
"170 -125 CURVE",
"140 -180 LINE",
"168 -205 OFFCURVE",
"203 -215 OFFCURVE",
"250 -215 CURVE SMOOTH",
"324 -215 OFFCURVE",
"366 -164 OFFCURVE",
"366 -108 CURVE SMOOTH",
"366 -54 OFFCURVE",
"326 6 OFFCURVE",
"238 28 CURVE",
"197 7 LINE"
);
}
);
width = 439;
},
{
components = (
{
name = t;
transform = "{1, 0, 0, 1, 0, 0}";
}
);
layerId = "99EB5860-B45A-4B60-BB0B-F826C8F71D42";
name = Bold;
paths = (
{
closed = 1;
nodes = (
"252 -8 OFFCURVE",
"275 -25 OFFCURVE",
"275 -59 CURVE SMOOTH",
"275 -89 OFFCURVE",
"254 -104 OFFCURVE",
"217 -104 CURVE SMOOTH",
"186 -104 OFFCURVE",
"163 -92 OFFCURVE",
"148 -76 CURVE",
"102 -172 LINE",
"126 -195 OFFCURVE",
"163 -215 OFFCURVE",
"236 -215 CURVE SMOOTH",
"324 -215 OFFCURVE",
"397 -184 OFFCURVE",
"397 -90 CURVE SMOOTH",
"397 -19 OFFCURVE",
"330 25 OFFCURVE",
"211 52 CURVE",
"179 5 LINE"
);
}
);
width = 445;
},
{
components = (
{
disableAlignment = 1;
name = t;
transform = "{1, 0, 0, 1, 0, 0}";
}
);
layerId = "1C7CD022-87C7-4E11-B656-E47B18819458";
name = Light;
paths = (
{
closed = 1;
nodes = (
"253 -45 OFFCURVE",
"275 -77 OFFCURVE",
"275 -119 CURVE SMOOTH",
"275 -161 OFFCURVE",
"247 -189 OFFCURVE",
"204 -189 CURVE SMOOTH",
"164 -189 OFFCURVE",
"141 -178 OFFCURVE",
"116 -148 CURVE",
"108 -160 LINE",
"132 -190 OFFCURVE",
"158 -202 OFFCURVE",
"204 -202 CURVE SMOOTH",
"256 -202 OFFCURVE",
"290 -168 OFFCURVE",
"290 -118 CURVE SMOOTH",
"290 -71 OFFCURVE",
"262 -36 OFFCURVE",
"180 8 CURVE",
"163 8 LINE"
);
}
);
width = 329;
}
);
leftKerningGroup = t;
rightKerningGroup = t;
unicode = 0163;
},
{
glyphname = uogonek;
lastChange = "2015-02-07 11:35:54 +0000";
layers = (
{
anchors = (
{
name = ogonek;
position = "{526, 0}";
},
{
name = top;
position = "{308, 500}";
}
);
layerId = "4A17B37A-CBFD-40E5-9E02-2080A0E1F76C";
name = Regular;
paths = (
{
closed = 1;
nodes = (
"88 500 LINE",
"88 173 LINE SMOOTH",
"88 41 OFFCURVE",
"173 -10 OFFCURVE",
"272 -10 CURVE SMOOTH",
"376 -10 OFFCURVE",
"482 73 OFFCURVE",
"482 208 CURVE",
"446 236 LINE",
"446 125 OFFCURVE",
"366 60 OFFCURVE",
"281 60 CURVE SMOOTH",
"214 60 OFFCURVE",
"168 91 OFFCURVE",
"168 194 CURVE SMOOTH",
"168 500 LINE"
);
},
{
closed = 1;
nodes = (
"412 -72 OFFCURVE",
"443 -44 OFFCURVE",
"526 0 CURVE",
"474 17 LINE",
"389 -23 OFFCURVE",
"350 -60 OFFCURVE",
"350 -122 CURVE SMOOTH",
"350 -177 OFFCURVE",
"384 -215 OFFCURVE",
"456 -215 CURVE SMOOTH",
"485 -215 OFFCURVE",
"518 -207 OFFCURVE",
"537 -195 CURVE",
"521 -145 LINE",
"505 -155 OFFCURVE",
"483 -158 OFFCURVE",
"466 -158 CURVE SMOOTH",
"432 -158 OFFCURVE",
"412 -143 OFFCURVE",
"412 -110 CURVE SMOOTH"
);
},
{
closed = 1;
nodes = (
"446 500 LINE",
"446 161 LINE",
"446 117 LINE",
"461 0 LINE",
"526 0 LINE",
"526 117 LINE",
"526 500 LINE"
);
}
);
width = 619;
},
{
anchors = (
{
name = ogonek;
position = "{581, 0}";
},
{
name = top;
position = "{304, 500}";
}
);
layerId = "99EB5860-B45A-4B60-BB0B-F826C8F71D42";
leftMetricsKey = "=|n";
rightMetricsKey = "=|n-3";
name = Bold;
paths = (
{
closed = 1;
nodes = (
"38 500 LINE",
"38 162 LINE SMOOTH",
"38 40 OFFCURVE",
"96 -10 OFFCURVE",
"200 -10 CURVE SMOOTH",
"321 -10 OFFCURVE",
"389 73 OFFCURVE",
"389 239 CURVE",
"351 239 LINE",
"351 185 OFFCURVE",
"336 160 OFFCURVE",
"305 160 CURVE SMOOTH",
"279 160 OFFCURVE",
"268 174 OFFCURVE",
"268 219 CURVE SMOOTH",
"268 500 LINE"
);
},
{
closed = 1;
nodes = (
"468 -25 OFFCURVE",
"511 0 OFFCURVE",
"581 0 CURVE",
"489 32 LINE",
"387 26 OFFCURVE",
"314 -17 OFFCURVE",
"314 -96 CURVE SMOOTH",
"314 -180 OFFCURVE",
"383 -215 OFFCURVE",
"466 -215 CURVE SMOOTH",
"516 -215 OFFCURVE",
"552 -209 OFFCURVE",
"584 -189 CURVE",
"557 -86 LINE",
"547 -92 OFFCURVE",
"532 -94 OFFCURVE",
"517 -94 CURVE SMOOTH",
"486 -94 OFFCURVE",
"468 -80 OFFCURVE",
"468 -56 CURVE SMOOTH"
);
},
{
closed = 1;
nodes = (
"351 500 LINE",
"351 219 LINE",
"366 162 LINE",
"374 0 LINE",
"581 0 LINE",
"581 152 LINE",
"581 500 LINE"
);
}
);
width = 620;
},
{
anchors = (
{
name = ogonek;
position = "{479, 0}";
},
{
name = top;
position = "{274, 500}";
}
);
layerId = "1C7CD022-87C7-4E11-B656-E47B18819458";
name = Light;
paths = (
{
closed = 1;
nodes = (
"79 500 LINE",
"79 167 LINE SMOOTH",
"79 54 OFFCURVE",
"143 -10 OFFCURVE",
"254 -10 CURVE SMOOTH",
"381 -10 OFFCURVE",
"470 77 OFFCURVE",
"470 183 CURVE",
"463 196 LINE",
"463 122 OFFCURVE",
"401 4 OFFCURVE",
"257 4 CURVE SMOOTH",
"154 4 OFFCURVE",
"95 64 OFFCURVE",
"95 169 CURVE SMOOTH",
"95 500 LINE"
);
},
{
closed = 1;
nodes = (
"357 -78 OFFCURVE",
"391 -52 OFFCURVE",
"479 0 CURVE",
"467 9 LINE",
"376 -44 OFFCURVE",
"342 -75 OFFCURVE",
"342 -128 CURVE SMOOTH",
"342 -176 OFFCURVE",
"380 -202 OFFCURVE",
"430 -202 CURVE SMOOTH",
"466 -202 OFFCURVE",
"487 -191 OFFCURVE",
"503 -178 CURVE",
"495 -168 LINE",
"481 -181 OFFCURVE",
"464 -188 OFFCURVE",
"430 -188 CURVE SMOOTH",
"388 -188 OFFCURVE",
"357 -167 OFFCURVE",
"357 -128 CURVE SMOOTH"
);
},
{
closed = 1;
nodes = (
"463 500 LINE",
"463 199 LINE",
"463 165 LINE",
"463 0 LINE",
"479 0 LINE",
"479 199 LINE",
"479 500 LINE"
);
}
);
width = 564;
}
);
leftKerningGroup = u;
rightKerningGroup = u;
unicode = 0173;
},
{
color = 1;
glyphname = v;
lastChange = "2015-02-07 11:35:54 +0000";
layers = (
{
layerId = "4A17B37A-CBFD-40E5-9E02-2080A0E1F76C";
name = Regular;
paths = (
{
closed = 1;
nodes = (
"424 500 LINE",
"230 0 LINE",
"300 0 LINE",
"508 500 LINE"
);
},
{
closed = 1;
nodes = (
"12 500 LINE",
"220 0 LINE",
"292 0 LINE",
"103 500 LINE"
);
}
);
width = 520;
},
{
guideLines = (
{
position = "{165, 286}";
}
);
layerId = "99EB5860-B45A-4B60-BB0B-F826C8F71D42";
name = Bold;
paths = (
{
closed = 1;
nodes = (
"360 500 LINE",
"267 0 LINE",
"437 0 LINE",
"598 500 LINE"
);
},
{
closed = 1;
nodes = (
"-10 500 LINE",
"151 0 LINE",
"321 0 LINE",
"228 500 LINE"
);
}
);
width = 588;
},
{
associatedMasterId = "99EB5860-B45A-4B60-BB0B-F826C8F71D42";
background = {
paths = (
{
closed = 1;
nodes = (
"374 500 LINE",
"331 266 LINE",
"304 110 LINE",
"301 110 LINE",
"273 266 LINE",
"230 500 LINE",
"-8 500 LINE",
"151 0 LINE",
"453 0 LINE",
"612 500 LINE"
);
}
);
};
layerId = "E75C944A-E6E1-4EFE-BCC6-FB67E6EA7943";
name = "Bold [229]";
paths = (
{
closed = 1;
nodes = (
"360 500 LINE",
"314 255 LINE",
"296 135 LINE",
"292 135 LINE",
"274 254 LINE",
"228 500 LINE",
"-10 500 LINE",
"151 0 LINE",
"437 0 LINE",
"598 500 LINE"
);
}
);
width = 588;
},
{
layerId = "1C7CD022-87C7-4E11-B656-E47B18819458";
name = Light;
paths = (
{
closed = 1;
nodes = (
"441 500 LINE",
"232 0 LINE",
"249 0 LINE",
"459 500 LINE"
);
},
{
closed = 1;
nodes = (
"22 500 LINE",
"232 0 LINE",
"249 0 LINE",
"40 500 LINE"
);
}
);
width = 481;
}
);
rightKerningGroup = v;
unicode = 0076;
},
{
color = 1;
glyphname = w;
lastChange = "2015-02-07 11:35:54 +0000";
layers = (
{
layerId = "4A17B37A-CBFD-40E5-9E02-2080A0E1F76C";
name = Regular;
paths = (
{
closed = 1;
nodes = (
"388 500 LINE",
"565 0 LINE",
"635 0 LINE",
"468 500 LINE"
);
},
{
closed = 1;
nodes = (
"37 500 LINE",
"211 0 LINE",
"281 0 LINE",
"126 500 LINE"
);
},
{
closed = 1;
nodes = (
"388 500 LINE",
"221 0 LINE",
"291 0 LINE",
"458 500 LINE"
);
},
{
closed = 1;
nodes = (
"730 500 LINE",
"575 0 LINE",
"645 0 LINE",
"819 500 LINE"
);
}
);
width = 856;
},
{
associatedMasterId = "99EB5860-B45A-4B60-BB0B-F826C8F71D42";
background = {
paths = (
{
closed = 1;
nodes = (
"344 500 LINE",
"521 0 LINE",
"601 0 LINE",
"424 500 LINE"
);
},
{
closed = 1;
nodes = (
"-7 500 LINE",
"167 0 LINE",
"247 0 LINE",
"82 500 LINE"
);
},
{
closed = 1;
nodes = (
"344 500 LINE",
"177 0 LINE",
"247 0 LINE",
"414 500 LINE"
);
},
{
closed = 1;
nodes = (
"686 500 LINE",
"531 0 LINE",
"601 0 LINE",
"775 500 LINE"
);
}
);
};
layerId = "99888AC1-1C69-408D-8F1B-3B63389CE42B";
name = "Bold [229]";
paths = (
{
closed = 1;
nodes = (
"713 500 LINE",
"673 260 LINE",
"658 148 LINE",
"654 148 LINE",
"635 259 LINE",
"584 500 LINE",
"358 500 LINE",
"308 262 LINE",
"288 148 LINE",
"284 148 LINE",
"269 261 LINE",
"229 500 LINE",
"-9 500 LINE",
"127 0 LINE",
"413 0 LINE",
"450 155 LINE",
"469 276 LINE",
"473 276 LINE",
"493 154 LINE",
"529 0 LINE",
"815 0 LINE",
"951 500 LINE"
);
}
);
width = 942;
},
{
layerId = "99EB5860-B45A-4B60-BB0B-F826C8F71D42";
name = Bold;
paths = (
{
closed = 1;
nodes = (
"411 500 LINE",
"529 0 LINE",
"689 0 LINE",
"584 500 LINE"
);
},
{
closed = 1;
nodes = (
"-9 500 LINE",
"127 0 LINE",
"312 0 LINE",
"229 500 LINE"
);
},
{
closed = 1;
nodes = (
"358 500 LINE",
"253 0 LINE",
"413 0 LINE",
"531 500 LINE"
);
},
{
closed = 1;
nodes = (
"713 500 LINE",
"630 0 LINE",
"815 0 LINE",
"951 500 LINE"
);
}
);
width = 942;
},
{
layerId = "1C7CD022-87C7-4E11-B656-E47B18819458";
name = Light;
paths = (
{
closed = 1;
nodes = (
"381 500 LINE",
"568 0 LINE",
"584 0 LINE",
"398 500 LINE"
);
},
{
closed = 1;
nodes = (
"29 500 LINE",
"195 0 LINE",
"211 0 LINE",
"46 500 LINE"
);
},
{
closed = 1;
nodes = (
"381 500 LINE",
"195 0 LINE",
"211 0 LINE",
"398 500 LINE"
);
},
{
closed = 1;
nodes = (
"733 500 LINE",
"568 0 LINE",
"584 0 LINE",
"750 500 LINE"
);
}
);
width = 779;
}
);
unicode = 0077;
},
{
glyphname = x;
lastChange = "2015-02-07 11:35:54 +0000";
layers = (
{
layerId = "4A17B37A-CBFD-40E5-9E02-2080A0E1F76C";
name = Regular;
paths = (
{
closed = 1;
nodes = (
"41 500 LINE",
"238 228 LINE",
"247 217 LINE",
"402 0 LINE",
"500 0 LINE",
"295 284 LINE",
"290 291 LINE",
"141 500 LINE"
);
},
{
closed = 1;
nodes = (
"403 500 LINE",
"253 287 LINE",
"247 287 LINE",
"29 0 LINE",
"122 0 LINE",
"294 233 LINE",
"299 233 LINE",
"497 500 LINE"
);
}
);
width = 533;
},
{
layerId = "99EB5860-B45A-4B60-BB0B-F826C8F71D42";
name = Bold;
paths = (
{
closed = 1;
nodes = (
"-7 500 LINE",
"180 228 LINE",
"272 235 LINE",
"384 0 LINE",
"638 0 LINE",
"446 278 LINE",
"356 265 LINE",
"247 500 LINE"
);
},
{
closed = 1;
nodes = (
"383 500 LINE",
"271 265 LINE",
"178 278 LINE",
"-11 0 LINE",
"240 0 LINE",
"349 235 LINE",
"450 228 LINE",
"634 500 LINE"
);
}
);
width = 627;
},
{
layerId = "1C7CD022-87C7-4E11-B656-E47B18819458";
name = Light;
paths = (
{
closed = 1;
nodes = (
"26 500 LINE",
"227 256 LINE",
"231 251 LINE",
"438 0 LINE",
"462 0 LINE",
"241 268 LINE",
"237 273 LINE",
"50 500 LINE"
);
},
{
closed = 1;
nodes = (
"411 500 LINE",
"230 269 LINE",
"227 265 LINE",
"19 0 LINE",
"41 0 LINE",
"237 250 LINE",
"244 259 LINE",
"433 500 LINE"
);
}
);
width = 472;
}
);
unicode = 0078;
},
{
glyphname = y;
lastChange = "2015-02-07 11:35:54 +0000";
layers = (
{
anchors = (
{
name = top;
position = "{273, 500}";
}
);
layerId = "4A17B37A-CBFD-40E5-9E02-2080A0E1F76C";
name = Regular;
paths = (
{
closed = 1;
nodes = (
"432 500 LINE",
"315 184 LINE",
"279 85 LINE",
"248 174 LINE",
"123 500 LINE",
"32 500 LINE",
"191 120 LINE",
"241 1 LINE",
"215 -64 LINE SMOOTH",
"190 -130 OFFCURVE",
"159 -145 OFFCURVE",
"124 -145 CURVE SMOOTH",
"96 -145 OFFCURVE",
"66 -137 OFFCURVE",
"43 -105 CURVE",
"15 -173 LINE",
"43 -203 OFFCURVE",
"75 -215 OFFCURVE",
"125 -215 CURVE SMOOTH",
"199 -215 OFFCURVE",
"244 -182 OFFCURVE",
"283 -84 CURVE SMOOTH",
"518 500 LINE"
);
}
);
width = 535;
},
{
anchors = (
{
name = top;
position = "{323, 500}";
}
);
layerId = "99EB5860-B45A-4B60-BB0B-F826C8F71D42";
rightMetricsKey = "=v";
name = Bold;
paths = (
{
closed = 1;
nodes = (
"379 500 LINE",
"329 243 LINE",
"307 125 LINE",
"288 242 LINE",
"243 500 LINE",
"-8 500 LINE",
"135 128 LINE",
"198 -19 LINE",
"195 -27 LINE SMOOTH",
"187 -47 OFFCURVE",
"169 -54 OFFCURVE",
"126 -54 CURVE SMOOTH",
"78 -54 OFFCURVE",
"58 -49 OFFCURVE",
"37 -37 CURVE",
"-5 -182 LINE",
"32 -202 OFFCURVE",
"85 -215 OFFCURVE",
"149 -215 CURVE SMOOTH",
"311 -215 OFFCURVE",
"391 -143 OFFCURVE",
"457 56 CURVE SMOOTH",
"604 500 LINE"
);
}
);
width = 594;
},
{
anchors = (
{
name = top;
position = "{244, 500}";
}
);
layerId = "1C7CD022-87C7-4E11-B656-E47B18819458";
name = Light;
paths = (
{
closed = 1;
nodes = (
"441 500 LINE",
"260 61 LINE",
"243 18 LINE",
"225 60 LINE",
"40 500 LINE",
"22 500 LINE",
"180 128 LINE",
"235 -1 LINE",
"195 -98 LINE SMOOTH",
"162 -178 OFFCURVE",
"127 -201 OFFCURVE",
"75 -201 CURVE SMOOTH",
"47 -201 OFFCURVE",
"20 -193 OFFCURVE",
"5 -170 CURVE",
"-4 -183 LINE",
"10 -204 OFFCURVE",
"39 -215 OFFCURVE",
"74 -215 CURVE SMOOTH",
"136 -215 OFFCURVE",
"174 -188 OFFCURVE",
"210 -101 CURVE SMOOTH",
"459 500 LINE"
);
}
);
width = 481;
}
);
leftKerningGroup = y;
rightKerningGroup = v;
unicode = 0079;
},
{
glyphname = z;
lastChange = "2015-02-07 11:35:54 +0000";
layers = (
{
anchors = (
{
name = top;
position = "{252, 500}";
}
);
guideLines = (
{
angle = 90;
position = "{60, 410}";
},
{
angle = 90;
position = "{479, 114}";
}
);
layerId = "4A17B37A-CBFD-40E5-9E02-2080A0E1F76C";
name = Regular;
paths = (
{
closed = 1;
nodes = (
"326 383 LINE",
"57 64 LINE",
"108 19 LINE",
"215 132 LINE",
"471 436 LINE",
"420 481 LINE"
);
},
{
closed = 1;
nodes = (
"309 69 LINE",
"250 69 LINE",
"57 64 LINE",
"57 0 LINE",
"250 0 LINE",
"479 0 LINE",
"479 69 LINE"
);
},
{
closed = 1;
nodes = (
"287 500 LINE",
"60 500 LINE",
"60 431 LINE",
"231 431 LINE",
"287 431 LINE",
"471 436 LINE",
"471 500 LINE"
);
}
);
width = 534;
},
{
anchors = (
{
name = top;
position = "{252, 500}";
}
);
layerId = "99EB5860-B45A-4B60-BB0B-F826C8F71D42";
name = Bold;
paths = (
{
closed = 1;
nodes = (
"178 304 LINE",
"22 132 LINE",
"167 49 LINE",
"326 198 LINE",
"479 368 LINE",
"323 448 LINE"
);
},
{
closed = 1;
nodes = (
"359 152 LINE",
"184 147 LINE",
"22 132 LINE",
"22 0 LINE",
"309 0 LINE",
"489 0 LINE",
"489 152 LINE"
);
},
{
closed = 1;
nodes = (
"172 500 LINE",
"22 500 LINE",
"22 348 LINE",
"152 348 LINE",
"317 353 LINE",
"479 368 LINE",
"479 500 LINE"
);
}
);
width = 502;
},
{
anchors = (
{
name = top;
position = "{237, 500}";
}
);
layerId = "1C7CD022-87C7-4E11-B656-E47B18819458";
name = Light;
paths = (
{
closed = 1;
nodes = (
"370 437 LINE",
"39 14 LINE",
"52 5 LINE",
"117 83 LINE",
"429 486 LINE",
"416 493 LINE"
);
},
{
closed = 1;
nodes = (
"75 14 LINE",
"50 14 LINE",
"39 14 LINE",
"39 0 LINE",
"50 0 LINE",
"445 0 LINE",
"445 14 LINE"
);
},
{
closed = 1;
nodes = (
"419 500 LINE",
"31 500 LINE",
"31 486 LINE",
"396 486 LINE",
"419 486 LINE",
"429 486 LINE",
"429 500 LINE"
);
}
);
width = 472;
}
);
leftKerningGroup = z;
rightKerningGroup = z;
unicode = 007A;
},
{
glyphname = longs.component;
lastChange = "2015-02-07 11:35:54 +0000";
layers = (
{
layerId = "99EB5860-B45A-4B60-BB0B-F826C8F71D42";
name = Bold;
paths = (
{
closed = 1;
nodes = (
"261 0 LINE",
"261 527 LINE SMOOTH",
"261 556 OFFCURVE",
"272 570 OFFCURVE",
"292 570 CURVE SMOOTH",
"306 570 OFFCURVE",
"311 568 OFFCURVE",
"317 565 CURVE",
"323 704 LINE",
"306 713 OFFCURVE",
"277 720 OFFCURVE",
"246 720 CURVE SMOOTH",
"131 720 OFFCURVE",
"39 672 OFFCURVE",
"39 520 CURVE SMOOTH",
"39 0 LINE"
);
}
);
width = 309;
},
{
layerId = "1C7CD022-87C7-4E11-B656-E47B18819458";
name = Light;
paths = (
{
closed = 1;
nodes = (
"97 0 LINE",
"97 592 LINE SMOOTH",
"97 678 OFFCURVE",
"129 721 OFFCURVE",
"190 721 CURVE SMOOTH",
"221 721 OFFCURVE",
"232 715 OFFCURVE",
"249 698 CURVE",
"255 712 LINE",
"239 726 OFFCURVE",
"226 735 OFFCURVE",
"190 735 CURVE SMOOTH",
"121 735 OFFCURVE",
"81 687 OFFCURVE",
"81 592 CURVE SMOOTH",
"81 0 LINE"
);
}
);
width = 189;
},
{
layerId = "4A17B37A-CBFD-40E5-9E02-2080A0E1F76C";
name = Regular;
paths = (
{
closed = 1;
nodes = (
"169 0 LINE",
"169 576 LINE SMOOTH",
"169 636 OFFCURVE",
"191 662 OFFCURVE",
"230 662 CURVE SMOOTH",
"243 662 OFFCURVE",
"255 657 OFFCURVE",
"266 647 CURVE",
"274 719 LINE",
"259 731 OFFCURVE",
"241 735 OFFCURVE",
"217 735 CURVE SMOOTH",
"118 735 OFFCURVE",
"89 673 OFFCURVE",
"89 584 CURVE SMOOTH",
"89 0 LINE"
);
}
);
width = 256;
}
);
leftMetricsKey = l;
},
{
glyphname = iacute_j.loclNLD;
lastChange = "2015-02-07 11:35:54 +0000";
layers = (
{
components = (
{
name = iacute;
transform = "{1, 0, 0, 1, 0, 0}";
},
{
name = acute;
transform = "{1, 0, 0, 1, -23, 0}";
}
);
layerId = "1C7CD022-87C7-4E11-B656-E47B18819458";
name = Light;
paths = (
{
closed = 1;
nodes = (
"271 500 LINE",
"271 -64 LINE SMOOTH",
"271 -147 OFFCURVE",
"225 -201 OFFCURVE",
"155 -201 CURVE SMOOTH",
"131 -201 OFFCURVE",
"105 -194 OFFCURVE",
"89 -179 CURVE",
"84 -193 LINE",
"100 -207 OFFCURVE",
"127 -215 OFFCURVE",
"155 -215 CURVE SMOOTH",
"235 -215 OFFCURVE",
"287 -156 OFFCURVE",
"287 -64 CURVE SMOOTH",
"287 500 LINE"
);
}
);
width = 372;
},
{
components = (
{
name = iacute;
transform = "{1, 0, 0, 1, 0, 0}";
},
{
name = acute;
transform = "{1, 0, 0, 1, 150, 0}";
}
);
layerId = "4A17B37A-CBFD-40E5-9E02-2080A0E1F76C";
name = Regular;
paths = (
{
closed = 1;
nodes = (
"359 500 LINE",
"359 -43 LINE SMOOTH",
"359 -113 OFFCURVE",
"329 -137 OFFCURVE",
"286 -137 CURVE SMOOTH",
"251 -137 OFFCURVE",
"223 -123 OFFCURVE",
"204 -106 CURVE",
"187 -182 LINE",
"210 -201 OFFCURVE",
"246 -215 OFFCURVE",
"287 -215 CURVE SMOOTH",
"355 -215 OFFCURVE",
"439 -176 OFFCURVE",
"439 -51 CURVE SMOOTH",
"439 500 LINE"
);
}
);
width = 532;
},
{
components = (
{
name = iacute;
transform = "{1, 0, 0, 1, 0, 0}";
},
{
name = acute;
transform = "{1, 0, 0, 1, 210, 0}";
}
);
layerId = "99EB5860-B45A-4B60-BB0B-F826C8F71D42";
name = Bold;
paths = (
{
closed = 1;
nodes = (
"347 500 LINE",
"347 7 LINE SMOOTH",
"347 -44 OFFCURVE",
"325 -64 OFFCURVE",
"283 -64 CURVE SMOOTH",
"263 -64 OFFCURVE",
"243 -59 OFFCURVE",
"232 -51 CURVE",
"204 -184 LINE",
"245 -206 OFFCURVE",
"293 -215 OFFCURVE",
"356 -215 CURVE SMOOTH",
"511 -215 OFFCURVE",
"577 -155 OFFCURVE",
"577 -13 CURVE SMOOTH",
"577 500 LINE"
);
}
);
width = 614;
}
);
leftKerningGroup = i;
rightKerningGroup = i;
},
